<svg id="Capa_1" enable-background="new 0 0 512 512" height="512" viewBox="0 0 512 512" width="512" xmlns="http://www.w3.org/2000/svg"><g><g><g><g><path d="m224.392 167.242h61.33v98.579h-61.33z" fill="#4a80aa"/><path d="m336.704 429.8h-163.294v-164.908c0-11.468 9.297-20.764 20.764-20.764h121.765c11.468 0 20.764 9.297 20.764 20.764v164.908z" fill="#407093"/><path d="m315.939 244.127h-65.384c11.468 0 20.765 9.297 20.765 20.764v164.909h65.384v-164.908c0-11.468-9.297-20.765-20.765-20.765z" fill="#365e7d"/><path d="m340.219 370.464h-170.324c-24.562 0-44.473 19.911-44.473 44.473h259.271c-.001-24.562-19.912-44.473-44.474-44.473z" fill="#4a80aa"/><path d="m340.219 370.464h-65.384c24.562 0 44.473 19.911 44.473 44.473h65.384c0-24.562-19.911-44.473-44.473-44.473z" fill="#407093"/></g><path d="m292.97 203.214h-75.826c-10.742 0-19.449-8.708-19.449-19.449v-39.835c0-10.742 8.708-19.449 19.449-19.449h75.826c10.742 0 19.449 8.708 19.449 19.449v39.835c.001 10.741-8.707 19.449-19.449 19.449z" fill="#407093"/><path d="m292.97 124.48h-45.935v59.284c0 10.742-8.708 19.449-19.449 19.449h65.384c10.742 0 19.449-8.708 19.449-19.449v-39.834c.001-10.742-8.707-19.45-19.449-19.45z" fill="#365e7d"/></g><path d="m479.731 414.937h-447.462c-13.68 0-24.769 11.09-24.769 24.769 0 13.68 11.09 24.769 24.769 24.769h447.461c13.68 0 24.769-11.09 24.769-24.769.001-13.68-11.089-24.769-24.768-24.769z" fill="#afe2f7"/><path d="m479.731 414.937h-40.421v24.769c0 13.68-11.09 24.769-24.769 24.769h65.191c13.68 0 24.769-11.09 24.769-24.769s-11.091-24.769-24.77-24.769z" fill="#8fd6f7"/></g><g><path d="m457.767 59.076 7.858-5.352c3.424-2.332 4.309-6.997 1.978-10.421-2.331-3.423-6.996-4.31-10.421-1.978l-7.858 5.352c-3.424 2.332-4.309 6.997-1.978 10.421 2.325 3.413 6.987 4.316 10.421 1.978z"/><path d="m409.664 91.833 14.272-9.719c3.424-2.332 4.309-6.997 1.978-10.421-2.332-3.422-6.996-4.31-10.421-1.978l-14.272 9.719c-3.424 2.332-4.309 6.997-1.978 10.421 2.325 3.413 6.988 4.316 10.421 1.978z"/><path d="m367.965 120.229 7.858-5.352c3.424-2.332 4.309-6.997 1.978-10.421-2.332-3.423-6.997-4.31-10.421-1.978l-7.858 5.352c-3.424 2.332-4.309 6.997-1.978 10.421 2.325 3.413 6.988 4.317 10.421 1.978z"/><path d="m359.521 219.863 7.858 5.352c3.445 2.346 8.105 1.423 10.421-1.978 2.331-3.424 1.446-8.089-1.978-10.421l-7.858-5.352c-3.423-2.332-8.09-1.446-10.421 1.978-2.33 3.424-1.445 8.089 1.978 10.421z"/><path d="m401.209 248.252 14.272 9.719c3.445 2.346 8.105 1.423 10.421-1.978 2.331-3.424 1.446-8.089-1.978-10.421l-14.272-9.719c-3.424-2.332-8.09-1.446-10.421 1.978s-1.446 8.089 1.978 10.421z"/><path d="m449.323 281.016 7.858 5.352c3.445 2.346 8.105 1.423 10.421-1.978 2.331-3.424 1.446-8.089-1.978-10.421l-7.858-5.352c-3.424-2.331-8.09-1.446-10.421 1.978s-1.446 8.09 1.978 10.421z"/><path d="m373.25 156.347h-9.507c-4.143 0-7.5 3.358-7.5 7.5s3.357 7.5 7.5 7.5h9.507c4.143 0 7.5-3.358 7.5-7.5s-3.357-7.5-7.5-7.5z"/><path d="m406.569 163.847c0 4.142 3.357 7.5 7.5 7.5h17.221c4.143 0 7.5-3.358 7.5-7.5s-3.357-7.5-7.5-7.5h-17.221c-4.142 0-7.5 3.358-7.5 7.5z"/><path d="m464.622 163.847c0 4.142 3.357 7.5 7.5 7.5h9.508c4.143 0 7.5-3.358 7.5-7.5s-3.357-7.5-7.5-7.5h-9.508c-4.143 0-7.5 3.358-7.5 7.5z"/><path d="m46.375 53.725 7.858 5.352c3.445 2.346 8.105 1.423 10.421-1.978 2.331-3.424 1.446-8.089-1.978-10.421l-7.858-5.352c-3.423-2.332-8.09-1.445-10.421 1.978s-1.446 8.089 1.978 10.421z"/><path d="m88.063 82.114 14.272 9.719c3.445 2.346 8.105 1.423 10.421-1.978 2.331-3.424 1.446-8.089-1.978-10.421l-14.272-9.719c-3.423-2.331-8.09-1.446-10.421 1.978-2.33 3.424-1.445 8.089 1.978 10.421z"/><path d="m136.177 114.878 7.858 5.352c3.445 2.346 8.105 1.423 10.421-1.978 2.331-3.424 1.446-8.089-1.978-10.421l-7.858-5.352c-3.423-2.332-8.09-1.446-10.421 1.978s-1.446 8.089 1.978 10.421z"/><path d="m144.035 207.464-7.858 5.352c-3.424 2.332-4.309 6.997-1.978 10.421 2.325 3.412 6.988 4.316 10.421 1.978l7.858-5.352c3.424-2.332 4.309-6.997 1.978-10.421-2.331-3.423-6.996-4.31-10.421-1.978z"/><path d="m102.347 235.853-14.272 9.719c-3.424 2.332-4.309 6.997-1.978 10.421 2.325 3.412 6.988 4.316 10.421 1.978l14.272-9.719c3.424-2.332 4.309-6.997 1.978-10.421-2.332-3.423-6.997-4.31-10.421-1.978z"/><path d="m54.233 268.618-7.858 5.352c-3.424 2.332-4.309 6.997-1.978 10.421 2.325 3.412 6.988 4.316 10.421 1.978l7.858-5.352c3.424-2.332 4.309-6.997 1.978-10.421-2.332-3.424-6.997-4.31-10.421-1.978z"/><path d="m138.749 171.347h9.508c4.143 0 7.5-3.358 7.5-7.5s-3.357-7.5-7.5-7.5h-9.508c-4.143 0-7.5 3.358-7.5 7.5s3.357 7.5 7.5 7.5z"/><path d="m80.71 171.347h17.221c4.143 0 7.5-3.358 7.5-7.5s-3.357-7.5-7.5-7.5h-17.221c-4.143 0-7.5 3.358-7.5 7.5s3.357 7.5 7.5 7.5z"/><path d="m30.37 171.347h9.508c4.143 0 7.5-3.358 7.5-7.5s-3.357-7.5-7.5-7.5h-9.508c-4.143 0-7.5 3.358-7.5 7.5s3.358 7.5 7.5 7.5z"/><path d="m479.73 407.437h-88.086c-3.459-23.825-23.138-42.453-47.44-44.306v-39.766c0-4.142-3.357-7.5-7.5-7.5s-7.5 3.358-7.5 7.5v39.598h-148.294v-98.071c0-7.314 5.95-13.265 13.265-13.265h121.765c7.314 0 13.265 5.951 13.265 13.265v25.448c0 4.142 3.357 7.5 7.5 7.5s7.5-3.358 7.5-7.5v-25.448c0-15.585-12.68-28.265-28.265-28.265h-22.718v-25.92c14.744-.136 26.698-12.167 26.698-26.943v-39.834c0-14.86-12.09-26.949-26.949-26.949h-75.827c-14.859 0-26.949 12.089-26.949 26.949v39.834c0 14.776 11.955 26.807 26.698 26.943v25.92h-22.718c-15.585 0-28.265 12.68-28.265 28.265v98.239c-24.302 1.853-43.98 20.48-47.44 44.306h-35.91c-4.143 0-7.5 3.358-7.5 7.5s3.357 7.5 7.5 7.5h397.17c9.522 0 17.27 7.747 17.27 17.269s-7.747 17.27-17.27 17.27h-447.46c-9.522 0-17.27-7.747-17.27-17.27 0-9.522 7.747-17.269 17.27-17.269h15.2c4.143 0 7.5-3.358 7.5-7.5s-3.357-7.5-7.5-7.5h-15.2c-17.793 0-32.27 14.476-32.27 32.269s14.477 32.27 32.27 32.27h447.46c17.793 0 32.27-14.476 32.27-32.27 0-17.793-14.477-32.269-32.27-32.269zm-274.536-223.673v-39.834c0-6.589 5.36-11.949 11.949-11.949h75.827c6.589 0 11.949 5.36 11.949 11.949v39.834c0 6.589-5.36 11.95-11.949 11.95h-75.827c-6.588 0-11.949-5.361-11.949-11.95zm26.699 26.95h46.329v25.914h-46.329zm-61.998 167.249h170.325c17.818 0 32.731 12.67 36.207 29.474h-242.739c3.476-16.804 18.389-29.474 36.207-29.474z"/></g></g></svg>