<svg id="Capa_1" enable-background="new 0 0 512 512" height="512" viewBox="0 0 512 512" width="512" xmlns="http://www.w3.org/2000/svg"><g><g><g><path d="m161.224 183.757 33.671-20.428-29.234-47.088c-2.438-3.926-7.597-5.133-11.523-2.696l-19.239 11.944c-3.927 2.438-5.133 7.597-2.696 11.523z" fill="#4a80aa"/><g><g><g><path d="m342.442 162.471-64.343-39.037-9.06-18.128h-54.106l-9.06 18.128-64.343 39.037c-16.811 10.199-27.077 28.435-27.077 48.098v253.351c0 22.412 18.168 40.58 40.58 40.58h173.906c22.412 0 40.58-18.168 40.58-40.58v-253.351c-.001-19.663-10.267-37.899-27.077-48.098z" fill="#f2f9ff"/><path d="m342.442 162.471-64.344-39.037-9.06-18.128h-54.106l-9.06 18.128 70.55 39.037c16.811 10.199 27.076 28.435 27.076 48.098v253.351c0 22.411-18.168 40.58-40.58 40.58h66.019c22.411 0 40.58-18.168 40.58-40.58v-253.351c.001-19.663-10.265-37.899-27.075-48.098z" fill="#e2f4ff"/><path d="m278.098 123.433h-72.226v-29.273c0-3.855 3.125-6.98 6.98-6.98h58.266c3.855 0 6.98 3.125 6.98 6.98z" fill="#afe2f7"/></g></g><g><path d="m170.072 32.34c0 13.719 11.121 24.84 24.84 24.84h94.147c13.719 0 24.84-11.121 24.84-24.84 0-13.719-11.121-24.84-24.84-24.84h-94.147c-13.719 0-24.84 11.121-24.84 24.84z" fill="#e4936b"/></g><path d="m289.059 7.5h-40.93v24.84c0 13.719-11.121 24.84-24.84 24.84h65.77c13.719 0 24.84-11.121 24.84-24.84 0-13.719-11.121-24.84-24.84-24.84z" fill="#dd6938"/></g><path d="m417.146 408.759c-8.012 0-14.508-6.495-14.508-14.508v-112.717c0-8.012 6.495-14.508 14.508-14.508 8.012 0 14.508 6.495 14.508 14.508v112.716c0 8.013-6.496 14.509-14.508 14.509z" fill="#4a80aa"/></g><path d="m369.518 438.209h-147.377c-8.985 0-16.269-7.284-16.269-16.269v-176.851c0-8.985 7.284-16.269 16.269-16.269h147.377z" fill="#c6e873"/><path d="m303.499 228.82h66.019v209.39h-66.019z" fill="#b5e245"/></g><path d="m428.87 132.501 23.867-43.508c1.992-3.632.663-8.19-2.968-10.183-3.632-1.993-8.191-.663-10.183 2.968l-23.867 43.508c-3.974 7.242-6.073 15.436-6.073 23.696v111.862c-8.453 3.074-14.508 11.188-14.508 20.69v112.717c0 9.502 6.055 17.616 14.508 20.69v48.256c0 18.639-15.164 33.803-33.803 33.803h-12.063c8.194-8.626 13.238-20.271 13.238-33.08v-253.351c0-22.139-11.758-43.026-30.686-54.51l-60.734-36.847v-25.053c0-7.984-6.495-14.479-14.479-14.479h-21.634v-14.999h39.574c17.832 0 32.34-14.508 32.34-32.341 0-17.832-14.508-32.34-32.34-32.34h-94.147c-17.832 0-32.34 14.508-32.34 32.34 0 17.833 14.508 32.341 32.34 32.341h39.573v14.999h-21.633c-7.984 0-14.479 6.495-14.479 14.479v25.053l-16.008 9.712-10.332-16.641c-2.235-3.601-5.74-6.115-9.867-7.08-4.128-.966-8.385-.266-11.983 1.97l-3.93 2.439c-9.022-13.049-23.661-20.778-39.653-20.778-26.611 0-48.262 21.65-48.262 48.262v326.102c0 26.91 21.893 48.803 48.803 48.803h268.703c26.91 0 48.803-21.893 48.803-48.803v-48.256c8.453-3.074 14.508-11.188 14.508-20.69v-62.636c0-4.143-3.357-7.5-7.5-7.5s-7.5 3.357-7.5 7.5v62.636c0 3.864-3.144 7.008-7.008 7.008s-7.008-3.144-7.008-7.008v-112.718c0-3.864 3.144-7.008 7.008-7.008s7.008 3.144 7.008 7.008v14.784c0 4.143 3.357 7.5 7.5 7.5s7.5-3.357 7.5-7.5v-14.784c0-9.502-6.055-17.616-14.508-20.69v-111.862c-.001-5.745 1.46-11.444 4.223-16.481zm-251.298-100.161c0-9.562 7.778-17.34 17.34-17.34h94.147c9.562 0 17.34 7.778 17.34 17.34s-7.778 17.341-17.34 17.341h-94.147c-9.562 0-17.34-7.78-17.34-17.341zm184.446 250.388h-114.851c-4.143 0-7.5 3.357-7.5 7.5s3.357 7.5 7.5 7.5h114.851v28.287h-114.851c-4.143 0-7.5 3.357-7.5 7.5s3.357 7.5 7.5 7.5h114.851v28.287h-114.851c-4.143 0-7.5 3.357-7.5 7.5s3.357 7.5 7.5 7.5h114.851v46.407h-139.877c-4.835 0-8.769-3.934-8.769-8.769v-176.851c0-4.836 3.934-8.77 8.769-8.77h139.877zm-148.645-188.048h57.226v21.253h-57.226zm-54.624 25.129c.232.055.414.185.54.388l10.249 16.509-20.846 12.647-10.118-16.296c-.253-.407-.127-.944.279-1.196l19.24-11.944c.205-.127.427-.164.656-.108zm-3.717 377.191c-18.24 0-33.079-14.84-33.079-33.08v-15.538c0-4.143-3.357-7.5-7.5-7.5s-7.5 3.357-7.5 7.5v15.538c0 12.809 5.044 24.454 13.238 33.08h-13.051c-18.639 0-33.803-15.164-33.803-33.803v-326.101c0-18.341 14.921-33.262 33.262-33.262 10.767 0 20.647 5.081 26.894 13.699l-2.55 1.583c-7.433 4.615-9.726 14.417-5.111 21.852l10.054 16.195c-17.898 11.686-28.933 31.959-28.933 53.407v202.516c0 4.143 3.357 7.5 7.5 7.5s7.5-3.357 7.5-7.5v-202.517c0-16.931 8.992-32.903 23.467-41.686l62.554-37.951h68.024l62.554 37.951c14.475 8.782 23.467 24.755 23.467 41.686v10.75h-139.878c-13.106 0-23.769 10.663-23.769 23.77v176.851c0 13.106 10.662 23.769 23.769 23.769h139.877v18.211c0 18.24-14.839 33.08-33.079 33.08z"/></g></svg>