<svg id="Capa_1" enable-background="new 0 0 512 512" height="512" viewBox="0 0 512 512" width="512" xmlns="http://www.w3.org/2000/svg"><g><g><g><g><path d="m433.707 504.5h-350.182c-15.509 0-28.081-12.572-28.081-28.081v-440.838h335.929l-.331 28.081h65.514v417.989c0 12.619-10.23 22.849-22.849 22.849z" fill="#e2f4ff"/></g><g><path d="m391.042 63.663v417.989c0 12.619-10.23 22.848-22.848 22.848h65.514c12.619 0 22.848-10.229 22.848-22.848v-417.989z" fill="#d1ecf9"/></g><path d="m115.183 35.581h-59.739v440.837c0 15.509 12.572 28.081 28.081 28.081h31.657v-468.918z" fill="#afe2f7"/><path d="m456.556 8.528c0 .422-.261.793-.654.948-10.398 4.113-17.756 14.245-17.756 26.106 0 11.537 6.961 21.437 16.91 25.755.92.399 1.5 1.323 1.5 2.327h-373.031c-15.509 0-28.081-12.572-28.081-28.081 0-15.511 12.573-28.083 28.082-28.083h372.002c.568 0 1.028.46 1.028 1.028z" fill="#f2f9ff"/></g></g><g><g><path d="m283.399 349.51h4.94c76.572-64.248 15.716-162.091.671-183.786-1.521-2.193-4.762-2.193-6.282 0-15.045 21.695-75.9 119.538.671 183.786z" fill="#b5e245"/><g fill="#c6e873"><path d="m285.869 349.51v-11.398c-.007-79.091-91.567-100.375-113.385-104.324-2.29-.414-4.29 1.585-3.875 3.875 3.648 20.156 22.101 99.821 87.25 111.847z"/><path d="m399.254 233.788c-21.818 3.949-113.378 25.233-113.385 104.324v11.398h30.01c65.149-12.026 83.602-91.691 87.25-111.847.415-2.29-1.585-4.289-3.875-3.875z"/></g></g><g><path d="m458.042 54.456c-7.53-3.268-12.396-10.677-12.396-18.875 0-8.495 5.108-16.004 13.018-19.133 3.275-1.297 5.392-4.405 5.392-7.92 0-4.702-3.826-8.528-8.528-8.528h-372.003c-19.62 0-35.581 15.962-35.581 35.581v440.838c0 19.619 15.961 35.581 35.581 35.581h350.182c16.734 0 30.348-13.614 30.348-30.349v-27.229c0-4.143-3.358-7.5-7.5-7.5s-7.5 3.357-7.5 7.5v27.229c0 8.463-6.885 15.349-15.348 15.349h-311.024v-355.107c0-4.143-3.358-7.5-7.5-7.5s-7.5 3.357-7.5 7.5v355.107h-24.158c-11.349 0-20.581-9.232-20.581-20.581v-411.84c5.815 4.139 12.916 6.584 20.581 6.584h24.157v35.57c0 4.143 3.358 7.5 7.5 7.5s7.5-3.357 7.5-7.5v-35.57h326.373v347.952c0 4.143 3.358 7.5 7.5 7.5s7.5-3.357 7.5-7.5c-.019-231.98.04-355.586-.072-356.44-.354-3.603-2.593-6.766-5.941-8.219zm-374.517 1.707c-11.349 0-20.581-9.233-20.581-20.582s9.233-20.581 20.581-20.581h353.633c-2.752 3.883-4.693 8.326-5.705 13.081h-335.394c-4.142 0-7.5 3.357-7.5 7.5s3.358 7.5 7.5 7.5h335.407c1.022 4.74 2.977 9.189 5.74 13.082z"/><path d="m389.133 300.26c13.816-25.033 19.551-51.181 21.375-61.261.633-3.494-.488-7.079-2.999-9.59s-6.095-3.633-9.592-3.001c-11.155 2.02-39.542 8.355-65.742 23.942-4.534-31.179-19.499-63.662-37.002-88.9-2.115-3.049-5.593-4.87-9.304-4.87s-7.189 1.821-9.304 4.87c-9.686 13.966-31.229 48.734-37.029 88.884-26.193-15.575-54.564-21.907-65.717-23.927-3.494-.63-7.08.491-9.59 3.002s-3.631 6.096-2.999 9.59c1.824 10.08 7.559 36.228 21.375 61.261 9.984 18.089 22.044 32.036 36.058 41.75h-45.851c-4.142 0-7.5 3.357-7.5 7.5s3.358 7.5 7.5 7.5h226.113c4.142 0 7.5-3.357 7.5-7.5s-3.358-7.5-7.5-7.5h-45.851c14.015-9.715 26.075-23.661 36.059-41.75zm-103.262-125.764c16.183 24.791 29.732 55.698 32.331 85.324-14.889 11.516-25.749 25.179-32.332 40.596-6.583-15.417-17.443-29.081-32.334-40.597 3.22-36.674 22.775-70.658 32.335-85.323zm-90.134 118.516c-10.556-19.126-16.013-39.045-18.537-50.635 12.899 2.804 35.539 9.104 56.237 21.789 27.649 16.946 44.93 41.002 44.932 73.946v3.897h-21.773c-25.107-4.842-45.582-21.319-60.859-48.997zm119.405 48.998h-21.773v-3.896c.003-32.947 17.285-57.002 44.933-73.947 20.697-12.685 43.338-18.985 56.236-21.789-2.524 11.59-7.981 31.509-18.537 50.635-15.277 27.677-35.752 44.154-60.859 48.997z"/></g></g></g></svg>