<svg id="Capa_1" enable-background="new 0 0 512 512" height="512" viewBox="0 0 512 512" width="512" xmlns="http://www.w3.org/2000/svg"><g><g><g><path d="m178.023 50.253h155.954v78.068h-155.954z" fill="#f2f9ff"/><path d="m333.977 117.039h-155.954l-41.277 43.354c-12.641 13.278-19.692 30.908-19.692 49.242v256.225c0 21.34 17.3 38.64 38.64 38.64h200.612c21.34 0 38.64-17.3 38.64-38.64v-256.225c0-18.333-7.051-35.964-19.692-49.242z" fill="#e4936b"/><path d="m268.622 50.253v66.786l10.741 11.282h54.614v-78.068z" fill="#e2f4ff"/><path d="m375.254 160.393-41.277-43.354h-65.355l41.277 43.354c12.641 13.278 19.692 30.909 19.692 49.242v256.225c0 21.34-17.3 38.64-38.64 38.64h-135.259.002 200.612c21.341 0 38.64-17.3 38.64-38.64v-256.226c0-18.333-7.05-35.963-19.692-49.241z" fill="#dd6938"/><path d="m117.054 212.765h277.893v225.494h-277.893z" fill="#f2f9ff"/><path d="m329.591 212.765h65.355v225.494h-65.355z" fill="#e2f4ff"/><path d="m337.894 82.317h-163.788c-9.085 0-16.449-7.365-16.449-16.449v-41.919c0-9.085 7.365-16.449 16.449-16.449h163.787c9.085 0 16.449 7.365 16.449 16.449v41.918c.001 9.086-7.364 16.45-16.448 16.45z" fill="#4a80aa"/><path d="m337.894 7.5h-65.355c9.085 0 16.449 7.365 16.449 16.449v41.918c0 9.085-7.365 16.449-16.449 16.449h65.355c9.085 0 16.449-7.365 16.449-16.449v-41.918c0-9.084-7.365-16.449-16.449-16.449z" fill="#407093"/></g></g><g><path d="m254.48 376.309h3.039c47.115-39.533 9.67-99.737.413-113.086-.936-1.349-2.93-1.349-3.866 0-9.256 13.349-46.701 73.553.414 113.086z" fill="#b5e245"/><g fill="#c6e873"><path d="m256 376.309v-7.013c-.004-48.666-56.343-61.762-69.767-64.192-1.409-.255-2.639.975-2.384 2.384 2.245 12.402 13.599 61.421 53.686 68.821z"/><path d="m325.767 305.103c-13.425 2.43-69.763 15.526-69.767 64.192v7.013h18.466c40.087-7.4 51.441-56.419 53.686-68.821.255-1.408-.975-2.639-2.385-2.384z"/></g></g><g><path d="m335.531 308.822c1.181-6.522-4.51-12.289-11.1-11.099-12.884 2.332-26.075 6.594-37.775 12.985-3.439-18.135-12.359-37.05-22.562-51.76-1.84-2.653-4.866-4.237-8.095-4.237s-6.255 1.584-8.096 4.237c-5.746 8.286-18.125 28.235-22.565 51.759-11.698-6.389-24.888-10.651-37.771-12.983-6.55-1.187-12.287 4.545-11.099 11.1 1.147 6.343 4.758 22.798 13.465 38.575 4.718 8.547 10.308 15.707 16.623 21.41h-20.122c-4.142 0-7.5 3.357-7.5 7.5s3.358 7.5 7.5 7.5h139.131c4.143 0 7.5-3.357 7.5-7.5s-3.357-7.5-7.5-7.5h-20.123c16.47-14.874 26.213-38.558 30.089-59.987zm-79.529-34.783c8.274 13.635 15.138 29.858 16.864 45.842-6.83 5.538-12.637 12.082-16.866 19.697-4.231-7.618-10.042-14.165-16.875-19.704 2.013-18.622 10.907-35.982 16.877-45.835zm-62.959 40.242c29.145 7.5 55.165 24.405 55.442 54.527h-10.165c-28.95-5.743-40.971-38.008-45.277-54.527zm70.472 54.528c.276-30.108 26.272-47.02 55.442-54.527-4.304 16.518-16.326 48.783-45.276 54.527z"/><path d="m380.686 155.221-39.209-41.181v-24.491c11.512-1.734 20.366-11.692 20.366-23.68v-41.92c0-13.206-10.743-23.949-23.949-23.949h-163.788c-13.206 0-23.949 10.743-23.949 23.949v41.919c0 11.988 8.854 21.946 20.366 23.68v24.491l-39.209 41.181c-14.032 14.739-21.76 34.064-21.76 54.414v256.225c0 25.442 20.698 46.141 46.14 46.141h200.612c25.442 0 46.141-20.698 46.141-46.141v-54.474c0-4.143-3.357-7.5-7.5-7.5s-7.5 3.357-7.5 7.5v19.373h-262.893v-210.493h24.219c4.142 0 7.5-3.357 7.5-7.5s-3.358-7.5-7.5-7.5h-24.054c1.006-14.861 7.104-28.824 17.459-39.7l39.06-41.025h149.524l39.061 41.025c10.355 10.876 16.453 24.839 17.459 39.7h-203.435c-4.142 0-7.5 3.357-7.5 7.5s3.358 7.5 7.5 7.5h203.6v156.044c0 4.143 3.357 7.5 7.5 7.5s7.5-3.357 7.5-7.5v-166.674c-.001-20.35-7.728-39.675-21.761-54.414zm6.76 290.538v20.101c0 17.171-13.97 31.141-31.141 31.141h-200.611c-17.171 0-31.14-13.97-31.14-31.141v-20.101zm-201.923-355.942h140.954v19.722h-140.954zm-20.366-23.949v-41.919c0-4.935 4.015-8.949 8.949-8.949h11.123v17.029c0 4.143 3.358 7.5 7.5 7.5s7.5-3.357 7.5-7.5v-17.029h27.181v17.029c0 4.143 3.358 7.5 7.5 7.5s7.5-3.357 7.5-7.5v-17.029h27.181v17.029c0 4.143 3.357 7.5 7.5 7.5s7.5-3.357 7.5-7.5v-17.029h27.181v17.029c0 4.143 3.357 7.5 7.5 7.5s7.5-3.357 7.5-7.5v-17.029h11.122c4.935 0 8.949 4.015 8.949 8.949v41.919c0 4.935-4.015 8.949-8.949 8.949h-163.788c-4.934 0-8.949-4.014-8.949-8.949z"/></g></g></svg>