<svg id="Capa_1" enable-background="new 0 0 512 512" height="512" viewBox="0 0 512 512" width="512" xmlns="http://www.w3.org/2000/svg"><g><g><g><path d="m397.491 504.5h-282.982c-19.595 0-35.481-15.885-35.481-35.481v-426.038c0-19.595 15.885-35.481 35.481-35.481h282.982c19.595 0 35.481 15.885 35.481 35.481v426.039c-.001 19.595-15.886 35.48-35.481 35.48z" fill="#f2f9ff"/><path d="m397.491 7.5h-65.377c19.595 0 35.481 15.885 35.481 35.481v426.039c0 19.595-15.885 35.481-35.481 35.481h65.377c19.595 0 35.481-15.885 35.481-35.481v-426.039c-.001-19.596-15.886-35.481-35.481-35.481z" fill="#e2f4ff"/><path d="m114.052 426.466v-356.9c0-7.802 6.325-14.126 14.126-14.126h255.644c7.801 0 14.126 6.324 14.126 14.126v356.901c0 7.77-6.357 14.126-14.126 14.126h-255.644c-7.801 0-14.126-6.325-14.126-14.127z" fill="#afe2f7"/><path d="m383.822 55.44h-16.228v385.153h16.227c7.769 0 14.126-6.357 14.126-14.126v-356.902c.001-7.801-6.324-14.125-14.125-14.125z" fill="#8fd6f7"/></g><g><path d="m153.379 273.323v-151.221c0-14.095 11.427-25.522 25.522-25.522h154.197c14.095 0 25.522 11.427 25.522 25.522v151.221c0 14.095-11.427 25.522-25.522 25.522h-154.197c-14.095 0-25.522-11.427-25.522-25.522z" fill="#f2f9ff"/><g><g><g><path d="m192.124 144.303c-.263-.84.507-1.653 1.353-1.412 3.299.941 11.5 1.997 30.796-.351 37.353-4.544 31.718 34.456 31.718 34.456s-44.419 29.438-63.867-32.693z" fill="#c6e873"/><path d="m316.73 182.547c.159-.865-.703-1.58-1.514-1.238-3.161 1.334-11.206 4.509-30.612 3.383-30.982-1.796-28.604 38.155-28.604 38.155s48.953 23.73 60.73-40.3z" fill="#b5e245"/></g></g><path d="m326.089 298.845c-13.972-24.222-40.117-40.538-70.089-40.538s-56.117 16.316-70.089 40.538z" fill="#c6865c"/></g></g></g><g><path d="m239.239 464.665c-4.143 0-7.5 3.357-7.5 7.5s3.357 7.5 7.5 7.5h33.521c4.143 0 7.5-3.357 7.5-7.5s-3.357-7.5-7.5-7.5z"/><path d="m358.62 328.05h-205.24c-4.143 0-7.5 3.357-7.5 7.5s3.357 7.5 7.5 7.5h205.24c4.143 0 7.5-3.357 7.5-7.5s-3.357-7.5-7.5-7.5z"/><path d="m358.62 361h-205.24c-4.143 0-7.5 3.357-7.5 7.5s3.357 7.5 7.5 7.5h205.24c4.143 0 7.5-3.357 7.5-7.5s-3.357-7.5-7.5-7.5z"/><path d="m254.942 393.951h-101.562c-4.143 0-7.5 3.357-7.5 7.5s3.357 7.5 7.5 7.5h101.562c4.143 0 7.5-3.357 7.5-7.5s-3.357-7.5-7.5-7.5z"/><path d="m432.972 358.457c4.143 0 7.5-3.357 7.5-7.5v-307.977c0-23.699-19.281-42.98-42.98-42.98h-282.983c-23.699 0-42.98 19.281-42.98 42.98v426.04c0 23.699 19.281 42.98 42.98 42.98h282.982c23.699 0 42.98-19.281 42.98-42.98v-82.977c0-4.143-3.357-7.5-7.5-7.5s-7.5 3.357-7.5 7.5v82.977c0 15.429-12.552 27.98-27.98 27.98h-282.982c-15.429 0-27.98-12.552-27.98-27.98v-426.04c0-15.429 12.552-27.98 27.98-27.98h282.982c15.429 0 27.98 12.552 27.98 27.98v307.977c.001 4.143 3.358 7.5 7.501 7.5z"/><path d="m405.447 426.467v-356.902c0-11.925-9.701-21.626-21.625-21.626h-255.643c-11.925 0-21.627 9.702-21.627 21.627v356.9c0 11.925 9.702 21.626 21.627 21.626h255.643c11.924.001 21.625-9.7 21.625-21.625zm-283.895 0v-356.9c0-3.654 2.973-6.627 6.627-6.627h255.644c3.653 0 6.625 2.973 6.625 6.626v356.901c0 3.653-2.973 6.626-6.626 6.626h-255.643c-3.655 0-6.627-2.973-6.627-6.626z"/><path d="m333.099 89.08h-154.198c-18.208 0-33.021 14.813-33.021 33.021v58.068c0 4.143 3.357 7.5 7.5 7.5s7.5-3.357 7.5-7.5v-58.068c0-9.938 8.084-18.021 18.021-18.021h154.197c9.938 0 18.021 8.084 18.021 18.021v151.222c0 9.938-8.084 18.021-18.021 18.021h-2.819c-14.85-23.003-39.647-37.872-66.779-40.204v-17.961c10.978 2.512 22.303 1.974 32.281-3.079 14.508-7.348 24.038-22.891 28.324-46.195.574-3.121-.606-6.295-3.082-8.284-2.468-1.983-5.812-2.451-8.724-1.222-2.261.955-9.142 3.857-27.261 2.807-8.337-.491-15.695 1.573-21.539 5.962v-5.792c.426-3.822 1.786-22.108-9.479-33.627-7.18-7.343-17.496-10.251-30.654-8.653-19.431 2.363-26.217 1.044-27.834.584-3.04-.87-6.302.002-8.511 2.269-2.216 2.273-3.004 5.567-2.056 8.595 7.154 22.858 18.514 37.193 33.762 42.605 9.706 3.446 20.013 2.835 29.771-.454v62.446c-27.132 2.333-51.93 17.202-66.779 40.204h-2.819c-9.938 0-18.021-8.084-18.021-18.021v-58.067c0-4.143-3.357-7.5-7.5-7.5s-7.5 3.357-7.5 7.5v58.067c0 18.208 14.813 33.021 33.021 33.021h154.197c18.208 0 33.021-14.813 33.021-33.021v-151.222c.002-18.208-14.811-33.022-33.019-33.022zm-62.096 107.374c3.214-3.202 7.517-4.605 13.168-4.273 9.987.578 17.299.103 22.764-.803-3.798 12.682-9.776 21.169-17.838 25.293-9.34 4.777-19.836 2.762-25.551 1.003.401-6.37 2.136-15.917 7.457-21.22zm-47.257-21.441c-8.596-3.052-15.647-10.961-21.031-23.562 6.02.11 13.521-.377 22.463-1.464 8.254-1.008 14.34.413 18.085 4.215 4.673 4.745 5.614 12.951 5.541 18.191-4.934 2.384-15.131 6.145-25.058 2.62zm87.845 116.332h-111.182c29.349-34.002 81.803-34.037 111.182 0z"/></g></g></svg>