<svg id="Capa_1" enable-background="new 0 0 512 512" height="512" viewBox="0 0 512 512" width="512" xmlns="http://www.w3.org/2000/svg"><g><g><g><g><path d="m470.74 249.495c-4.099-86.214-66.795-159.033-153.104-159.683-6.876-.052-13.65.346-20.292 1.167-19.271 2.38-38.67 3.559-58.068 3.553-19.399.006-38.797-1.173-58.068-3.553-6.642-.82-13.415-1.219-20.292-1.167-86.309.65-149.006 73.469-153.105 159.683-6.892 144.982 108.815 248.343 231.464 248.343h.001s.001 0 .001 0c122.649 0 238.356-103.361 231.463-248.343z" fill="#dd636e"/></g><g><path d="m470.74 249.495c-4.099-86.214-66.795-159.033-153.104-159.683-6.876-.052-13.65.346-20.292 1.167-5.602.692-11.215 1.27-16.835 1.759 71.382 14.412 121.087 80.315 124.721 156.757 6.275 131.975-89.044 229.449-198.709 245.878 10.807 1.619 21.751 2.465 32.754 2.465h.001.001c122.649 0 238.356-103.362 231.463-248.343z" fill="#da4a54"/></g><path d="m372.497 86.237c-26.401-9.313-90.553-26.325-133.222 9.193-42.669-35.518-106.821-18.506-133.222-9.193-3.925 1.385-3.765 6.995.228 8.168 29.834 8.763 47.821 16.256 57.721 21.042 3.726 1.801 3.585 7.069-.185 8.777-19.23 8.711-35.294 31.188-42.424 42.427-1.404 2.213.656 5.015 3.107 4.214 17.819-5.82 64.525-10.74 83.556-3.766 1.374.503 2.28 1.834 2.222 3.331-.324 8.356.323 32.91 23.394 60.54 2.919 3.496 8.287 3.496 11.206 0 23.07-27.63 23.718-52.184 23.394-60.54-.058-1.497.848-2.828 2.222-3.331 19.031-6.973 65.737-2.054 83.556 3.766 2.452.801 4.512-2.001 3.108-4.214-7.13-11.239-23.194-33.716-42.424-42.427-3.77-1.708-3.911-6.975-.185-8.777 9.9-4.786 27.887-12.279 57.721-21.042 3.993-1.173 4.152-6.784.227-8.168z" fill="#c6e873"/><path d="m280.509 92.738c16.406 3.312 31.663 9.351 45.483 17.606 10.551-4.38 25.554-9.853 46.277-15.94 3.993-1.173 4.153-6.783.228-8.168-23.972-8.456-79.066-23.257-120.944.68 13.399 2.844 28.956 5.822 28.956 5.822z" fill="#b5e245"/><path d="m321 27.454c-1.814-9.333-11.061-15.097-20.139-12.785-48.635 12.378-67.348 44.732-74.482 69.694-1.776 6.216-2.915 12.27-3.616 17.901-1.271 10.208 6.992 19.074 17.259 18.443 7.901-.485 14.272-6.552 15.26-14.406.513-4.073 1.337-8.451 2.617-12.93 6.922-24.222 24.023-39.994 50.827-46.877 8.4-2.156 13.928-10.528 12.274-19.04z" fill="#ce9875"/></g><circle cx="386.662" cy="380.02" fill="#f2f9ff" r="117.818"/><path d="m386.662 262.203c-11.309 0-22.244 1.597-32.596 4.571 49.213 14.14 85.221 59.486 85.221 113.246s-36.008 99.107-85.221 113.246c10.352 2.974 21.287 4.571 32.596 4.571 65.069 0 117.818-52.749 117.818-117.818s-52.749-117.816-117.818-117.816z" fill="#e2f4ff"/><g><g><path d="m388.713 316.42c-.993-1.431-3.109-1.431-4.102 0-9.752 14.062-48.994 77.13-.634 119.083h5.369c48.361-41.953 9.119-105.021-.633-119.083z" fill="#c6e873"/></g><g><g><path d="m386.662 428.966c-.004-51.636-59.781-65.531-74.025-68.109-1.495-.271-2.801 1.035-2.53 2.53 2.304 12.731 13.656 61.825 52.907 72.117h23.648z" fill="#b5e245"/></g><g><path d="m463.218 363.386c.271-1.495-1.035-2.801-2.53-2.53-14.244 2.578-74.021 16.473-74.025 68.109v6.537h23.648c39.251-10.291 50.602-59.385 52.907-72.116z" fill="#b5e245"/></g></g></g></g><g><path d="m386.662 254.683c-69.112 0-125.338 56.226-125.338 125.338s56.226 125.338 125.338 125.338 125.338-56.227 125.338-125.339-56.226-125.337-125.338-125.337zm0 235.635c-60.818 0-110.297-49.479-110.297-110.297s49.479-110.297 110.297-110.297 110.297 49.479 110.297 110.297-49.479 110.297-110.297 110.297z"/><path d="m289.506 484.322c-16.565 3.979-33.465 5.996-50.232 5.996-121.438 0-230.498-102.755-223.952-240.465 3.047-64.1 40.554-123.655 100.453-144.698 18.52 5.833 31.413 10.918 39.984 14.754-18.424 10.506-33.213 30.884-40.717 42.713-2.343 3.693-2.116 8.491.565 11.941 2.68 3.448 7.087 4.802 11.227 3.451 16.808-5.489 57.821-9.382 75.878-4.702.086 13.463 3.954 37.05 25.187 62.478 2.824 3.382 6.97 5.322 11.375 5.322s8.551-1.94 11.375-5.322c21.234-25.431 25.101-49.017 25.187-62.478 18.057-4.681 59.069-.787 75.877 4.702 4.141 1.353 8.546-.002 11.228-3.45 2.681-3.449 2.909-8.248.566-11.941-7.504-11.829-22.292-32.206-40.717-42.713 8.57-3.836 21.464-8.921 39.984-14.754 59.999 21.079 97.411 80.721 100.453 144.698.159 3.346.253 6.724.278 10.039.031 4.134 3.392 7.463 7.519 7.463h.058c4.153-.032 7.495-3.424 7.463-7.577-.027-3.514-.126-7.094-.294-10.639-3.081-64.784-38.736-125.793-97.077-152.755 1.029-1.709 1.639-3.687 1.695-5.789.137-5.139-3.026-9.74-7.871-11.449-28.982-10.223-63.194-16.135-93.56-10.681 7.492-6.736 17.17-11.608 29.158-14.686 12.381-3.179 20.193-15.372 17.785-27.759-2.681-13.795-16.328-21.959-29.376-18.638-47.903 12.192-68.731 42.591-77.743 68.287-43.514-18.82-96.173-4.12-117.711 3.477-4.845 1.709-8.008 6.31-7.871 11.449.056 2.102.666 4.08 1.695 5.789-58.343 26.962-93.995 87.972-97.076 152.753-7.005 147.342 110.041 256.22 238.978 256.22 17.947 0 36.029-2.157 53.742-6.412 4.039-.97 6.526-5.03 5.556-9.068-.97-4.039-5.034-6.527-9.069-5.556zm13.211-462.365c4.955-1.263 9.922 1.898 10.9 6.931.876 4.51-2.157 9.14-6.761 10.323-29.576 7.595-48.48 25.122-56.188 52.094-1.278 4.473-2.236 9.202-2.847 14.057-1.521 12.09-19.022 9.28-17.596-2.168.722-5.79 1.86-11.43 3.385-16.764 6.592-23.067 23.933-52.976 69.107-64.473zm-85.551 68.389c-.766 3.595-1.402 7.262-1.866 10.988-1.854 14.877 10.217 27.798 25.183 26.879 11.458-.704 20.82-9.525 22.261-20.973.839-6.664 2.479-13.371 5.144-19.625 32.392-11.87 70.558-4.014 92.407 2.553-24.589 7.65-40.075 14.185-49.019 18.508-4.357 2.106-7.026 6.411-6.966 11.235.061 4.868 2.866 9.145 7.321 11.162 12.879 5.835 24.572 19.137 32.267 29.538-22.467-4.429-58.45-6.999-75.99-.574-4.46 1.634-7.333 5.927-7.149 10.684.407 10.498-1.849 31.606-21.482 55.225-19.633-23.619-21.889-44.728-21.482-55.227.183-4.755-2.69-9.048-7.149-10.682-17.54-6.427-53.524-3.856-75.991.573 7.696-10.401 19.387-23.703 32.267-29.538 4.455-2.018 7.26-6.295 7.321-11.162.06-4.824-2.609-9.129-6.966-11.235-8.952-4.328-24.454-10.869-49.081-18.528 50.802-15.592 83.521-6.794 98.97.199z"/><path d="m459.349 353.457c-13.817 2.5-27.971 7.099-40.468 14.016-4.6-25.128-17.86-46.502-23.988-55.338-3.98-5.738-12.481-5.739-16.46 0-6.128 8.836-19.388 30.209-23.988 55.338-12.497-6.917-26.65-11.515-40.467-14.016-6.651-1.209-12.475 4.616-11.27 11.269 1.154 6.376 4.765 22.955 13.354 39.156 5.171 9.755 11.247 17.785 18.162 24.102h-13.962c-4.153 0-7.52 3.367-7.52 7.52s3.367 7.52 7.52 7.52h132.803c4.153 0 7.52-3.367 7.52-7.52s-3.367-7.52-7.52-7.52h-13.962c6.914-6.316 12.99-14.347 18.161-24.101 8.589-16.2 12.2-32.78 13.355-39.158 1.202-6.653-4.618-12.474-11.27-11.268zm-72.687-26.398c6.378 10.415 16.231 29.344 18.37 49.66-7.502 6.047-13.84 13.24-18.37 21.647-4.529-8.408-10.868-15.6-18.369-21.647 2.139-20.317 11.992-39.244 18.369-49.66zm-67.405 42.929c31.105 7.823 59.297 25.777 59.854 57.995h-15.021c-28.657-8.094-40.589-41.353-44.833-57.995zm89.978 57.995h-15.021c.558-32.221 28.754-50.173 59.854-57.995-4.245 16.642-16.178 49.902-44.833 57.995z"/></g></g></svg>