<svg id="Capa_1" enable-background="new 0 0 512 512" height="512" viewBox="0 0 512 512" width="512" xmlns="http://www.w3.org/2000/svg"><g><g><g><g><g><g><path d="m307.801 298.79v-6.412h-103.475v6.412c0 17.957-8.306 34.904-22.499 45.905-14.193 11.001-22.499 27.948-22.499 45.905v84.437c0 16.272 13.191 29.463 29.463 29.463h134.544c16.272 0 29.463-13.191 29.463-29.463v-84.437c0-17.957-8.306-34.904-22.499-45.905-14.191-11.001-22.498-27.948-22.498-45.905z" fill="#f2f9ff"/></g><path d="m330.3 344.695c-14.193-11.001-22.499-27.948-22.499-45.905v-6.412h-65.333v6.412c0 17.957 8.306 34.904 22.499 45.905 14.193 11.001 22.499 27.948 22.499 45.905v84.437c0 16.272-13.191 29.464-29.463 29.464h65.333c16.272 0 29.463-13.191 29.463-29.464v-84.437c0-17.957-8.306-34.904-22.499-45.905z" fill="#e2f4ff"/><g><g><path d="m325.458 390.182c-17.351 0-17.351-7.744-34.702-7.744-17.349 0-17.349 7.744-34.697 7.744-17.349 0-17.349-7.744-34.698-7.744-17.348 0-17.348 7.744-34.697 7.744-14.232 0-16.794-5.209-26.832-7.081-.322 2.472-.504 4.974-.504 7.499v84.436c0 16.272 13.191 29.463 29.463 29.463h134.544c16.272 0 29.463-13.191 29.463-29.463v-84.436c0-2.526-.182-5.027-.504-7.499-10.039 1.872-12.602 7.081-26.836 7.081z" fill="#d1ecf9"/></g></g><path d="m352.799 475.036v-84.436c0-2.526-.182-5.027-.504-7.499-10.04 1.872-12.603 7.081-26.837 7.081-17.351 0-17.351-7.744-34.702-7.744-1.4 0-2.676.055-3.868.148.368 2.639.578 5.313.578 8.014v84.437c0 16.272-13.191 29.464-29.463 29.464h65.333c16.272-.001 29.463-13.192 29.463-29.465z" fill="#afe2f7"/></g></g></g><g><path d="m259.787 9.983c-1.688-2.59-5.485-2.59-7.173 0-15.666 24.04-73.935 124.882 3.459 190.134h.254c77.395-65.252 19.127-166.093 3.46-190.134z" fill="#c6e873"/><g><g><path d="m450.748 155.25c-19.766 30.972-85.075 98.142-165.622 75.591 0 0 12.542-48.549 67.684-76.709 38.356-19.588 79.243-11.346 94.866-6.967 3.484.977 5.018 5.035 3.072 8.085z" fill="#b5e245"/></g><g><path d="m61.225 155.007c19.579 30.862 85.019 98.443 165.776 75.834 0 0-12.542-48.549-67.684-76.709-38.586-19.705-79.734-11.246-95.145-6.888-3.342.945-4.808 4.831-2.947 7.763z" fill="#b5e245"/></g></g></g><path d="m312.942 306.588h-113.757c-5.362 0-9.71-4.347-9.71-9.71v-12.963c0-5.362 4.347-9.71 9.71-9.71h113.757c5.362 0 9.71 4.347 9.71 9.71v12.963c0 5.363-4.347 9.71-9.71 9.71z" fill="#e2f4ff"/></g><path d="m449.7 139.944c-16.617-4.658-59.653-13.248-100.301 7.509-50.568 25.824-67.099 67.644-70.718 78.779-3.218 2.427-9.186 7.427-14.981 14.875v-37.469c17.627-15.611 29.491-34.232 35.258-55.406 4.972-18.254 5.432-38.449 1.367-60.024-7.115-37.773-26.325-70.152-34.253-82.319-2.131-3.269-6.909-5.889-9.871-5.889-2.956 0-7.737 2.616-9.87 5.889-7.929 12.167-27.14 44.546-34.254 82.319-4.064 21.575-3.604 41.771 1.367 60.024 5.767 21.174 17.632 39.794 35.258 55.405v37.82c-5.88-7.645-11.987-12.762-15.256-15.226-3.62-11.135-20.15-52.954-70.718-78.778-40.803-20.837-83.943-12.134-100.598-7.426-8.055 2.278-11.845 11.737-7.239 18.997 4.186 6.599 20.081 29.788 48.871 51.168 3.325 2.47 8.023 1.775 10.493-1.55 2.469-3.325 1.775-8.023-1.55-10.493-15.748-11.694-28.611-25.124-37.438-36.371 25.666 8.013 75.663 26.832 132.986 65.219-22.099 2.784-44.47-1.046-66.722-11.474-3.752-1.759-8.216-.143-9.974 3.608-1.757 3.751-.142 8.216 3.609 9.974 19.621 9.195 39.376 13.802 59.053 13.802 10.439 0 20.858-1.308 31.219-3.905 4.767 3.794 15.092 13.294 20.197 27.702h-46.451c-9.489 0-17.209 7.721-17.209 17.21v12.964c0 7.911 5.373 14.574 12.656 16.578-3.006 10.002-9.01 18.808-17.399 25.311-16.38 12.697-25.404 32.43-25.404 51.832v84.437c0 20.382 16.582 36.964 36.963 36.964h134.543c20.382 0 36.964-16.582 36.964-36.964v-14.794c0-4.143-3.357-7.5-7.5-7.5s-7.5 3.357-7.5 7.5v14.794c0 12.111-9.853 21.964-21.964 21.964h-134.542c-12.111 0-21.963-9.853-21.963-21.964v-81.621c12.777 5.679 26.261 5.981 40.24-.256 9.824-4.386 18.757-4.388 28.584 0 13.711 6.12 27.074 6.129 40.812 0 9.824-4.386 18.756-4.388 28.586 0 13.971 6.235 27.567 5.892 40.249.255v31.76c0 4.143 3.357 7.5 7.5 7.5s7.5-3.357 7.5-7.5v-34.574c0-19.385-9.009-39.124-25.404-51.832-8.389-6.503-14.393-15.309-17.4-25.31 7.284-2.003 12.657-8.667 12.657-16.578v-12.964c0-9.489-7.72-17.21-17.209-17.21h-46.417c5.125-14.335 15.439-23.884 20.185-27.697 10.206 2.546 20.54 3.82 30.924 3.82 25.861 0 52.003-7.854 77.04-23.332 29.188-18.045 51.37-42.935 62.396-60.211 4.596-7.206 1.057-16.978-7.372-19.342zm-293.794 20.868c27.441 14.013 43.755 33.51 53.018 48.67-49.994-32.366-94.057-50.267-120.944-59.33 18.57-2.229 43.824-1.648 67.926 10.66zm129.679-69.828c6.876 36.503-.49 67.199-21.885 91.492v-151.109c8.026 14.975 17.48 36.234 21.885 59.617zm-58.768 0c4.404-23.383 13.858-44.642 21.884-59.617v151.108c-21.395-24.292-28.76-54.988-21.884-91.491zm98.888 259.639c8.838 6.851 15.092 16.528 17.908 27.204-1.39.54-2.657 1.101-3.854 1.634-9.829 4.384-18.763 4.389-28.597 0-13.566-6.055-26.95-6.187-40.812 0-9.824 4.386-18.757 4.388-28.585 0-13.566-6.055-26.948-6.188-40.811 0-9.824 4.386-18.757 4.387-28.591 0-1.196-.533-2.462-1.094-3.851-1.633 2.817-10.676 9.07-20.354 17.908-27.205 11.911-9.233 20.126-22.034 23.577-36.535h92.13c3.453 14.502 11.668 27.303 23.578 36.535zm-10.553-66.708v12.964c0 1.218-.991 2.209-2.209 2.209h-113.758c-1.218 0-2.209-.991-2.209-2.209v-12.964c0-1.219.991-2.21 2.209-2.21h113.758c1.217 0 2.209.991 2.209 2.21zm41.07-123.103c24.021-12.266 49.215-12.869 67.741-10.674-27.369 9.165-70.933 26.983-120.864 59.393 9.216-15.135 25.518-34.622 53.123-48.719zm-52.342 66.183c57.31-38.366 107.433-57.215 132.963-65.203-22.197 28.226-71.921 72.869-132.963 65.203z"/></g></svg>