<svg id="Capa_1" enable-background="new 0 0 512 512" height="512" viewBox="0 0 512 512" width="512" xmlns="http://www.w3.org/2000/svg"><g><g><g><g><g><path d="m366.31 181.874h-159.891v293.338h275.087v-208.724l-100.496-79.502c-4.184-3.311-9.364-5.112-14.7-5.112z" fill="#f2f9ff"/></g><path d="m366.31 181.874h-57.094l106.958 84.614v208.724h65.333v-208.724l-100.497-79.502c-4.184-3.311-9.364-5.112-14.7-5.112z" fill="#e2f4ff"/><g><g><path d="m303.764 321.076c-.258-.825.498-1.625 1.33-1.388 3.244.925 11.306 1.963 30.277-.345 36.723-4.467 31.183 33.875 31.183 33.875s-43.67 28.942-62.79-32.142z" fill="#c6e873"/><path d="m426.269 358.676c.156-.851-.691-1.553-1.488-1.217-3.108 1.311-11.017 4.433-30.096 3.326-30.46-1.767-28.122 37.511-28.122 37.511s48.128 23.329 59.706-39.62z" fill="#b5e245"/></g></g><path d="m286 475.212h158v-20.428c0-7.638-6.192-13.829-13.829-13.829h-130.342c-7.638 0-13.829 6.192-13.829 13.829z" fill="#ce9875"/><path d="m430.171 440.955h-13.997v34.257h27.826v-20.428c0-7.637-6.192-13.829-13.829-13.829z" fill="#c6865c"/><g><path d="m30.494 266.488h213.915v208.724h-213.915z" fill="#f2f9ff"/></g><path d="m179.075 266.488h65.333v208.724h-65.333z" fill="#e2f4ff"/><g><path d="m137.451 181.874-106.957 84.614h213.915z" fill="#afe2f7"/></g><path d="m137.451 181.874h228.859c5.336 0 10.516 1.801 14.701 5.112l100.496 79.502h-237.098z" fill="#8fd6f7"/></g><path d="m488.303 503.256h-464.606c-8.945 0-16.197-7.251-16.197-16.197 0-8.945 7.251-16.197 16.197-16.197h464.607c8.945 0 16.197 7.251 16.197 16.197-.001 8.945-7.252 16.197-16.198 16.197z" fill="#4a80aa"/><path d="m488.303 470.863h-65.333c8.945 0 16.197 7.251 16.197 16.197s-7.251 16.197-16.197 16.197h65.333c8.945 0 16.197-7.251 16.197-16.197s-7.251-16.197-16.197-16.197z" fill="#407093"/></g><circle cx="443.243" cy="69.629" fill="#ffd064" r="27.204"/></g><g><path d="m443.243 23.903c4.143 0 7.5-3.358 7.5-7.5v-7.659c0-4.142-3.357-7.5-7.5-7.5s-7.5 3.358-7.5 7.5v7.659c0 4.142 3.358 7.5 7.5 7.5z"/><path d="m435.743 122.855v7.659c0 4.142 3.357 7.5 7.5 7.5s7.5-3.358 7.5-7.5v-7.659c0-4.142-3.357-7.5-7.5-7.5s-7.5 3.358-7.5 7.5z"/><path d="m486.182 37.296 5.416-5.416c2.93-2.929 2.93-7.678.001-10.607-2.929-2.928-7.678-2.929-10.606 0l-5.416 5.416c-2.93 2.929-2.93 7.678-.001 10.607 2.928 2.928 7.676 2.93 10.606 0z"/><path d="m400.303 101.962-5.416 5.416c-2.929 2.929-2.929 7.678 0 10.606 2.93 2.929 7.678 2.929 10.607 0l5.416-5.416c2.929-2.929 2.929-7.678 0-10.606-2.93-2.929-7.678-2.929-10.607 0z"/><path d="m488.969 69.629c0 4.142 3.357 7.5 7.5 7.5h7.659c4.143 0 7.5-3.358 7.5-7.5s-3.357-7.5-7.5-7.5h-7.659c-4.143 0-7.5 3.358-7.5 7.5z"/><path d="m382.358 77.129h7.659c4.143 0 7.5-3.358 7.5-7.5s-3.357-7.5-7.5-7.5h-7.659c-4.143 0-7.5 3.358-7.5 7.5s3.358 7.5 7.5 7.5z"/><path d="m475.575 101.962c-2.929 2.929-2.929 7.678 0 10.606l5.416 5.416c2.93 2.929 7.678 2.929 10.607 0s2.929-7.678 0-10.606l-5.416-5.416c-2.929-2.929-7.677-2.929-10.607 0z"/><path d="m400.304 37.296c2.928 2.929 7.677 2.928 10.606 0 2.929-2.929 2.929-7.678-.001-10.607l-5.416-5.416c-2.928-2.929-7.677-2.928-10.606 0-2.929 2.929-2.929 7.678.001 10.607z"/><path d="m489.006 463.381v-40.973c0-4.142-3.357-7.5-7.5-7.5s-7.5 3.358-7.5 7.5v40.955h-22.506v-8.578c0-11.761-9.568-21.33-21.329-21.33h-56.108v-24.845c10.849 2.453 21.928 1.862 31.667-3.07 14.302-7.243 23.693-22.553 27.915-45.507 0-.001.001-.001.001-.002 1.228-6.693-5.473-12.142-11.78-9.482-2.217.935-8.969 3.778-26.746 2.749-8.124-.47-15.318 1.507-21.057 5.736v-5.436c.422-3.795 1.748-21.801-9.354-33.155-7.087-7.249-17.262-10.123-30.242-8.544-19.083 2.321-25.732 1.029-27.315.578-3.026-.864-6.285.001-8.49 2.262-2.212 2.267-2.999 5.552-2.056 8.574.001.002.001.003.002.005 7.047 22.513 18.241 36.633 33.271 41.968 9.58 3.401 19.692 2.775 29.185-.392v68.561h-59.233c-11.761 0-21.329 9.568-21.329 21.33v8.578h-26.592v-189.375h222.098v113.357c0 4.142 3.357 7.5 7.5 7.5s7.5-3.358 7.5-7.5v-120.857c0-2.153-.955-4.358-2.81-5.848-.013-.01-.023-.023-.037-.034l-100.496-79.502c-5.486-4.34-12.359-6.729-19.354-6.729-47.559.002-228.016-.004-228.958.008-1.731.022-3.352.659-4.554 1.61l-106.958 84.613c-.013.01-.023.023-.037.034-1.754 1.409-2.81 3.583-2.81 5.848v196.893c-12.742.373-22.994 10.847-22.994 23.678 0 13.066 10.63 23.697 23.696 23.697h464.607c13.066 0 23.696-10.63 23.696-23.697.001-12.831-10.251-23.305-22.993-23.678zm-107.605-90.944c3.133-3.122 7.332-4.485 12.849-4.165 9.711.564 16.851.112 22.21-.757-3.727 12.325-9.562 20.578-17.415 24.596-9.092 4.651-19.311 2.724-24.932 1.008.405-6.242 2.111-15.522 7.288-20.682zm-46.505-21.288c-8.377-2.973-15.259-10.665-20.526-22.917 5.872.09 13.207-.386 21.907-1.444 8.077-.982 14.021.4 17.673 4.106 4.543 4.612 5.476 12.586 5.413 17.718-4.858 2.338-14.797 5.97-24.467 2.537zm-41.396 103.636c0-3.49 2.839-6.33 6.329-6.33h130.342c3.49 0 6.329 2.839 6.329 6.33v8.578h-143zm72.81-265.411c3.631 0 7.199 1.241 10.048 3.494l83.58 66.12h-212.921l-87.996-69.614zm-172.692 189.415v-104.801h43.29v104.801zm43.29 15v69.574h-43.29v-69.574zm-99.457-202.352 85.388 67.551h-170.777zm-99.457 82.551h43.29v37.625c0 4.142 3.357 7.5 7.5 7.5s7.5-3.358 7.5-7.5v-37.625h82.334v104.801h-82.334v-32.113c0-4.142-3.357-7.5-7.5-7.5s-7.5 3.358-7.5 7.5v32.113h-43.29zm140.624 119.801v69.574h-82.334v-69.574zm-140.624 0h43.29v69.574h-43.29zm450.31 101.967h-464.608c-4.795 0-8.696-3.901-8.696-8.697s3.901-8.696 8.696-8.696h464.607c4.795 0 8.696 3.901 8.696 8.696s-3.9 8.697-8.695 8.697z"/><path d="m443.243 104.333c19.136 0 34.704-15.568 34.704-34.705 0-19.136-15.568-34.704-34.704-34.704s-34.704 15.568-34.704 34.704c0 19.137 15.568 34.705 34.704 34.705zm0-54.408c10.865 0 19.704 8.839 19.704 19.704s-8.839 19.705-19.704 19.705-19.704-8.839-19.704-19.705c0-10.865 8.839-19.704 19.704-19.704z"/></g></g></svg>