<svg id="Capa_1" enable-background="new 0 0 512 512" height="512" viewBox="0 0 512 512" width="512" xmlns="http://www.w3.org/2000/svg"><g><g><g><path d="m113.462 266.557c-1.694-3.066-2.389-6.604-1.67-10.033.423-2.019.647-4.112.647-6.257 0-7.668-2.83-14.673-7.502-20.031-3.238-3.714-4.187-8.822-2.994-13.603.481-1.929.691-3.966.584-6.068-.526-10.377-8.929-18.882-19.3-19.519-11.983-.736-21.931 8.765-21.931 20.589 0 1.723.212 3.397.611 4.996 1.192 4.782.244 9.891-2.994 13.605-4.672 5.359-7.502 12.363-7.502 20.031 0 2.141.223 4.23.644 6.245.718 3.436.024 6.98-1.673 10.053-3.27 5.923-4.923 12.862-4.351 20.229 1.369 17.622 15.671 31.812 33.303 33.045 21.057 1.473 38.597-15.172 38.597-35.915-.001-6.3-1.624-12.218-4.469-17.367z" fill="#c6e873"/></g><g><g><g><g><g><path d="m219.731 369.247v-105.272c0-78.505 63.869-142.374 142.375-142.374s142.374 63.869 142.374 142.374v105.272z" fill="#4a80aa"/><path d="m476.795 369.247h-229.379v-105.272c0-63.341 51.348-114.689 114.689-114.689 63.341 0 114.689 51.348 114.689 114.689v105.272z" fill="#f2f9ff"/></g><g><path d="m362.106 121.601c-11.237 0-22.172 1.314-32.664 3.787 62.814 14.802 109.71 71.319 109.71 138.587v105.272h65.328v-105.272c0-78.505-63.869-142.374-142.374-142.374z" fill="#365e7d"/><path d="m476.795 369.247h-229.379v-105.272c0-63.341 51.348-114.689 114.689-114.689 63.341 0 114.689 51.348 114.689 114.689v105.272z" fill="#f2f9ff"/><path d="m383.748 151.334c33.677 26.062 55.403 66.86 55.403 112.641v105.272h37.644v-105.272c0-55.941-40.055-102.52-93.047-112.641z" fill="#e2f4ff"/></g><path d="m327.42 259.267h69.371v109.981h-69.371z" fill="#e2f4ff"/></g><path d="m7.52 381.147v-9.118c0-8.582 6.452-15.784 14.981-16.735 63.186-7.045 312.455-27.029 481.592 71.817l.386.65v64.296c0 6.872-6.165 12.443-13.769 12.443h-23.518l-.296-.312c-162.219-128.545-459.312-123.042-459.376-123.041z" fill="#9bc43d"/></g><g><path d="m504.479 357.242v134.816c0 6.872-6.165 12.443-13.769 12.443h-469.421c-7.604 0-13.769-5.571-13.769-12.443v-117.978c0-9.299 7.538-16.837 16.837-16.837h480.122z" fill="#a8d340"/><g fill="#9bc43d"><path d="m7.52 381.147v-9.118c0-8.582 6.452-15.784 14.981-16.735 63.186-7.045 312.455-27.029 481.592 71.817l.386.65v64.296c0 6.872-6.165 12.443-13.769 12.443h-23.518l-.296-.312c-162.219-128.545-459.312-123.042-459.376-123.041z"/><path d="m7.52 407.527c.05.008 156.932 23.918 283.252 96.973v.001h-147.414l-.312-.312c-70.788-43.423-135.51-66.428-135.526-66.433z"/></g></g></g></g></g><g><g><circle cx="143.358" cy="68.38" fill="#ffd064" r="27.202"/></g></g><g><path d="m143.358 22.658c4.142 0 7.499-3.358 7.499-7.499v-7.66c0-4.142-3.358-7.499-7.499-7.499-4.142 0-7.499 3.358-7.499 7.499v7.659c-.001 4.142 3.357 7.5 7.499 7.5z"/><path d="m135.858 121.601v7.659c0 4.142 3.358 7.499 7.499 7.499 4.142 0 7.499-3.358 7.499-7.499v-7.659c0-4.142-3.358-7.499-7.499-7.499-4.141-.001-7.499 3.357-7.499 7.499z"/><path d="m180.991 38.246c1.919 0 3.839-.732 5.303-2.197l5.416-5.416c2.929-2.928 2.929-7.677 0-10.606-2.928-2.928-7.677-2.928-10.606 0l-5.416 5.416c-2.929 2.928-2.929 7.677 0 10.606 1.464 1.465 3.384 2.197 5.303 2.197z"/><path d="m100.422 100.71-5.416 5.416c-2.929 2.928-2.929 7.677 0 10.606 1.464 1.464 3.384 2.197 5.303 2.197s3.839-.732 5.303-2.197l5.416-5.416c2.929-2.928 2.929-7.677 0-10.606-2.929-2.928-7.678-2.928-10.606 0z"/><path d="m189.08 68.38c0 4.142 3.358 7.499 7.499 7.499h7.659c4.142 0 7.499-3.358 7.499-7.499 0-4.142-3.358-7.499-7.499-7.499h-7.659c-4.142-.001-7.499 3.357-7.499 7.499z"/><path d="m82.478 75.879h7.659c4.142 0 7.499-3.358 7.499-7.499 0-4.142-3.358-7.499-7.499-7.499h-7.659c-4.142 0-7.499 3.358-7.499 7.499-.001 4.141 3.357 7.499 7.499 7.499z"/><path d="m175.688 100.71c-2.929 2.928-2.929 7.677 0 10.606l5.416 5.416c1.464 1.464 3.383 2.197 5.303 2.197s3.839-.732 5.303-2.197c2.929-2.928 2.929-7.677 0-10.606l-5.416-5.416c-2.929-2.928-7.677-2.928-10.606 0z"/><path d="m100.422 36.049c1.464 1.464 3.384 2.197 5.303 2.197s3.839-.732 5.303-2.197c2.929-2.928 2.929-7.677 0-10.606l-5.416-5.416c-2.928-2.928-7.677-2.928-10.606 0s-2.929 7.677 0 10.606z"/><path d="m143.358 103.081c19.134 0 34.701-15.567 34.701-34.701s-15.567-34.701-34.701-34.701-34.701 15.567-34.701 34.701 15.567 34.701 34.701 34.701zm0-54.404c10.864 0 19.702 8.839 19.702 19.702s-8.839 19.702-19.702 19.702c-10.864 0-19.702-8.839-19.702-19.702s8.838-19.702 19.702-19.702z"/><path d="m362.106 114.101c-82.641 0-149.873 67.233-149.873 149.873v7.274c0 4.142 3.358 7.499 7.499 7.499s7.499-3.358 7.499-7.499v-7.274c0-74.37 60.505-134.875 134.875-134.875s134.874 60.506 134.874 134.876v85.767h-12.685v-85.767c0-17.23-3.592-33.634-10.055-48.514-.153-.473-.352-.924-.592-1.35-19.112-42.584-61.912-72.32-111.53-72.325-.004 0-.009-.001-.013-.001s-.009.001-.013.001c-49.616.005-92.415 29.738-111.528 72.32-.242.431-.444.887-.599 1.366-6.459 14.877-10.05 31.277-10.05 48.502v81.296c-4.202-.363-8.429-.704-12.686-1.019v-37.59c0-4.142-3.358-7.499-7.499-7.499s-7.499 3.358-7.499 7.499v36.581c-46.233-2.746-88.748-2.205-122.809-.61v-15.845c20.896-3.595 36.006-21.929 36.006-42.864 0-7.337-1.868-14.597-5.403-20.994-.895-1.619-1.212-3.348-.894-4.867.535-2.551.806-5.174.806-7.796 0-9.18-3.32-18.044-9.348-24.959-1.501-1.722-2.013-4.286-1.371-6.859.671-2.689.939-5.469.798-8.263-.725-14.302-12.044-25.748-26.331-26.625-16.597-1.03-29.889 12.248-29.889 28.074 0 2.303.28 4.594.833 6.81.643 2.576.13 5.142-1.37 6.863-6.028 6.915-9.348 15.779-9.348 24.959 0 2.617.27 5.235.803 7.78.32 1.529.001 3.267-.897 4.894-4.107 7.438-5.927 15.887-5.263 24.434 1.538 19.801 16.627 36.036 35.872 39.403v16.652c-23.287 1.384-41.517 3.16-52.754 4.413-12.344 1.376-21.651 11.775-21.651 24.188v120.028c0 10.996 9.541 19.942 21.268 19.942h469.422c11.728 0 21.268-8.946 21.268-19.943v-134.815-93.267c0-82.641-67.233-149.874-149.873-149.874zm7.499 42.951c36.398 2.528 67.848 23.305 85.24 53.225h-85.24zm0 68.223h92.459c4.666 12.01 7.232 25.06 7.232 38.7v17.522h-65.005v-14.732h2.936c4.142 0 7.499-3.358 7.499-7.499 0-4.142-3.357-7.499-7.499-7.499h-37.622zm99.691 71.222v53.246h-65.005v-53.246zm-80.004-29.731v82.977h-54.372v-82.977zm-34.686-109.714v53.225h-85.24c17.392-29.92 48.842-50.697 85.24-53.225zm-99.69 106.923c0-13.64 2.566-26.69 7.232-38.7h92.459v26.491h-37.622c-4.142 0-7.499 3.358-7.499 7.499 0 4.142 3.357 7.499 7.499 7.499h2.936v14.732h-65.005zm0 32.522h65.005v53.246h-38.594c-8.677-1.133-17.475-2.162-26.41-3.071v-50.175zm-201.41-10.284c-.436-5.617.753-11.157 3.439-16.023 2.633-4.768 3.503-10.171 2.448-15.215-.322-1.537-.485-3.121-.485-4.709 0-5.556 2.009-10.92 5.655-15.103 4.719-5.413 6.445-13.019 4.618-20.348-.257-1.031-.388-2.101-.388-3.181 0-7.338 5.952-13.13 13.129-13.13.279 0 .561.009.842.026 6.548.402 11.938 5.854 12.27 12.413.066 1.317-.058 2.62-.372 3.874-1.827 7.327-.101 14.932 4.618 20.346 3.647 4.183 5.656 9.547 5.656 15.103 0 1.59-.164 3.177-.487 4.72-1.055 5.036-.186 10.433 2.447 15.197 2.311 4.182 3.532 8.933 3.532 13.74 0 16.295-13.741 29.624-30.575 28.434-13.937-.974-25.265-12.214-26.347-26.144zm-32.217 210.788c-3.398 0-6.269-2.264-6.269-4.944v-43.446c17.667 6.927 56.568 23.219 101.052 48.39zm124.375 0c-59.526-36.346-114.148-58.207-130.644-64.463v-16.121c31.668 5.707 145.012 28.67 246.276 80.584zm351.316-4.944c0 2.68-2.871 4.944-6.269 4.944h-20.833c-19.697-15.411-42.302-29.666-67.239-42.38-3.692-1.88-8.206-.416-10.088 3.275-1.882 3.69-.415 8.206 3.275 10.088 17.549 8.948 33.876 18.669 48.777 29.018h-151.843c-65.503-37.561-138.812-61.834-188.979-75.612-42.503-11.673-75.455-17.909-88.761-20.22v-12.546c16.28.071 58.158.896 111.451 6.784 114.389 12.639 192.564 38.476 238.002 57.926 3.782 1.62 8.205-.112 9.845-3.944 1.63-3.807-.135-8.216-3.943-9.845-84.084-35.992-178.276-51.988-242.486-59.07-53.844-5.938-96.227-6.778-112.869-6.85v-1.594c0-4.763 3.573-8.753 8.312-9.281 148.004-16.502 343.074-5.72 473.648 68.932zm0-77.55c-38.678-21.094-83.251-37.722-133.388-49.766h133.388z"/></g></g></svg>