<svg id="Capa_1" enable-background="new 0 0 512 512" height="512" viewBox="0 0 512 512" width="512" xmlns="http://www.w3.org/2000/svg"><g><g><g><g><g fill="#b5e245"><path d="m94.823 402.141c-11.323-9.999-28.746-9.722-39.771.605-5.896 5.522-9.008 12.84-9.345 20.26-.167 3.69-2.372 7.006-5.75 8.499-3.615 1.598-6.975 3.955-9.839 7.074-10.144 11.046-10.325 28.318-.395 39.556 11.41 12.914 31.15 13.371 43.15 1.371 7.105-7.105 9.835-16.921 8.207-26.117 5.54-1.104 10.826-3.799 15.12-8.094 12.002-12 11.543-31.744-1.377-43.154z"/><path d="m417.177 402.141c11.323-9.999 28.746-9.722 39.771.605 5.896 5.522 9.008 12.84 9.345 20.26.167 3.69 2.372 7.006 5.75 8.499 3.615 1.598 6.975 3.955 9.839 7.074 10.144 11.046 10.325 28.318.395 39.556-11.41 12.914-31.15 13.371-43.15 1.371-7.105-7.105-9.835-16.921-8.207-26.117-5.54-1.104-10.826-3.799-15.12-8.094-12.002-12-11.543-31.744 1.377-43.154z"/></g><g><g><g><path d="m253.245 112.84-182.996 117.996v251.258h371.502v-251.258l-182.996-117.996c-1.677-1.082-3.833-1.082-5.51 0z" fill="#d1ecf9"/><path d="m253.245 112.84-37.152 23.956 156.573 100.959c2.18 1.405 3.496 3.821 3.496 6.415v237.925h65.589v-251.259l-182.996-117.996c-1.677-1.082-3.833-1.082-5.51 0z" fill="#afe2f7"/><path d="m253.245 94.123-179.5 115.741c-2.18 1.405-3.496 3.821-3.496 6.415v30.328l182.996-117.996c1.678-1.082 3.833-1.082 5.51 0l182.996 117.996v-30.328c0-2.593-1.317-5.009-3.496-6.415l-179.5-115.741c-1.677-1.082-3.833-1.082-5.51 0z" fill="#e27d47"/></g></g></g></g><g><path d="m196.202 296.369h119.597v171.655h-119.597z" fill="#f2f9ff"/></g><path d="m250.261 296.369h65.538v171.655h-65.538z" fill="#e2f4ff"/><g><path d="m331.692 300.583c0-7.996-6.482-14.478-14.478-14.478h-122.428c-7.996 0-14.478 6.482-14.478 14.478 0 7.996 6.482 14.478 14.478 14.478h122.428c7.996 0 14.478-6.482 14.478-14.478z" fill="#afe2f7"/></g><path d="m489.329 498.367h-466.658c-8.379 0-15.171-6.792-15.171-15.171 0-8.379 6.792-15.171 15.171-15.171h466.658c8.379 0 15.171 6.792 15.171 15.171 0 8.378-6.792 15.171-15.171 15.171z" fill="#4a80aa"/><path d="m489.329 468.024h-50.302v15.171c0 8.379-6.792 15.171-15.171 15.171h65.473c8.379 0 15.171-6.792 15.171-15.171 0-8.378-6.792-15.171-15.171-15.171z" fill="#407093"/></g><circle cx="430.84" cy="74.601" fill="#ffd064" r="27.241"/></g><path d="m253.245 94.123-179.5 115.741c-2.18 1.405-3.496 3.821-3.496 6.415v30.328l182.996-117.996c1.678-1.082 3.833-1.082 5.51 0l182.996 117.996v-30.328c0-2.593-1.317-5.009-3.496-6.415l-179.5-115.741c-1.677-1.082-3.833-1.082-5.51 0z" fill="#e27d47"/><g><path d="m430.84 28.803c4.143 0 7.5-3.357 7.5-7.5v-7.669c0-4.143-3.357-7.5-7.5-7.5s-7.5 3.357-7.5 7.5v7.669c0 4.142 3.357 7.5 7.5 7.5z"/><path d="m423.34 127.898v7.67c0 4.143 3.357 7.5 7.5 7.5s7.5-3.357 7.5-7.5v-7.67c0-4.143-3.357-7.5-7.5-7.5s-7.5 3.358-7.5 7.5z"/><path d="m473.83 42.218 5.424-5.424c2.929-2.93 2.929-7.678 0-10.607-2.93-2.928-7.678-2.928-10.607 0l-5.424 5.424c-2.929 2.93-2.929 7.678 0 10.607 2.93 2.929 7.677 2.928 10.607 0z"/><path d="m387.849 106.984-5.423 5.423c-2.929 2.93-2.929 7.678 0 10.607 2.931 2.929 7.678 2.928 10.607 0l5.423-5.423c2.929-2.93 2.929-7.678 0-10.607-2.93-2.927-7.678-2.927-10.607 0z"/><path d="m476.638 74.601c0 4.143 3.357 7.5 7.5 7.5h7.669c4.143 0 7.5-3.357 7.5-7.5s-3.357-7.5-7.5-7.5h-7.669c-4.143 0-7.5 3.357-7.5 7.5z"/><path d="m369.872 82.101h7.67c4.143 0 7.5-3.357 7.5-7.5s-3.357-7.5-7.5-7.5h-7.67c-4.143 0-7.5 3.357-7.5 7.5s3.357 7.5 7.5 7.5z"/><path d="m463.223 106.985c-2.929 2.929-2.929 7.678.001 10.606l5.424 5.423c2.927 2.927 7.678 2.93 10.606-.001 2.929-2.929 2.929-7.678-.001-10.606l-5.424-5.423c-2.93-2.929-7.679-2.928-10.606.001z"/><path d="m387.849 42.217c2.928 2.928 7.677 2.931 10.606.001 2.93-2.929 2.93-7.678.001-10.606l-5.423-5.424c-2.929-2.929-7.678-2.93-10.606-.001-2.93 2.929-2.93 7.678-.001 10.606z"/><path d="m496.95 461.846c1.423-16.115-7.584-30.885-21.873-37.199-.745-.329-1.252-1.106-1.292-1.979-.683-15.041-10.326-28.13-24.534-33.166v-68.553c0-4.143-3.357-7.5-7.5-7.5s-7.5 3.357-7.5 7.5v28.868h-45.415v-95.708h45.415v31.998c0 4.143 3.357 7.5 7.5 7.5s7.5-3.357 7.5-7.5c0-14.393 0-55.366 0-69.826 0-5.164-2.591-9.919-6.932-12.719l-179.5-115.74c-4.143-2.674-9.498-2.673-13.639-.001l-122.102 78.73c-3.481 2.245-4.483 6.887-2.239 10.368 2.246 3.483 6.89 4.482 10.368 2.239l120.793-77.887 178.189 114.896c.038.024.062.067.062.112v16.568l-171.432-110.538c-4.143-2.674-9.498-2.673-13.639-.001l-171.431 110.54v-16.568c0-.045.023-.088.061-.111l27.889-17.982c3.481-2.245 4.483-6.887 2.239-10.368-2.246-3.481-6.888-4.48-10.368-2.239l-27.89 17.983c-4.34 2.799-6.931 7.554-6.931 12.718v173.221c-14.192 5.031-23.85 18.106-24.534 33.167-.04.872-.547 1.649-1.289 1.978-14.259 6.3-23.303 21.039-21.876 37.2-8.763 3.136-15.05 11.52-15.05 21.348 0 12.501 10.17 22.671 22.671 22.671h466.658c12.501 0 22.671-10.17 22.671-22.671 0-9.828-6.287-18.212-15.05-21.349zm-38.149-38.5c.299 6.611 4.211 12.366 10.211 15.021 8.365 3.695 13.869 12.388 13.005 22.158h-32.766v-54.362c5.529 3.778 9.226 10.045 9.55 17.183zm-24.55-58.531v95.709h-45.415v-95.709zm-110.952 95.709-.001-95.709h50.538v95.709zm-185.135 0v-95.709h50.537v95.709zm-60.415 0v-95.709h45.415v95.709zm185.751-221.417v-98.513l152.779 98.513zm-15 0h-152.779l152.779-98.512zm-170.751 15h45.415v95.708h-45.415zm239.465 53.455h-122.428c-3.848 0-6.979-3.131-6.979-6.979s3.131-6.978 6.979-6.978h122.428c3.848 0 6.978 3.13 6.978 6.978v.001c-.001 3.856-3.12 6.978-6.978 6.978zm-113.513 15h104.597l.001 137.963h-104.598zm170.135 27.253h-50.538v-28.116c9.015-2.584 15.894-10.903 15.894-21.116 0-12.118-9.859-21.978-21.978-21.978h-122.428c-12.119 0-21.979 9.859-21.979 21.978 0 10.008 6.726 18.469 15.894 21.115v28.117h-50.537v-95.708h235.672zm-330.845 88.55c5.997-2.653 9.909-8.408 10.208-15.019.324-7.131 4.014-13.401 9.55-17.184v54.362h-32.766c-.843-9.535 4.42-18.366 13.008-22.159zm446.338 52.501h-466.658c-4.229 0-7.671-3.441-7.671-7.671s3.441-7.671 7.671-7.671h466.658c4.229 0 7.671 3.441 7.671 7.671s-3.441 7.671-7.671 7.671z"/><path d="m430.84 109.342c19.156 0 34.741-15.585 34.741-34.741s-15.585-34.741-34.741-34.741-34.741 15.585-34.741 34.741 15.585 34.741 34.741 34.741zm0-54.483c10.886 0 19.741 8.855 19.741 19.741s-8.855 19.741-19.741 19.741-19.741-8.855-19.741-19.741 8.855-19.741 19.741-19.741z"/></g></g></svg>