<svg id="Capa_1" enable-background="new 0 0 512 512" height="512" viewBox="0 0 512 512" width="512" xmlns="http://www.w3.org/2000/svg"><g><g><g><g><g><path d="m263.766 158.451v-73.723h-91.093v73.723c0 4.321-1.136 8.566-3.294 12.31l-119.24 206.882c-12.351 21.43 3.116 48.197 27.85 48.197h280.46c24.734 0 40.201-26.767 27.85-48.197l-119.239-206.883c-2.158-3.743-3.294-7.988-3.294-12.309z" fill="#e2f4ff"/><path d="m386.3 377.643-119.24-206.883c-2.158-3.744-3.293-7.989-3.293-12.31v-73.722h-65.667v73.723c0 4.321 1.136 8.566 3.294 12.31l119.24 206.883c12.351 21.43-3.116 48.196-27.85 48.196h65.667c24.733 0 40.2-26.767 27.849-48.197z" fill="#d1ecf9"/><path d="m386.3 377.643-80.709-140.031c-13.89.481-14.301 9.08-28.991 9.08-15.112 0-15.112-9.101-30.224-9.101-15.11 0-15.11 9.101-30.22 9.101-15.109 0-15.109-9.101-30.219-9.101s-15.11 9.101-30.219 9.101c-13.174 0-14.864-6.917-25.094-8.69l-80.485 139.641c-12.351 21.43 3.116 48.196 27.85 48.196h280.46c24.735.001 40.202-26.766 27.851-48.196z" fill="#c6e873"/><path d="m292.783 425.84h65.667c24.734 0 40.201-26.767 27.85-48.196l-80.709-140.031c-13.89.481-14.301 9.08-28.991 9.08-15.112 0-15.112-9.101-30.224-9.101-2.372 0-4.372.225-6.116.603l80.373 139.449c12.351 21.429-3.116 48.196-27.85 48.196z" fill="#b5e245"/><path d="m271.776 109.567h-107.113c-8.146 0-14.75-6.604-14.75-14.75v-24.437c0-8.146 6.604-14.75 14.75-14.75h107.112c8.146 0 14.75 6.604 14.75 14.75v24.436c.001 8.147-6.603 14.751-14.749 14.751z" fill="#d1ecf9"/><path d="m271.776 55.63h-65.333c8.146 0 14.75 6.604 14.75 14.75v24.436c0 8.146-6.604 14.75-14.75 14.75h65.333c8.146 0 14.75-6.604 14.75-14.75v-24.436c0-8.146-6.604-14.75-14.75-14.75z" fill="#afe2f7"/></g></g><g><g><g><g><g><g><g><g fill="#c6e873"><path d="m315.778 173.831c-.278-.888.536-1.748 1.43-1.493 3.489.995 12.163 2.112 32.57-.371 39.505-4.805 33.545 36.44 33.545 36.44s-46.977 31.133-67.545-34.576z"/><path d="m447.56 214.278c.168-.915-.744-1.671-1.601-1.309-3.343 1.41-11.852 4.769-32.375 3.578-32.767-1.901-30.252 40.351-30.252 40.351s51.773 25.096 64.228-42.62z"/></g></g></g></g><g><g><path d="m307.891 304.543 25.494 109.327c1.635 7.01 7.884 11.97 15.082 11.97h66.367c7.198 0 13.448-4.96 15.082-11.97l25.494-109.327z" fill="#eaaa89"/></g><path d="m390.642 304.543-28.286 121.297h52.479c7.198 0 13.448-4.96 15.082-11.97l25.494-109.327z" fill="#e4936b"/><path d="m456.234 323.76h-149.165c-5.506 0-9.969-4.463-9.969-9.969v-11.027c0-5.506 4.463-9.969 9.969-9.969h149.166c5.506 0 9.969 4.463 9.969 9.969v11.027c-.001 5.505-4.464 9.969-9.97 9.969z" fill="#e4936b"/><path d="m456.234 292.795h-65.333c5.506 0 9.969 4.463 9.969 9.969v11.027c0 5.506-4.463 9.969-9.969 9.969h65.333c5.506 0 9.969-4.463 9.969-9.969v-11.027c0-5.506-4.463-9.969-9.969-9.969z" fill="#e27d47"/></g></g></g></g></g></g><g><g><path d="m486.787 456.37h-461.574c-9.783 0-17.713-7.93-17.713-17.713 0-9.783 7.93-17.713 17.713-17.713h461.574c9.783 0 17.713 7.93 17.713 17.713 0 9.782-7.93 17.713-17.713 17.713z" fill="#4a80aa"/></g></g><path d="m486.787 420.944h-65.333c9.783 0 17.713 7.93 17.713 17.713 0 9.783-7.93 17.713-17.713 17.713h65.333c9.783 0 17.713-7.93 17.713-17.713 0-9.783-7.93-17.713-17.713-17.713z" fill="#407093"/></g><path d="m486.787 413.444h-49.069l4.631-19.858c.94-4.034-1.567-8.066-5.601-9.007-4.034-.939-8.067 1.567-9.007 5.601l-5.127 21.987c-.103.439-.256.863-.432 1.277h-81.061c-.176-.414-.329-.838-.431-1.277l-18.867-80.907h119.657l-5.717 24.514c-.94 4.034 1.567 8.066 5.601 9.007 4.043.941 8.069-1.575 9.007-5.601l6.519-27.954c9.327-.349 16.812-8.025 16.812-17.435v-11.027c0-9.632-7.836-17.469-17.469-17.469h-65.401v-18.008c11.588 2.755 23.704 2.302 34.376-3.103 15.218-7.707 25.219-24.041 29.727-48.548 1.246-6.766-5.533-12.258-11.892-9.577-19.093 8.056-35.923-3.351-52.211 9.731v-7.008c3.077-27.337-11.77-47.932-41.96-44.261-20.633 2.509-27.879 1.096-29.605.604-6.628-1.892-12.707 4.374-10.646 10.948 7.524 24.035 19.447 39.103 35.438 44.778 10.42 3.699 21.454 2.918 31.774-.676v65.119h-34.103l-68.172-118.28c-1.499-2.601-2.292-5.562-2.292-8.564v-41.384h.509c12.269 0 22.25-9.981 22.25-22.25v-24.436c0-12.269-9.981-22.25-22.25-22.25h-107.112c-12.269 0-22.25 9.981-22.25 22.25v24.436c0 12.269 9.981 22.25 22.25 22.25h.51v41.384c0 3.002-.792 5.963-2.292 8.564l-119.24 206.884c-7.311 12.684-6.882 27.683-.072 39.545h-18.356c-13.902.001-25.213 11.311-25.213 25.214s11.311 25.213 25.213 25.213h461.574c13.902 0 25.213-11.311 25.213-25.213s-11.311-25.213-25.213-25.213zm-87.921-184.736c8.54-8.552 18.387-2.007 38.945-5.633-4.042 13.901-10.507 23.192-19.284 27.68-10.172 5.2-21.598 2.893-27.64.992.342-6.164 1.853-16.904 7.979-23.039zm-49.789-21.992c-9.348-3.318-16.979-11.971-22.755-25.771 6.438.167 14.585-.343 24.362-1.533 16.416-1.998 25.854 4.962 25.465 24.396-5.193 2.545-16.278 6.739-27.072 2.908zm109.626 96.048v11.027c0 1.361-1.107 2.469-2.469 2.469h-149.165c-1.361 0-2.469-1.107-2.469-2.469v-11.027c0-1.361 1.108-2.469 2.469-2.469h149.166c1.361 0 2.468 1.107 2.468 2.469zm-301.29-207.948v-24.436c0-3.998 3.252-7.25 7.25-7.25h107.112c3.998 0 7.25 3.252 7.25 7.25v24.436c0 3.998-3.252 7.25-7.25 7.25h-107.112c-3.997.001-7.25-3.252-7.25-7.25zm18.464 79.689c2.81-4.875 4.295-10.427 4.295-16.055v-41.384h76.093v41.384c0 5.627 1.485 11.179 4.295 16.055l33.413 57.971c-2.409 1.003-4.369 2.179-6.131 3.241-3.475 2.092-5.771 3.475-11.243 3.475s-7.768-1.383-11.243-3.476c-12.42-7.48-25.139-7.723-37.961 0-3.475 2.093-5.77 3.475-11.241 3.475-5.47 0-7.766-1.382-11.24-3.475-12.62-7.601-25.314-7.616-37.958 0-3.474 2.093-5.77 3.475-11.24 3.475-5.471 0-7.767-1.382-11.242-3.475-.892-.537-1.859-1.111-2.909-1.681zm310.91 274.365h-461.574c-5.631 0-10.213-4.582-10.213-10.213s4.582-10.213 10.213-10.213h35.646c.005 0 .009.001.014.001s.01-.001.016-.001h30.816c4.142 0 7.5-3.358 7.5-7.5s-3.358-7.5-7.5-7.5h-28.485c-8.83-6.701-13.565-19.941-6.583-32.055l77.439-134.357c.852.447 1.708.962 2.662 1.536 12.394 7.463 25.113 7.736 37.959-.001 3.474-2.093 5.77-3.475 11.24-3.475s7.766 1.382 11.24 3.475c12.394 7.465 25.112 7.737 37.959 0 3.474-2.093 5.77-3.475 11.24-3.475 11.85 0 13.042 9.101 30.225 9.101 9.64 0 14.819-3.119 18.981-5.625 2.132-1.284 3.799-2.283 6.01-2.875l22.826 39.603h-17.348c-9.632 0-17.469 7.836-17.469 17.469v11.027c0 9.411 7.486 17.086 16.813 17.435l19.173 82.217h-198.82c-4.142 0-7.5 3.358-7.5 7.5s3.358 7.5 7.5 7.5h360.02c5.631 0 10.213 4.582 10.213 10.213s-4.582 10.213-10.213 10.213z"/></g></svg>