<svg id="Capa_1" enable-background="new 0 0 512 512" height="512" viewBox="0 0 512 512" width="512" xmlns="http://www.w3.org/2000/svg"><g><g><g><g><g><g><path d="m256 35.462-216.321 139.485v301.277h432.641v-301.277z" fill="#f2f9ff"/><path d="m256 35.462-48.175 31.063 199.163 128.421v281.278h65.333v-301.277z" fill="#e2f4ff"/><path d="m7.504 186.423c0 15.916 17.619 25.52 30.995 16.894l211.143-136.145c3.871-2.496 8.845-2.496 12.716 0l211.142 136.145c13.377 8.625 30.995-.978 30.995-16.894 0-6.83-3.468-13.193-9.208-16.894l-232.929-150.194c-3.871-2.496-8.845-2.496-12.716 0l-232.93 150.193c-5.74 3.702-9.208 10.064-9.208 16.895z" fill="#afe2f7"/></g></g><path d="m486.358 494.53h-460.716c-10.017 0-18.138-8.121-18.138-18.138 0-10.017 8.121-18.138 18.138-18.138h460.716c10.017 0 18.138 8.121 18.138 18.138 0 10.017-8.121 18.138-18.138 18.138z" fill="#e4936b"/><path d="m486.358 458.254h-46.703v18.138c0 10.017-8.121 18.138-18.138 18.138h64.841c10.017 0 18.138-8.12 18.138-18.138 0-10.017-8.121-18.138-18.138-18.138z" fill="#dd6938"/></g></g><g><g><path d="m270.005 154.434v-.519h-28.01v.521c0 14.205-4.051 28.003-10.974 40.407-2.538 4.547-3.869 9.858-3.561 15.503.779 14.258 12.227 25.906 26.471 26.908 16.722 1.177 30.652-12.04 30.652-28.511 0-5.346-1.468-10.347-4.023-14.625-7.138-11.952-10.555-25.762-10.555-39.684z" fill="#ffe07d"/><path d="m267.357 175.78h-22.715c-4.394 0-7.956-3.562-7.956-7.956v-11.589c0-4.394 3.562-7.956 7.956-7.956h22.715c4.394 0 7.956 3.562 7.956 7.956v11.589c0 4.394-3.562 7.956-7.956 7.956z" fill="#4a80aa"/></g><g><path d="m321.386 105.233-59.028-38.062c-3.871-2.496-8.845-2.496-12.716 0l-59.028 38.062z" fill="#4a80aa"/></g><g><g><g><path d="m70.519 332.848c-.229-.73.441-1.438 1.176-1.228 2.869.818 10.001 1.736 26.782-.305 32.485-3.952 27.584 29.965 27.584 29.965s-38.629 25.601-55.542-28.432z" fill="#c6e873"/><path d="m178.884 366.108c.138-.752-.611-1.374-1.316-1.076-2.749 1.16-9.746 3.921-26.622 2.942-26.944-1.563-24.876 33.181-24.876 33.181s42.573 20.637 52.814-35.047z" fill="#b5e245"/></g></g><g><g><path d="m201.832 332.848c-.229-.73.441-1.438 1.176-1.228 2.869.818 10.001 1.736 26.782-.305 32.485-3.952 27.584 29.965 27.584 29.965s-38.629 25.601-55.542-28.432z" fill="#c6e873"/><path d="m310.197 366.108c.138-.752-.611-1.374-1.316-1.076-2.749 1.16-9.746 3.921-26.622 2.942-26.944-1.563-24.876 33.181-24.876 33.181s42.572 20.637 52.814-35.047z" fill="#b5e245"/></g></g><g><g><path d="m333.144 332.848c-.229-.73.441-1.438 1.176-1.228 2.869.818 10.001 1.736 26.782-.305 32.485-3.952 27.584 29.965 27.584 29.965s-38.629 25.601-55.542-28.432z" fill="#c6e873"/><path d="m441.51 366.108c.138-.752-.611-1.374-1.316-1.076-2.749 1.16-9.746 3.921-26.622 2.942-26.944-1.563-24.876 33.181-24.876 33.181s42.572 20.637 52.814-35.047z" fill="#b5e245"/></g></g></g></g></g><g><path d="m326.499 204.564h10c4.143 0 7.5-3.357 7.5-7.5s-3.357-7.5-7.5-7.5h-10c-4.142 0-7.5 3.357-7.5 7.5 0 4.142 3.357 7.5 7.5 7.5z"/><path d="m185.501 189.564h-10c-4.143 0-7.5 3.357-7.5 7.5s3.357 7.5 7.5 7.5h10c4.143 0 7.5-3.357 7.5-7.5s-3.357-7.5-7.5-7.5z"/><path d="m263.5 277.562v-10c0-4.143-3.357-7.5-7.5-7.5s-7.5 3.357-7.5 7.5v10c0 4.143 3.357 7.5 7.5 7.5 4.142 0 7.5-3.357 7.5-7.5z"/><path d="m311.152 241.611c-2.93-2.928-7.677-2.929-10.606.001-2.929 2.929-2.929 7.678.001 10.606l7.071 7.07c2.93 2.928 7.677 2.929 10.606-.001 2.929-2.929 2.929-7.678-.001-10.606z"/><path d="m211.454 141.91-7.071-7.071c-2.93-2.928-7.678-2.928-10.607 0-2.929 2.93-2.929 7.678 0 10.607l7.071 7.071c6.92 6.916 17.713-3.498 10.607-10.607z"/><path d="m307.617 134.839-7.071 7.071c-2.929 2.93-2.929 7.678 0 10.607 2.931 2.929 7.677 2.928 10.607 0l7.071-7.071c2.929-2.93 2.929-7.678 0-10.607-2.929-2.928-7.677-2.928-10.607 0z"/><path d="m200.848 241.611-7.071 7.07c-2.93 2.929-2.93 7.678-.001 10.606 2.928 2.928 7.677 2.931 10.606.001l7.071-7.07c2.93-2.929 2.93-7.678.001-10.606-2.93-2.929-7.679-2.93-10.606-.001z"/><path d="m486.357 450.754h-6.537v-237.058c29.426 5.049 44.602-34.301 19.532-50.471l-46.278-29.839c-3.478-2.243-8.122-1.241-10.368 2.239-2.244 3.481-1.242 8.123 2.239 10.368l46.277 29.838c13.973 9.01.241 30.152-13.658 21.182l-211.141-136.145c-6.332-4.082-14.513-4.082-20.845 0l-211.143 136.146c-13.852 8.93-27.737-12.106-13.659-21.182l232.931-150.194c1.392-.898 3.191-.9 4.587.001l157.184 101.352c3.48 2.245 8.123 1.242 10.368-2.239 2.244-3.481 1.242-8.123-2.239-10.368l-157.183-101.351c-6.332-4.084-14.516-4.083-20.846-.001l-232.931 150.193c-25.037 16.148-9.951 55.516 19.533 50.456v176.363c0 4.142 3.357 7.5 7.5 7.5s7.5-3.357 7.5-7.5v-183.4l145.643-93.911h55.677v28.046h-3.857c-8.522 0-15.456 6.933-15.456 15.456v11.589c0 2.78.748 5.384 2.038 7.64-1.655 5.36-3.913 10.636-6.753 15.724-3.319 5.946-4.875 12.713-4.501 19.566.988 18.101 15.362 32.709 33.434 33.981 21.364 1.513 38.678-15.487 38.678-35.993 0-6.514-1.758-12.9-5.085-18.469-2.678-4.485-4.81-9.369-6.381-14.55 1.384-2.315 2.195-5.011 2.195-7.899v-11.589c0-8.522-6.933-15.456-15.456-15.456h-3.856v-28.046h55.678l145.643 93.91v244.11h-68.626v-39.407c24.024 4.919 45.912-7.028 52.691-43.878.565-3.069-.595-6.19-3.029-8.146-2.428-1.95-5.714-2.407-8.579-1.2-14.433 6.09-27.588-2.02-41.082 6.65v-3.079c2.729-23.289-10.436-40.929-35.997-37.822-16.718 2.034-22.46.926-23.82.537-2.99-.851-6.197.004-8.369 2.23-2.179 2.235-2.953 5.473-2.022 8.45l.001.001c6.318 20.188 16.401 32.866 29.967 37.681 8.257 2.932 16.962 2.564 25.241.018v77.966h-116.314v-39.408c9.36 1.917 18.978 1.324 27.537-3.011 12.905-6.535 21.368-20.286 25.154-40.871.001-.002.001-.004.001-.006.562-3.068-.601-6.187-3.035-8.139-2.426-1.947-5.714-2.403-8.574-1.197-14.419 6.084-27.584-2.02-41.082 6.65v-3.08c2.716-23.186-10.334-40.932-35.997-37.821-16.718 2.034-22.462.926-23.818.538-6.457-1.845-12.404 4.254-10.393 10.68l.001.001c6.318 20.188 16.401 32.866 29.967 37.681 8.257 2.932 16.963 2.564 25.241.018v77.966h-116.316v-39.407c24.016 4.917 45.92-7.073 52.691-43.878.565-3.069-.595-6.19-3.029-8.146-2.428-1.95-5.715-2.407-8.579-1.2-14.42 6.087-27.54-2.051-41.082 6.65v-3.079c.444-3.79 1.597-19.661-8.521-30.01-15.195-15.541-37.281-3.269-51.293-7.274-6.457-1.845-12.405 4.253-10.394 10.68l.001.001c6.319 20.188 16.402 32.867 29.968 37.681 8.258 2.933 16.962 2.564 25.24.018-.002 1.293 0 6.803 0 77.966h-71.39v-25.647c0-4.143-3.357-7.5-7.5-7.5s-7.5 3.357-7.5 7.5v25.647h-6.537c-14.136 0-25.638 11.501-25.638 25.638s11.502 25.638 25.638 25.638h460.715c14.136 0 25.638-11.501 25.638-25.638s-11.503-25.641-25.64-25.641zm-209.274-242.012c0 12.042-10.128 21.892-22.626 21.03-10.545-.742-18.932-9.269-19.508-19.837-.22-4.018.687-7.972 2.62-11.437 2.756-4.936 5.047-10.036 6.87-15.229.068.001.134.01.203.01h22.665c1.798 5.169 4.07 10.09 6.814 14.684 1.938 3.246 2.962 6.973 2.962 10.779zm-9.726-52.963c.251 0 .456.205.456.456v11.589c0 .251-.205.456-.456.456h-22.714c-.251 0-.456-.205-.456-.456v-11.589c0-.251.205-.456.456-.456zm-51.272-58.046 37.621-24.258c1.393-.9 3.195-.9 4.588 0l37.622 24.258zm186.351 281.158c6.24-6.214 12.681-1.629 29.159-3.903-5.758 17.71-17.266 26.13-35.309 20.957.42-5.351 1.929-12.852 6.15-17.054zm-131.338.024c6.359-6.371 12.016-1.557 29.184-3.928-3.23 9.935-8.104 16.618-14.55 19.921-7.444 3.812-15.817 2.453-20.759 1.036.426-5.289 1.93-12.827 6.125-17.029zm-131.312 0c6.266-6.278 12.521-1.628 29.183-3.928-6.29 19.346-18.752 25.705-35.308 20.957.425-5.289 1.929-12.827 6.125-17.029zm221.089-20.315c-6.854-2.473-12.558-8.696-17.02-18.548h.004c5.01 0 11.073-.431 18.149-1.291 12.683-1.544 19.415 3.498 19.457 17.9-4.341 2.016-12.586 4.824-20.59 1.939zm-131.312 0c-6.854-2.473-12.558-8.696-17.02-18.548h.004c5.01 0 11.073-.431 18.149-1.291 12.66-1.536 19.415 3.469 19.457 17.9-4.341 2.016-12.586 4.824-20.59 1.939zm-131.216.034c-6.898-2.448-12.635-8.684-17.118-18.583h.004c16.287 0 26.558-4.506 33.058 2.086 3.673 3.725 4.536 10.142 4.548 14.525-4.312 2.003-12.516 4.806-20.492 1.972zm388.01 128.396h-460.714c-5.866 0-10.638-4.772-10.638-10.638s4.772-10.638 10.638-10.638h460.715c5.866 0 10.638 4.772 10.638 10.638s-4.773 10.638-10.639 10.638z"/></g></g></svg>