<svg id="Capa_1" enable-background="new 0 0 512 512" height="512" viewBox="0 0 512 512" width="512" xmlns="http://www.w3.org/2000/svg"><g><g><g><g><g><g><g><g><g><g><g fill="#ffd064"><path d="m102.35 182.173c-8.077-8.077-23.346-36.441-15.269-44.518s36.441 7.193 44.518 15.269c8.077 8.077 8.077 21.172 0 29.248-8.077 8.078-21.172 8.078-29.249.001z"/><path d="m29.068 108.891c8.077 8.077 36.441 23.346 44.518 15.269s-7.193-36.441-15.269-44.518-21.172-8.077-29.248 0-8.078 21.172-.001 29.249z"/></g><g fill="#ffd064"><path d="m29.068 152.925c8.077-8.077 36.441-23.346 44.518-15.269s-7.193 36.441-15.269 44.518c-8.077 8.077-21.172 8.077-29.248 0-8.078-8.078-8.078-21.173-.001-29.249z"/><path d="m102.35 79.643c-8.077 8.077-23.346 36.441-15.269 44.518s36.441-7.193 44.518-15.269 8.077-21.172 0-29.248-21.172-8.078-29.249-.001z"/></g><g fill="#ffe07d"><path d="m132.151 151.589c-11.422 0-42.276-9.259-42.276-20.682s30.854-20.682 42.276-20.682 20.682 9.259 20.682 20.682-9.259 20.682-20.682 20.682z"/><path d="m28.515 151.589c11.422 0 42.276-9.259 42.276-20.682s-30.854-20.682-42.276-20.682-20.682 9.259-20.682 20.682 9.26 20.682 20.682 20.682z"/></g><g fill="#ffe07d"><path d="m59.652 182.726c0-11.422 9.259-42.276 20.682-42.276s20.682 30.854 20.682 42.276-9.259 20.682-20.682 20.682-20.682-9.26-20.682-20.682z"/><path d="m59.652 79.09c0 11.422 9.259 42.276 20.682 42.276s20.682-30.854 20.682-42.276-9.259-20.682-20.682-20.682-20.682 9.259-20.682 20.682z"/></g><circle cx="80.333" cy="130.908" fill="#e4936b" r="20.288"/></g></g><g><path d="m80.333 271.573s48.253-67.437 64.807-56.316c17.417 11.701 9.042 70.098-64.807 56.316z" fill="#b5e245"/><path d="m80.333 271.573s-48.253-67.437-64.807-56.316c-17.416 11.701-9.041 70.098 64.807 56.316z" fill="#c6e873"/></g></g></g><g><g><g><g><g fill="#ffd064"><path d="m453.683 182.173c-8.077-8.077-23.346-36.441-15.269-44.518s36.441 7.193 44.518 15.269c8.077 8.077 8.077 21.172 0 29.248-8.077 8.078-21.172 8.078-29.249.001z"/><path d="m380.401 108.891c8.077 8.077 36.441 23.346 44.518 15.269s-7.193-36.441-15.269-44.518-21.172-8.077-29.248 0-8.077 21.172-.001 29.249z"/></g><g fill="#ffd064"><path d="m380.401 152.925c8.077-8.077 36.441-23.346 44.518-15.269s-7.193 36.441-15.269 44.518c-8.077 8.077-21.172 8.077-29.248 0-8.077-8.078-8.077-21.173-.001-29.249z"/><path d="m453.683 79.643c-8.077 8.077-23.346 36.441-15.269 44.518s36.441-7.193 44.518-15.269c8.077-8.077 8.077-21.172 0-29.248-8.077-8.078-21.172-8.078-29.249-.001z"/></g><g fill="#ffe07d"><path d="m483.485 151.589c-11.422 0-42.276-9.259-42.276-20.682s30.854-20.682 42.276-20.682 20.682 9.259 20.682 20.682-9.26 20.682-20.682 20.682z"/><path d="m379.848 151.589c11.422 0 42.276-9.259 42.276-20.682s-30.854-20.682-42.276-20.682-20.682 9.259-20.682 20.682 9.26 20.682 20.682 20.682z"/></g><g fill="#ffe07d"><path d="m410.985 182.726c0-11.422 9.259-42.276 20.682-42.276 11.422 0 20.682 30.854 20.682 42.276s-9.259 20.682-20.682 20.682-20.682-9.26-20.682-20.682z"/><path d="m410.985 79.09c0 11.422 9.259 42.276 20.682 42.276 11.422 0 20.682-30.854 20.682-42.276s-9.259-20.682-20.682-20.682-20.682 9.259-20.682 20.682z"/></g><circle cx="431.667" cy="130.908" fill="#e4936b" r="20.288"/></g></g><g><path d="m431.667 271.573s48.253-67.437 64.807-56.316c17.416 11.701 9.041 70.098-64.807 56.316z" fill="#b5e245"/><path d="m431.667 271.573s-48.253-67.437-64.807-56.316c-17.417 11.701-9.042 70.098 64.807 56.316z" fill="#c6e873"/></g></g></g></g><g><g><g><g><g fill="#ffd064"><path d="m278.017 182.173c-8.077-8.077-23.346-36.441-15.269-44.518s36.441 7.193 44.518 15.269c8.077 8.077 8.077 21.172 0 29.248-8.078 8.078-21.173 8.078-29.249.001z"/><path d="m204.735 108.891c8.077 8.077 36.441 23.346 44.518 15.269s-7.193-36.441-15.269-44.518c-8.077-8.077-21.172-8.077-29.248 0-8.078 8.077-8.078 21.172-.001 29.249z"/></g><g fill="#ffd064"><path d="m204.735 152.925c8.077-8.077 36.441-23.346 44.518-15.269s-7.193 36.441-15.269 44.518c-8.077 8.077-21.172 8.077-29.248 0-8.078-8.078-8.078-21.173-.001-29.249z"/><path d="m278.017 79.643c-8.077 8.077-23.346 36.441-15.269 44.518s36.441-7.193 44.518-15.269 8.077-21.172 0-29.248-21.173-8.078-29.249-.001z"/></g><g fill="#ffe07d"><path d="m307.818 151.589c-11.422 0-42.276-9.259-42.276-20.682s30.854-20.682 42.276-20.682 20.682 9.259 20.682 20.682-9.26 20.682-20.682 20.682z"/><path d="m204.182 151.589c11.422 0 42.276-9.259 42.276-20.682s-30.854-20.682-42.276-20.682-20.682 9.259-20.682 20.682 9.26 20.682 20.682 20.682z"/></g><g fill="#ffe07d"><path d="m235.318 182.726c0-11.422 9.259-42.276 20.682-42.276s20.682 30.854 20.682 42.276-9.259 20.682-20.682 20.682-20.682-9.26-20.682-20.682z"/><path d="m235.318 79.09c0 11.422 9.259 42.276 20.682 42.276s20.682-30.854 20.682-42.276-9.26-20.682-20.682-20.682-20.682 9.259-20.682 20.682z"/></g><circle cx="256" cy="130.908" fill="#e4936b" r="20.288"/></g></g><g><path d="m256 271.573s48.253-67.437 64.807-56.316c17.416 11.701 9.042 70.098-64.807 56.316z" fill="#b5e245"/><path d="m256 271.573s-48.253-67.437-64.807-56.316c-17.416 11.701-9.042 70.098 64.807 56.316z" fill="#c6e873"/></g></g></g></g></g><g><path d="m431.807 453.592h-351.614c-12.002 0-22.453-8.194-25.317-19.85l-25.174-102.463h452.596l-25.175 102.464c-2.863 11.655-13.314 19.849-25.316 19.849z" fill="#e2f4ff"/><path d="m416.798 331.279-25.175 102.464c-2.864 11.655-13.315 19.849-25.317 19.849h65.5c12.002 0 22.453-8.194 25.317-19.849l25.175-102.464z" fill="#d1ecf9"/><path d="m486.206 350.195h-460.412c-10.104 0-18.294-8.191-18.294-18.294 0-10.104 8.191-18.294 18.294-18.294h460.411c10.104 0 18.294 8.191 18.294 18.294.001 10.104-8.19 18.294-18.293 18.294z" fill="#365e7d"/><path d="m486.206 313.607h-47.039v18.294c0 10.104-8.191 18.294-18.294 18.294h65.333c10.104 0 18.294-8.191 18.294-18.294 0-10.104-8.191-18.294-18.294-18.294z" fill="#99b7bf"/></g><path d="m486.206 350.195h-460.412c-10.104 0-18.294-8.191-18.294-18.294 0-10.104 8.191-18.294 18.294-18.294h460.411c10.104 0 18.294 8.191 18.294 18.294.001 10.104-8.19 18.294-18.293 18.294z" fill="#4a80aa"/><path d="m486.206 313.607h-47.039v18.294c0 10.104-8.191 18.294-18.294 18.294h65.333c10.104 0 18.294-8.191 18.294-18.294 0-10.104-8.191-18.294-18.294-18.294z" fill="#407093"/></g></g><path d="m486.206 306.107h-47.039v-25.794c11.899 1.434 24.398 1.258 35.988-2.138 3.976-1.165 6.254-5.331 5.089-9.306-1.164-3.974-5.328-6.255-9.306-5.088-7.368 2.159-15.938 2.854-25.59 2.085 6.682-8.592 36.249-45.223 47.013-44.335 4.1 2.854 6.601 13.368 1.393 24.205-1.794 3.733-.223 8.214 3.511 10.008 3.732 1.794 8.215.223 10.009-3.511 7.896-16.428 4.988-35.405-6.617-43.202-6.599-4.433-15.201-3.028-25.57 4.173-12.378 8.597-26.393 24.586-35.919 36.319v-39.636c8.347-2.308 15.154-8.362 18.478-16.238 10.057 4.108 22.217 2.2 30.59-6.173 8.356-8.355 10.287-20.519 6.173-30.591 10.13-4.276 17.259-14.309 17.259-25.978 0-11.668-7.129-21.702-17.259-25.978 4.108-10.057 2.2-22.217-6.172-30.591-8.364-8.363-20.528-10.283-30.591-6.172-4.276-10.13-14.31-17.259-25.978-17.259s-21.702 7.129-25.978 17.259c-10.053-4.107-22.213-2.206-30.592 6.172-8.254 8.254-10.306 20.397-6.159 30.586-10.137 4.272-17.271 14.31-17.271 25.983s7.135 21.71 17.271 25.983c-4.147 10.189-2.094 22.332 6.16 30.586 8.365 8.366 20.529 10.282 30.591 6.173 3.324 7.876 10.131 13.93 18.478 16.238v39.637c-9.535-11.745-23.55-27.729-35.919-36.32-10.37-7.201-18.972-8.604-25.57-4.173-10.897 7.322-14.217 24.828-7.72 40.722 3.254 7.961 10.344 18.875 25.639 25.657 13.524 5.996 28.927 6.677 43.57 4.906v25.792h-160.668v-25.792c14.595 1.766 30.017 1.103 43.57-4.906 15.295-6.782 22.385-17.696 25.639-25.657 6.497-15.894 3.178-33.4-7.72-40.722-6.599-4.433-15.201-3.028-25.57 4.173-12.378 8.597-26.393 24.586-35.919 36.319v-39.636c8.347-2.308 15.154-8.362 18.478-16.238 10.057 4.108 22.217 2.201 30.589-6.172 8.356-8.355 10.287-20.518 6.173-30.59 10.131-4.275 17.26-14.309 17.26-25.978s-7.129-21.703-17.26-25.978c4.108-10.057 2.2-22.217-6.172-30.59-8.364-8.363-20.529-10.283-30.591-6.172-4.276-10.13-14.31-17.259-25.978-17.259-11.673 0-21.71 7.135-25.983 17.272-10.189-4.147-22.332-2.094-30.587 6.16-8.254 8.254-10.306 20.397-6.159 30.586-10.135 4.27-17.27 14.307-17.27 25.98s7.135 21.71 17.271 25.983c-4.147 10.189-2.094 22.332 6.16 30.586 8.265 8.265 20.406 10.302 30.585 6.16 3.322 7.882 10.131 13.942 18.483 16.251v39.636c-9.542-11.753-23.55-27.728-35.919-36.319-10.369-7.201-18.972-8.606-25.57-4.173-10.897 7.322-14.217 24.828-7.72 40.722 3.254 7.961 10.344 18.875 25.639 25.657 13.524 5.996 28.927 6.677 43.57 4.906v25.792h-160.666v-25.792c14.595 1.766 30.017 1.103 43.57-4.906 15.295-6.782 22.385-17.696 25.639-25.657 6.497-15.894 3.178-33.4-7.72-40.722-6.599-4.433-15.201-3.028-25.57 4.173-12.366 8.589-26.379 24.568-35.919 36.32v-39.637c8.351-2.309 15.161-8.369 18.483-16.251 10.179 4.143 22.323 2.103 30.586-6.16 8.253-8.254 10.306-20.395 6.159-30.585 10.137-4.272 17.272-14.31 17.272-25.983s-7.135-21.71-17.271-25.983c4.147-10.189 2.094-22.331-6.16-30.586-8.254-8.254-20.395-10.306-30.585-6.159-4.272-10.137-14.31-17.272-25.983-17.272-11.668 0-21.702 7.128-25.978 17.259-10.057-4.108-22.217-2.201-30.59 6.172-8.356 8.355-10.287 20.518-6.173 30.59-10.13 4.275-17.259 14.309-17.259 25.978s7.129 21.703 17.26 25.978c-4.108 10.057-2.2 22.217 6.172 30.59 8.364 8.363 20.528 10.283 30.59 6.172 3.324 7.876 10.131 13.93 18.478 16.238v39.636c-9.542-11.753-23.55-27.728-35.919-36.319-10.369-7.201-18.972-8.606-25.57-4.173-10.897 7.322-14.217 24.828-7.72 40.722 3.254 7.961 10.344 18.875 25.639 25.657 13.524 5.996 28.927 6.677 43.57 4.906v25.792h-47.04c-14.223 0-25.794 11.571-25.794 25.794s11.571 25.794 25.794 25.794h2.676l19.124 77.836c3.697 15.049 17.103 25.56 32.6 25.56h351.613c15.497 0 28.902-10.511 32.6-25.56l19.124-77.837h2.676c14.223 0 25.794-11.571 25.794-25.794-.001-14.222-11.572-25.793-25.795-25.793zm-54.539-162.411c-7.047 0-12.788-5.755-12.788-12.788 0-7.054 5.761-12.788 12.788-12.788 7.042 0 12.787 5.755 12.787 12.788 0 7.041-5.749 12.788-12.787 12.788zm45.961 33.174c-4.969 4.97-12.96 5.187-18.19.408-1.01-7.719-3.854-17.961-7.796-26.396 8.435 3.942 18.677 6.787 26.396 7.796 4.777 5.231 4.561 13.222-.41 18.192zm5.856-32.781c-5.027 0-16.105-2.496-24.852-6.48.534-2.148.822-4.391.822-6.702s-.288-4.554-.822-6.702c9.239-4.208 20.252-6.48 24.852-6.48 7.269 0 13.182 5.913 13.182 13.182s-5.913 13.182-13.182 13.182zm-5.855-59.143c4.931 4.931 5.221 12.916.408 18.191-7.719 1.009-17.961 3.853-26.396 7.796 3.943-8.435 6.787-18.676 7.796-26.396 5.231-4.778 13.221-4.562 18.192.409zm-45.962-19.038c7.269 0 13.182 5.913 13.182 13.182 0 5.027-2.496 16.104-6.479 24.852-2.148-.534-4.392-.822-6.702-.822-2.311 0-4.555.288-6.703.822-3.983-8.747-6.479-19.825-6.479-24.852-.001-7.269 5.912-13.182 13.181-13.182zm-45.963 19.038c4.961-4.961 12.95-5.196 18.192-.408 1.01 7.719 3.854 17.96 7.796 26.394-8.434-3.942-18.674-6.786-26.394-7.796-4.714-5.165-4.588-13.195.406-18.19zm-5.855 32.78c4.599 0 15.635 2.282 24.853 6.479-.534 2.148-.822 4.392-.822 6.703s.288 4.555.822 6.703c-8.748 3.983-19.825 6.479-24.853 6.479-7.269 0-13.182-5.913-13.182-13.182s5.913-13.182 13.182-13.182zm5.856 59.144c-4.996-4.996-5.121-13.028-.407-18.192 7.719-1.01 17.96-3.853 26.394-7.796-3.942 8.434-6.786 18.675-7.796 26.395-5.23 4.78-13.222 4.562-18.191-.407zm32.78 5.856c0-5.027 2.495-16.105 6.479-24.853 2.148.534 4.392.822 6.703.822s4.554-.288 6.702-.822c3.983 8.748 6.479 19.826 6.479 24.852 0 7.269-5.913 13.182-13.182 13.182s-13.181-5.912-13.181-13.181zm-49.642 61.351c-3.188-7.8-3.088-18.941 2.129-22.546 10.775-.882 40.348 35.767 46.991 44.307-24.664 1.86-42.644-5.916-49.12-21.761zm-52.148-22.547c5.218 3.604 5.318 14.746 2.129 22.546-6.478 15.847-24.442 23.625-49.122 21.761 6.679-8.587 36.168-45.129 46.993-44.307zm-60.695-77.834c-7.054 0-12.788-5.761-12.788-12.788 0-7.04 5.748-12.788 12.788-12.788 7.071 0 12.788 5.779 12.788 12.788 0 7.053-5.761 12.788-12.788 12.788zm45.961 33.174c-4.969 4.97-12.96 5.187-18.19.408-1.01-7.719-3.854-17.961-7.796-26.396 8.434 3.942 18.676 6.786 26.396 7.796 4.777 5.231 4.561 13.222-.41 18.192zm5.857-32.781c-5.027 0-16.105-2.496-24.852-6.479.534-2.148.822-4.392.822-6.702s-.288-4.555-.822-6.702c9.239-4.207 20.252-6.479 24.852-6.479 7.269 0 13.182 5.913 13.182 13.182s-5.913 13.18-13.182 13.18zm-5.856-59.143c4.931 4.931 5.221 12.917.408 18.191-7.719 1.009-17.96 3.853-26.394 7.795 3.942-8.435 6.786-18.676 7.795-26.395 5.231-4.777 13.22-4.562 18.191.409zm-45.962-19.038c7.269 0 13.182 5.913 13.182 13.182 0 5.026-2.495 16.104-6.479 24.852-2.148-.534-4.392-.822-6.703-.822s-4.555.288-6.703.822c-3.984-8.748-6.479-19.826-6.479-24.852 0-7.269 5.913-13.182 13.182-13.182zm-45.963 19.038c4.998-4.995 13.028-5.121 18.192-.408 1.009 7.719 3.853 17.96 7.795 26.395-8.434-3.942-18.674-6.786-26.393-7.795-4.714-5.167-4.588-13.197.406-18.192zm-5.855 32.78c4.595 0 15.634 2.281 24.853 6.479-.534 2.148-.822 4.392-.822 6.703s.288 4.555.822 6.703c-8.748 3.983-19.825 6.479-24.853 6.479-7.269 0-13.182-5.913-13.182-13.182s5.913-13.182 13.182-13.182zm5.856 59.144c-4.996-4.996-5.121-13.028-.407-18.192 7.719-1.01 17.959-3.853 26.394-7.795-3.942 8.434-6.786 18.675-7.795 26.394-5.167 4.712-13.197 4.588-18.192-.407zm32.78 5.856c0-5.026 2.495-16.104 6.479-24.853 2.148.534 4.392.822 6.703.822s4.554-.288 6.702-.822c3.983 8.748 6.479 19.826 6.479 24.852 0 7.269-5.913 13.182-13.182 13.182s-13.181-5.912-13.181-13.181zm-49.642 61.351c-3.189-7.801-3.089-18.942 2.129-22.546 10.835-.789 40.206 35.583 46.991 44.307-24.664 1.86-42.644-5.916-49.12-21.761zm-52.148-22.547c5.218 3.604 5.318 14.746 2.129 22.546-6.477 15.847-24.449 23.625-49.12 21.761 7.15-9.193 36.49-45.279 46.991-44.307zm-60.695-77.834c-7.019 0-12.788-5.73-12.788-12.788 0-7.018 5.728-12.788 12.788-12.788 7.019 0 12.788 5.727 12.788 12.788s-5.77 12.788-12.788 12.788zm45.963 33.173c-4.995 4.994-13.026 5.122-18.193.407-1.01-7.72-3.853-17.96-7.795-26.394 8.434 3.942 18.674 6.786 26.394 7.796 4.714 5.166 4.588 13.197-.406 18.191zm5.855-32.78c-5.027 0-16.105-2.496-24.853-6.479.534-2.148.822-4.392.822-6.703s-.288-4.555-.822-6.703c7.972-3.63 17.865-6.019 23.365-6.415l.069-.006c.51-.035.991-.058 1.418-.058 7.269 0 13.182 5.913 13.182 13.182s-5.912 13.182-13.181 13.182zm-5.856-59.143c4.995 4.995 5.121 13.026.407 18.192-7.719 1.01-17.96 3.854-26.394 7.796 3.942-8.434 6.786-18.675 7.796-26.394 5.165-4.714 13.195-4.59 18.191.406zm-45.962-19.038c7.269 0 13.182 5.913 13.182 13.182 0 5.027-2.495 16.105-6.479 24.852-2.148-.534-4.392-.822-6.703-.822s-4.554.288-6.702.822c-3.983-8.747-6.479-19.825-6.479-24.852-.001-7.269 5.912-13.182 13.181-13.182zm-45.961 19.038c4.967-4.968 12.96-5.188 18.19-.41 1.009 7.719 3.854 17.962 7.796 26.397-8.434-3.942-18.676-6.786-26.396-7.796-4.777-5.23-4.561-13.221.41-18.191zm-5.857 32.78c4.6 0 15.635 2.282 24.852 6.479-.534 2.148-.822 4.392-.822 6.702s.288 4.555.822 6.702c-8.747 3.983-19.825 6.479-24.852 6.479-7.269 0-13.182-5.913-13.182-13.182s5.913-13.18 13.182-13.18zm5.856 59.143c-4.971-4.971-5.185-12.96-.407-18.191 7.72-1.01 17.961-3.854 26.395-7.796-3.943 8.435-6.787 18.677-7.796 26.396-5.232 4.778-13.221 4.562-18.192-.409zm32.78 5.857c0-5.027 2.496-16.105 6.479-24.852 2.148.534 4.392.822 6.702.822 2.311 0 4.555-.288 6.703-.822 3.983 8.747 6.479 19.825 6.479 24.853 0 7.269-5.913 13.182-13.182 13.182s-13.181-5.914-13.181-13.183zm-49.642 61.351c-3.189-7.801-3.089-18.942 2.129-22.546 10.835-.789 40.206 35.583 46.991 44.307-24.664 1.86-42.644-5.916-49.12-21.761zm468.697 98.618h-298.88c-4.143 0-7.5 3.358-7.5 7.5s3.357 7.5 7.5 7.5h280.759l-18.245 74.258c-2.045 8.324-9.461 14.138-18.033 14.138h-351.614c-8.572 0-15.988-5.814-18.033-14.139l-18.245-74.258h108.347c4.143 0 7.5-3.358 7.5-7.5s-3.357-7.5-7.5-7.5h-126.468c-5.952 0-10.794-4.842-10.794-10.794s4.842-10.794 10.794-10.794h460.412c5.952 0 10.794 4.842 10.794 10.794 0 5.953-4.842 10.795-10.794 10.795z"/></g></svg>