<svg id="Capa_1" enable-background="new 0 0 512 512" height="512" viewBox="0 0 512 512" width="512" xmlns="http://www.w3.org/2000/svg"><g><g><g><g><g><path d="m374.585 129.375.005-18.811c.049-56.906-46.068-103.064-102.974-103.064h-31.231c-56.906 0-103.024 46.158-102.974 103.064l.027 104.65c.017 65.469 53.094 118.533 118.563 118.533 68.294 0 101.978-.411 118.59-1.204v-203.168z" fill="#e4936b"/></g><path d="m309.257 333.632c33.958-.172 53.781-.539 65.333-1.091v-203.166h-.005-65.328z" fill="#dd6938"/><g><g><g><g><path d="m285.451 355.381 44.962-42.231-17.851-3.316c-8.616-1.732-14.815-11.726-14.815-20.515v-79.458h-83.495v79.458c0 8.788-6.199 18.783-14.815 20.515l-17.851 3.316 44.962 42.231c16.556 15.55 42.348 15.55 58.903 0z" fill="#ffddce"/><g><g><g><g><g><path d="" fill="#ebebeb"/></g></g></g></g></g></g></g></g></g><g><g><g><g><g><g><g><path d="m171.969 129.374h-18.288c-8.987 0-16.272 7.285-16.272 16.272v19.235c0 8.994 7.291 16.284 16.284 16.284h18.275v-51.791z" fill="#ffcbbe"/></g></g></g></g></g></g></g><path d="m340.031 129.374h18.288c8.987 0 16.272 7.285 16.272 16.272v19.235c0 8.994-7.291 16.284-16.284 16.284h-18.275v-51.791z" fill="#ffcbbe"/><g><path d="m184.209 111.96c-9.114 0-16.49 7.41-16.449 16.524l.208 45.929c0 58.523 61.435 91.207 88.032 91.776 26.597-.569 88.032-33.252 88.032-91.776l.283-113.049h-129.205v19.694c0 17.067-13.835 30.902-30.901 30.902z" fill="#ffddce"/></g><path d="m309.193 61.365-.219 113.049c0 47.806-40.991 78.365-70.503 88.266 6.616 2.22 12.658 3.406 17.529 3.51 26.597-.569 88.032-33.253 88.032-91.776l.283-113.049z" fill="#ffcbbe"/><path d="m374.585 129.374.005-18.811c.049-56.905-46.068-103.063-102.974-103.063h-31.231c-.113 0-.226 0-.339.001-17.757.057-32.022 14.704-32.022 32.461v.509c0 49.1 39.803 88.903 88.903 88.903z" fill="#e4936b"/><path d="m271.616 7.5h-31.231c-.113 0-.226 0-.339.001-4.196.013-8.193.851-11.858 2.342 46.378 10.048 81.112 51.333 81.069 100.721l-.005 18.811h65.333l.005-18.811c.049-56.906-46.068-103.064-102.974-103.064z" fill="#dd6938"/></g><g><path d="m394.725 317.974-80.717-14.227c-3.424-.604-6.933.438-9.474 2.812l-48.534 45.353-48.535-45.354c-2.541-2.374-6.05-3.416-9.474-2.812l-80.717 14.227c-35.809 10.703-60.395 44.068-60.395 81.961v86.613c0 9.914 7.917 17.951 17.684 17.951h362.873c9.767 0 17.684-8.037 17.684-17.951v-86.613c.001-37.891-24.586-71.257-60.395-81.96z" fill="#f2f9ff"/><g fill="#d1ecf9"><path d="m138.266 311.662v127.842h35.436v-131.616c0-4.42-3.925-7.772-8.215-7.016l-21.406 3.773c-3.361.593-5.815 3.554-5.815 7.017z"/><path d="m338.298 307.888v131.615h35.436v-127.841c0-3.463-2.454-6.424-5.815-7.016l-21.406-3.773c-4.29-.757-8.215 2.595-8.215 7.015z"/></g><path d="m360.835 400.03h-209.356c-6.865 0-12.901 4.727-14.349 11.437-1.407 6.519-4.539 14.901-11.486 22.611-8.119 9.011-12.621 20.78-12.621 32.992v37.43h285.954v-37.431c0-12.211-4.502-23.981-12.621-32.992-6.738-7.478-9.884-15.94-11.35-22.557-1.482-6.683-7.325-11.49-14.171-11.49z" fill="#afe2f7"/><path d="m386.356 434.078c-6.738-7.478-9.884-15.94-11.35-22.557-1.481-6.683-7.325-11.491-14.17-11.491h-65.328c6.845 0 12.689 4.807 14.17 11.491 1.466 6.617 4.613 15.079 11.35 22.557 8.119 9.011 12.621 20.78 12.621 32.992v37.43h65.328v-37.43c0-12.212-4.502-23.981-12.621-32.992z" fill="#8fd6f7"/><g fill="#e2f4ff"><path d="m256 351.912 23.604 5.758c13.741 3.352 28.077-2.412 35.83-14.407l22.864-35.376-24.316-4.172c-3.41-.585-6.897.459-9.424 2.821z"/><path d="m256 351.912-23.604 5.758c-13.741 3.352-28.077-2.412-35.83-14.407l-22.864-35.376 24.316-4.172c3.41-.585 6.897.459 9.424 2.821z"/></g></g></g><g><circle cx="338.298" cy="432.893" r="7.606"/></g><circle cx="173.702" cy="432.893" r="7.606"/></g><path d="m396.873 310.789c-.772-.231-.368-.099-14.783-2.657v-197.562c.052-61.093-49.371-110.57-110.474-110.57h-31.231l-.363.001c-.085 0-.169.007-.254.007-31.466.176-61.419 13.788-82.262 37.419-2.74 3.106-2.443 7.846.664 10.586 3.107 2.739 7.847 2.443 10.585-.664 9.982-11.318 22.385-19.971 36.084-25.47-2.752 5.436-4.315 11.579-4.315 18.082v.509c0 12.822 2.523 25.065 7.087 36.266v4.322c0 12.903-10.498 23.401-23.402 23.401-11.119 0-20.253 7.509-23.046 17.414h-7.481c-3.096 0-6.053.601-8.768 1.683l-.003-13c-.011-12.269 2.271-24.211 6.781-35.495 1.537-3.846-.334-8.21-4.181-9.747-3.849-1.54-8.211.334-9.748 4.181-5.223 13.066-7.864 26.886-7.852 41.07 0 17.755-.015 16.742.027 104.65.007 29.25 10.05 57.1 28.124 79.35l-15.283 2.694c-5.69 1.003-10.101 5.236-11.523 10.635-15.828 2.807-15.351 2.662-16.128 2.894-39.024 11.663-65.748 47.889-65.748 89.146v86.613c0 14.034 11.297 25.451 25.184 25.451h362.873c13.887 0 25.184-11.417 25.184-25.451v-86.613c0-41.216-26.687-77.471-65.748-89.145zm-181.35-270.827c0-13.661 10.918-24.816 24.413-24.956.15-.001.299-.006.448-.006h31.231c52.795 0 95.52 42.746 95.474 95.562l-.003 11.312c-9.743 0-54.831 0-70.161 0-44.886 0-81.403-36.518-81.403-81.403v-.509zm79.423 265.292-38.946 36.394-38.947-36.395c2.982-4.787 4.7-10.431 4.7-15.934v-25.502c13.087 6.506 25.402 9.684 34.087 9.87.054.001.107.002.161.002s.107-.001.161-.002c8.685-.186 21-3.364 34.087-9.87v25.502c-.001 5.503 1.715 11.148 4.697 15.935zm14.673 6.818.19-.151c.799-.679 1.866-.986 2.906-.813l13.118 2.251-16.697 25.833c-5.998 9.28-17.152 13.778-27.753 11.192l-10.12-2.469zm-68.881 35.844-10.12 2.469c-10.601 2.585-21.755-1.91-27.753-11.192l-16.697-25.833 13.118-2.251c1.075-.18 2.189.148 2.996.879l.045.034c.001.001.003.002.004.003zm-50.47-.581c9.512 14.717 27.198 21.7 43.906 17.622l21.826-5.325 21.826 5.325c16.76 4.09 34.423-2.95 43.906-17.622l9.065-14.026v59.221h-149.595v-59.221zm124.982-51.01c-2.656-.457-5.361-.307-7.921.377-1.294-2.307-2.082-4.972-2.082-7.383v-34.336c3.211-2.198 6.406-4.574 9.542-7.185 19.57-16.296 31.869-36.913 35.561-59.132h7.956c3.102 0 6.064-.603 8.784-1.688v109.906l-19.275-3.399c-4.209-.738-8.508.414-11.792 3.169-.982.824-1.822 1.773-2.544 2.798zm43.056-122.659h-6.772l.092-36.792h6.692c4.836 0 8.771 3.936 8.771 8.772v19.235c.001 4.845-3.94 8.785-8.783 8.785zm-174.098-54.206c15.408 0 28.718-9.126 34.829-22.253 17.549 24.026 45.924 39.667 77.888 39.667h39.7l-.094 37.539c0 32.247-20.713 56.002-42.32 69.93-1.406.753-21.651 13.898-38.213 14.345-15.175-.409-30.583-10.244-38.2-14.338-21.611-13.93-42.332-37.696-42.332-69.97-.021-4.69-.184-40.518-.208-45.929-.021-4.963 3.987-8.991 8.95-8.991zm-39.289 26.009c.095-4.755 3.986-8.595 8.763-8.595h6.616l.167 36.792h-6.77c-4.75 0-8.622-3.792-8.77-8.507zm.018 69.743-.007-28.227c2.714 1.08 5.67 1.681 8.765 1.681h7.958c3.694 22.226 15.992 42.838 35.559 59.132 3.135 2.611 6.33 4.987 9.542 7.185v34.336c0 2.412-.788 5.078-2.083 7.385-2.56-.684-5.264-.835-7.92-.38l-13.937 2.391c-24.107-21.123-37.869-51.355-37.877-83.503zm.829 96.752 20.437-3.603v84.169h-14.723c-1.963 0-3.88.262-5.713.752v-81.318zm-40.243 155.105v29.931h-30.96c-5.616 0-10.184-4.688-10.184-10.451v-86.613c0-34.667 22.39-64.824 54.636-74.652l11.75-2.071v83.489c-.396 1.027-.73 2.085-.967 3.184-1.577 7.31-4.85 13.76-9.726 19.173-9.382 10.412-14.549 23.911-14.549 38.01zm285.954 29.931h-270.954v-29.931c0-10.384 3.798-20.317 10.694-27.971 6.652-7.384 11.108-16.148 13.244-26.05.69-3.197 3.642-5.519 7.018-5.519h209.356c3.299 0 6.115 2.308 6.848 5.613 2.194 9.902 6.725 18.878 13.101 25.955 6.896 7.653 10.693 17.587 10.693 27.971zm56.144-10.451c0 5.763-4.568 10.451-10.184 10.451h-30.959v-29.931c0-14.1-5.167-27.599-14.549-38.012-4.712-5.229-7.941-11.676-9.6-19.159-.271-1.224-.642-2.401-1.093-3.53v-29.846c0-4.143-3.358-7.5-7.5-7.5s-7.5 3.357-7.5 7.5v16.68c-1.732-.435-3.539-.672-5.399-.672h-15.038v-84.169l20.437 3.603v29.529c0 4.143 3.358 7.5 7.5 7.5s7.5-3.357 7.5-7.5v-18.281l11.75 2.071c32.249 9.829 54.636 39.988 54.636 74.652v86.614z"/></g></svg>