<svg id="Capa_1" enable-background="new 0 0 512 512" height="512" viewBox="0 0 512 512" width="512" xmlns="http://www.w3.org/2000/svg"><g><g><g><g><path d="m338.046 48.659h-44.886v-36.67h44.886c2.648 0 4.795 2.147 4.795 4.795v27.08c0 2.648-2.146 4.795-4.795 4.795z" fill="#eaaadd"/><path d="m307.383 7.5h-130.239c-3.832 0-7.428 1.854-9.65 4.976l-23.14 32.506c-3.527 4.955-2.729 11.775 1.847 15.782l19.972 17.488c2.569 2.249 4.042 5.498 4.042 8.912v70.427c0 .65.527 1.176 1.176 1.176h59.855c.65 0 1.176-.527 1.176-1.176v-54.634c0-8.313 4.381-16.01 11.528-20.254l43.701-25.952c3.64-2.162 7.795-3.302 12.028-3.302h7.703c3.914 0 7.087-3.173 7.087-7.087v-31.775c.002-3.914-3.171-7.087-7.086-7.087z" fill="#df73c1"/></g></g><path d="m244.603 145.409v-35.363c0-3.95-3.202-7.152-7.152-7.152h-69.433c-3.95 0-7.152 3.202-7.152 7.152v35.363z" fill="#eaaadd"/><path d="m237.451 102.893h-53.937c3.95 0 7.152 3.202 7.152 7.152v35.363h53.937v-35.363c0-3.95-3.202-7.152-7.152-7.152z" fill="#e490d0"/><path d="m322.907 253.254c-35.866-31.458-58.088-59.833-62.486-104.674-.652-6.651-6.2-11.746-12.883-11.746h-84.429c-7.812 0-14.622 5.318-16.514 12.897l-4.305 17.238c-10.953 43.856-16.491 88.888-16.491 134.091v174.97c0 15.724 12.747 28.47 28.47 28.47h203.464c15.724 0 28.47-12.747 28.47-28.47v-83.066c-.001-53.511-23.067-104.425-63.296-139.71z" fill="#f2f9ff"/><path d="m322.907 253.254c-35.866-31.458-58.088-59.833-62.486-104.674-.652-6.651-6.2-11.746-12.883-11.746h-65.333c6.683 0 12.231 5.095 12.883 11.746 4.398 44.841 26.62 73.216 62.486 104.674 40.229 35.285 63.295 86.199 63.295 139.71v83.066c0 15.724-12.747 28.47-28.47 28.47h65.333c15.724 0 28.47-12.747 28.47-28.47v-83.066c0-53.511-23.066-104.425-63.295-139.71z" fill="#e2f4ff"/><path d="m217.494 338.885v98.824c0 10.43 8.455 18.885 18.885 18.885h149.823v-63.63c0-25.369-5.193-50.151-14.933-72.964h-134.89c-10.43 0-18.885 8.455-18.885 18.885z" fill="#c6e873"/><path d="m386.202 456.594v-63.63c0-25.369-5.193-50.151-14.933-72.964h-65.333c9.74 22.813 14.933 47.595 14.933 72.964v63.63z" fill="#b5e245"/></g><path d="m386.202 405.269c4.143 0 7.5-3.358 7.5-7.5v-4.805c0-26.357-5.389-52.109-15.499-75.819-.023-.056-.048-.111-.073-.167-11.241-26.297-28.292-50.077-50.279-69.362-33.896-29.731-55.751-56.791-59.967-99.768-.881-8.986-7.359-16.07-15.781-17.985v-19.818c0-6.662-4.473-12.289-10.571-14.062 1.354-2.801 3.507-5.205 6.249-6.833l13.131-7.798c10.664 14.405 25.158 25.595 42.177 32.287 3.854 1.515 8.208-.381 9.724-4.235 1.516-3.855-.38-8.208-4.235-9.725-13.883-5.459-25.77-14.468-34.683-26.037l17.588-10.445c2.479-1.472 5.313-2.25 8.198-2.25h7.702c4.27 0 8.104-1.855 10.774-4.788h19.889c6.779 0 12.295-5.516 12.295-12.295v-27.08c0-6.779-5.516-12.295-12.295-12.295h-20.16c-2.656-2.761-6.378-4.489-10.503-4.489h-130.238c-6.246 0-12.138 3.038-15.761 8.126l-23.139 32.506c-5.784 8.125-4.488 19.205 3.016 25.774l19.972 17.487c.942.826 1.483 2.018 1.483 3.27v9.238c-5.463 2.131-9.35 7.436-9.35 13.644v21.306c-6.843 2.959-12.15 8.96-14.049 16.562l-2.995 11.993c-1.004 4.019 1.44 8.09 5.459 9.094 4.021 1.003 8.091-1.44 9.094-5.459l2.995-11.993c1.068-4.276 4.897-7.215 9.238-7.215h84.43c2.811 0 5.141 2.14 5.419 4.979 4.697 47.893 28.355 77.436 65.004 109.581 17.347 15.215 31.356 33.467 41.539 53.607h-123.121c-14.549 0-26.385 11.836-26.385 26.385v98.824c0 14.549 11.836 26.385 26.385 26.385h142.323v11.936c0 11.563-9.407 20.97-20.971 20.97h-203.462c-11.563 0-20.971-9.407-20.971-20.97v-174.97c0-34.712 3.343-69.593 9.935-103.675.787-4.067-1.872-8.001-5.939-8.788-4.067-.785-8.001 1.874-8.787 5.939-6.773 35.019-10.208 70.858-10.208 106.524v174.97c0 19.834 16.137 35.97 35.971 35.97h203.463c19.834 0 35.971-16.136 35.971-35.97v-43.198c0-4.142-3.357-7.5-7.5-7.5s-7.5 3.358-7.5 7.5v16.262h-142.325c-6.277 0-11.385-5.107-11.385-11.385v-98.824c0-6.277 5.107-11.385 11.385-11.385h129.864c8.139 20.621 12.459 42.799 12.459 65.464v4.805c0 4.142 3.358 7.5 7.5 7.5zm-64.231-385.78h13.37v21.67h-13.37zm-84.867 109.844h-68.737v-18.94h64.038.021 4.679v18.94zm-11.221-33.94h-48.167v-8.23c0-5.575-2.406-10.88-6.602-14.555l-19.973-17.488c-1.686-1.475-1.977-3.964-.677-5.789l23.139-32.506c.814-1.143 2.138-1.826 3.541-1.826h129.826v30.947h-7.29c-5.579 0-11.062 1.505-15.857 4.354l-43.702 25.953c-7.153 4.249-12.232 11.226-14.238 19.14z"/></g></svg>