<svg id="Capa_1" enable-background="new 0 0 512 512" height="512" viewBox="0 0 512 512" width="512" xmlns="http://www.w3.org/2000/svg"><g><g><g><g><g><g><g><path d="m337.33 477.652h-222.524c-13.476 0-24.857-10.003-26.587-23.367l-43.42-335.488h362.538l-43.42 335.488c-1.73 13.364-13.111 23.367-26.587 23.367z" fill="#c6e873"/><path d="m341.67 118.797-43.42 335.488c-1.73 13.364-13.111 23.367-26.587 23.367h65.667c13.476 0 24.857-10.003 26.587-23.367l43.42-335.488z" fill="#b5e245"/><path d="m422.545 138.436h-392.954c-12.201 0-22.091-9.891-22.091-22.091 0-12.201 9.891-22.091 22.091-22.091h392.953c12.201 0 22.091 9.891 22.091 22.091.001 12.2-9.89 22.091-22.09 22.091z" fill="#4a80aa"/><path d="m422.545 94.253h-65.443c12.201 0 22.091 9.891 22.091 22.091 0 12.201-9.891 22.091-22.091 22.091h65.443c12.201 0 22.091-9.891 22.091-22.091 0-12.2-9.891-22.091-22.091-22.091z" fill="#407093"/></g></g></g></g><g><g><g><g><path d="m227.879 235.497c-.877-1.264-2.746-1.264-3.623 0-8.764 12.638-44.498 70.086 1.736 107.111h.15c46.236-37.025 10.502-94.474 1.737-107.111z" fill="#e2f4ff"/></g></g></g><g><g><g><path d="m294.218 277.958c.239-1.321-.914-2.474-2.235-2.235-13.201 2.389-70.677 15.783-64.996 67.138l.093.093c51.355 5.681 64.748-51.795 67.138-64.996z" fill="#f2f9ff"/></g></g><g><g><path d="m157.918 277.958c-.239-1.321.914-2.474 2.235-2.235 13.201 2.389 70.677 15.783 64.996 67.138l-.093.093c-51.355 5.681-64.748-51.795-67.138-64.996z" fill="#f2f9ff"/></g></g></g></g></g><g><g><g><g><path d="m441.693 477.652h-57.161c-8.413 0-15.234-6.82-15.234-15.234v-46.418h87.628v46.418c0 8.414-6.82 15.234-15.233 15.234z" fill="#4a80aa"/><path d="m450.166 427.254c3.144-24.298 13.78-47.143 30.472-65.436 14.822-16.243 23.862-37.852 23.862-61.575 0-50.697-41.281-91.752-92.064-91.385-50.163.363-90.934 41.636-90.711 91.8.105 23.629 9.179 45.139 23.992 61.303 16.687 18.21 27.23 41.043 30.348 65.293z" fill="#ffe07d"/><path d="m412.436 208.858c-11.229.081-21.985 2.218-31.919 6.04 34.3 13.166 58.649 46.41 58.649 85.345 0 23.723-9.04 45.332-23.862 61.575-16.693 18.293-27.328 41.138-30.472 65.436h65.333c3.144-24.298 13.78-47.143 30.472-65.436 14.822-16.243 23.862-37.852 23.862-61.575.001-50.697-41.28-91.752-92.063-91.385z" fill="#ffd064"/></g></g><g><path d="m457.178 451.298h-88.131c-4.968 0-8.995-4.027-8.995-8.995v-35.688c0-4.968 4.027-8.995 8.995-8.995h88.131c4.968 0 8.995 4.027 8.995 8.995v35.688c0 4.968-4.027 8.995-8.995 8.995z" fill="#f2f9ff"/></g><path d="m457.178 397.621h-62.475c3.496 0 6.33 2.834 6.33 6.33v41.017c0 3.496-2.834 6.33-6.33 6.33h62.475c4.968 0 8.995-4.027 8.995-8.995v-35.688c0-4.967-4.027-8.994-8.995-8.994z" fill="#e2f4ff"/></g></g></g><g><path d="m512 300.243c0-20.864-6.422-40.817-18.571-57.7-2.419-3.362-7.106-4.126-10.469-1.708-3.362 2.419-4.126 7.106-1.707 10.469 10.302 14.316 15.747 31.238 15.747 48.939 0 20.97-7.778 41.042-21.902 56.52-9.078 9.948-16.46 21.154-22.008 33.358h-14.89v-25.937c0-2.719.767-5.449 2.218-7.893l21.975-37.017c2.754-4.64.04-11.939-6.449-11.939-6.452 0-10.027 3.224-12.163 5.15-1.429 1.289-1.455 1.289-2.116 1.289s-.687 0-2.116-1.289c-7.681-6.928-16.615-6.956-24.324 0-1.986 1.791-2.237 1.797-4.229 0-7.65-6.9-16.582-6.983-24.324 0-1.983 1.789-2.235 1.799-4.229 0-2.136-1.926-5.71-5.151-12.162-5.151-6.4 0-9.239 7.24-6.449 11.939l21.974 37.017c1.451 2.444 2.218 5.174 2.218 7.893v25.937h-14.841c-5.53-12.191-12.888-23.353-21.938-33.227-14.107-15.395-21.928-35.378-22.021-56.27-.205-46.131 37.148-83.933 83.265-84.267 16.015-.085 31.559 4.277 45.034 12.704 3.513 2.196 8.139 1.13 10.335-2.382s1.129-8.14-2.382-10.335c-15.896-9.94-34.288-15.101-53.095-14.986-2.769.02-5.51.161-8.221.405l7.225-55.827h11.158c16.317 0 29.591-13.274 29.591-29.591s-13.274-29.591-29.591-29.591h-125.47v-26.27c0-18.546-15.089-33.635-33.635-33.635h-74.743c-18.547 0-33.636 15.089-33.636 33.635v26.27h-125.468c-16.317 0-29.591 13.275-29.591 29.592s13.274 29.591 29.591 29.591h11.158l40.032 309.312c2.207 17.048 16.834 29.904 34.025 29.904h222.525c10.696 0 20.397-4.979 26.734-12.846 3.684 7.596 11.474 12.846 20.467 12.846h57.161c12.535 0 22.733-10.198 22.733-22.733v-5.321c5.466-2.69 9.247-8.301 9.247-14.794v-35.688c0-5.035-2.273-9.543-5.841-12.571 4.764-9.889 10.901-19.013 18.346-27.172 16.652-18.247 25.822-41.91 25.822-66.63zm-341.939-239.76c0-10.275 8.36-18.635 18.636-18.635h74.743c10.275 0 18.635 8.36 18.635 18.635v26.27h-112.014zm182.491 346.133v35.688c0 4.084 1.5 7.818 3.968 10.702l-.041.316c-1.242 9.594-9.474 16.83-19.148 16.83h-222.525c-9.675 0-17.907-7.235-19.149-16.83l-39.783-307.386h23.273c4.142 0 7.5-3.358 7.5-7.5s-3.358-7.5-7.5-7.5h-49.556c-8.045 0-14.591-6.546-14.591-14.591s6.546-14.591 14.591-14.591h392.953c8.045 0 14.591 6.546 14.591 14.591s-6.546 14.591-14.591 14.591h-308.335c-4.142 0-7.5 3.358-7.5 7.5s3.358 7.5 7.5 7.5h282.052l-7.569 58.481c-42.906 10.954-74.672 50.066-74.467 96.274.11 24.628 9.33 48.187 25.962 66.337 7.399 8.074 13.501 17.136 18.24 26.984-3.587 3.029-5.875 7.552-5.875 12.604zm34.28-77.983c5.043-.641 8.017-3.323 9.888-5.01 1.643-1.482 1.989-2.02 4.228 0 7.666 6.914 16.598 6.97 24.324 0 1.983-1.788 2.236-1.799 4.23 0 1.871 1.687 4.846 4.37 9.89 5.01l-11.873 20.001c-2.825 4.761-4.319 10.138-4.319 15.55v25.937h-20.175v-25.937c0-5.413-1.494-10.79-4.32-15.55zm62.594 133.785c0 4.264-3.469 7.733-7.733 7.733h-57.161c-4.264 0-7.733-3.469-7.733-7.733v-3.62h72.627zm9.247-20.114c0 .824-.67 1.495-1.495 1.495h-88.131c-.803 0-1.495-.659-1.495-1.495v-35.688c0-.796.628-1.443 1.413-1.486.013-.001.026-.003.039-.004.014 0 .028-.004.042-.004h88.131c.824 0 1.495.67 1.495 1.495v35.687z"/><path d="m290.647 268.343c-6.242 1.129-20.885 4.404-35.266 12.111-4.082-22.325-15.837-41.298-21.339-49.232-3.851-5.553-12.087-5.57-15.949 0-5.502 7.934-17.257 26.908-21.339 49.232-14.381-7.707-29.024-10.982-35.267-12.111-6.448-1.17-12.122 4.471-10.948 10.952 1.317 7.279 5.545 25.976 16.32 42.362 3.611 5.491 7.631 10.225 12.02 14.19h-18.518c-4.142 0-7.5 3.358-7.5 7.5s3.358 7.5 7.5 7.5h131.413c4.142 0 7.5-3.358 7.5-7.5s-3.358-7.5-7.5-7.5h-18.518c4.39-3.966 8.41-8.699 12.021-14.19 10.775-16.387 15.003-35.085 16.32-42.363 0 0 0-.001 0-.002 1.168-6.456-4.474-12.118-10.95-10.949zm-111.255 45.073c-6.412-9.75-10.148-20.585-12.224-28.443 7.858 2.075 18.692 5.812 28.443 12.224 14.843 9.76 22.365 22.739 22.423 38.642-15.902-.058-28.883-7.581-38.642-22.423zm31.222-23.78c1.624-17.32 9.772-33.593 15.453-43.088 5.682 9.495 13.83 25.767 15.454 43.088-6.581 5.398-11.748 11.523-15.453 18.283-3.706-6.76-8.873-12.885-15.454-18.283zm62.13 23.78c-9.761 14.844-22.738 22.367-38.642 22.423.057-15.903 7.58-28.882 22.423-38.642 9.75-6.412 20.585-10.149 28.443-12.224-2.076 7.858-5.813 18.694-12.224 28.443z"/></g></g></svg>