<svg id="Capa_1" enable-background="new 0 0 512 512" height="512" viewBox="0 0 512 512" width="512" xmlns="http://www.w3.org/2000/svg"><g><g><g><path d="m28.057 484.843v-136.329c0-60.884 23.709-118.123 66.761-161.174 43.051-43.051 100.291-66.761 161.174-66.761s118.123 23.709 161.174 66.761c43.052 43.051 66.761 100.291 66.761 161.174v136.329z" fill="#e27d47"/><path d="m452.715 480.505h-393.445v-133.082c0-108.647 88.075-196.722 196.722-196.722 108.647 0 196.722 88.075 196.722 196.722v133.082z" fill="#d1ecf9"/><path d="m255.993 150.701c-11.148 0-22.075.942-32.717 2.724 93.072 15.582 164.006 96.5 164.006 193.998v133.082h65.433v-133.082c0-108.647-88.076-196.722-196.722-196.722z" fill="#afe2f7"/><path d="m192.449 292.423h127.088v188.082h-127.088z" fill="#f2f9ff"/><path d="m254.103 292.423h65.433v188.082h-65.433z" fill="#e2f4ff"/><path d="m188.96 305.715h133.73c7.095 0 12.847-5.752 12.847-12.847 0-7.095-5.752-12.847-12.847-12.847h-133.73c-7.095 0-12.847 5.752-12.847 12.847 0 7.095 5.752 12.847 12.847 12.847z" fill="#afe2f7"/></g><circle cx="443.522" cy="70.364" fill="#ffd064" r="27.246"/><path d="m490.638 502.614h-469.291c-7.648 0-13.847-6.2-13.847-13.847 0-7.647 6.2-13.847 13.847-13.847h469.291c7.647 0 13.847 6.2 13.847 13.847 0 7.647-6.199 13.847-13.847 13.847z" fill="#4a80aa"/><path d="m490.638 474.92h-51.586v13.847c0 7.648-6.199 13.847-13.847 13.847h65.433c7.647 0 13.847-6.2 13.847-13.847s-6.199-13.847-13.847-13.847z" fill="#407093"/></g><g><path d="m443.521 24.557c4.143 0 7.5-3.357 7.5-7.5v-7.671c0-4.143-3.357-7.5-7.5-7.5s-7.5 3.357-7.5 7.5v7.671c0 4.142 3.358 7.5 7.5 7.5z"/><path d="m436.021 123.671v7.671c0 4.143 3.357 7.5 7.5 7.5s7.5-3.357 7.5-7.5v-7.671c0-4.143-3.357-7.5-7.5-7.5s-7.5 3.357-7.5 7.5z"/><path d="m486.52 37.974 5.424-5.424c2.929-2.93 2.929-7.678 0-10.607-2.93-2.928-7.678-2.928-10.607 0l-5.424 5.424c-2.929 2.93-2.929 7.678 0 10.607 2.93 2.928 7.677 2.927 10.607 0z"/><path d="m400.524 102.755-5.424 5.425c-2.929 2.929-2.929 7.678.001 10.606 2.927 2.927 7.678 2.93 10.606-.001l5.424-5.425c2.929-2.929 2.929-7.678-.001-10.606-2.929-2.93-7.678-2.929-10.606.001z"/><path d="m489.329 70.364c0 4.143 3.357 7.5 7.5 7.5h7.671c4.143 0 7.5-3.357 7.5-7.5s-3.357-7.5-7.5-7.5h-7.671c-4.142 0-7.5 3.358-7.5 7.5z"/><path d="m382.544 77.864h7.671c4.143 0 7.5-3.357 7.5-7.5s-3.357-7.5-7.5-7.5h-7.671c-4.143 0-7.5 3.357-7.5 7.5s3.357 7.5 7.5 7.5z"/><path d="m475.913 102.754c-2.93 2.929-2.93 7.678-.001 10.606l5.424 5.425c2.928 2.928 7.677 2.931 10.606.001 2.93-2.929 2.93-7.678.001-10.606l-5.424-5.425c-2.928-2.929-7.677-2.93-10.606-.001z"/><path d="m400.524 37.974c2.931 2.929 7.678 2.928 10.607 0 2.929-2.93 2.929-7.678 0-10.607l-5.424-5.424c-2.93-2.928-7.678-2.928-10.607 0-2.929 2.93-2.929 7.678 0 10.607z"/><path d="m491.428 467.46v-118.946c0-32.001-6.258-62.965-18.6-92.032-1.618-3.812-6.02-5.592-9.835-3.973-3.812 1.618-5.591 6.021-3.972 9.834 11.55 27.203 17.406 56.195 17.406 86.171v118.906h-16.213v-119.997c0-112.338-91.372-204.222-204.222-204.222-112.46 0-204.222 91.474-204.222 204.222v119.997h-16.212v-118.906c0-58.881 22.929-114.236 64.564-155.87 41.635-41.636 96.991-64.565 155.871-64.565 58.879 0 114.236 22.93 155.871 64.565 12.05 12.05 22.672 25.407 31.569 39.701 2.188 3.517 6.813 4.591 10.331 2.403 3.516-2.188 4.592-6.814 2.403-10.331-9.502-15.264-20.839-29.522-33.696-42.381-44.469-44.468-103.592-68.958-166.478-68.958-62.887 0-122.01 24.49-166.478 68.958-44.468 44.467-68.958 103.59-68.958 166.478v118.946c-11.403.42-20.557 9.803-20.557 21.307 0 11.771 9.576 21.348 21.347 21.348h469.292c11.771 0 21.347-9.576 21.347-21.348-.001-11.505-9.155-20.887-20.558-21.307zm-101.591-.04v-70.235h55.378v70.235zm-260.188-113.853c-4.142 0-7.5 3.357-7.5 7.5v21.117h-55.378v-34.762c0-16.239 2.058-32.005 5.924-47.055h49.455v25.583c0 4.143 3.358 7.5 7.5 7.5s7.5-3.357 7.5-7.5v-25.583h32.914c2.514 6.31 8.086 11.08 14.886 12.446v69.371h-47.8v-21.117c-.001-4.142-3.359-7.5-7.501-7.5zm-16.616-129.979h135.46v48.934h-59.533c-8.569 0-15.903 5.332-18.896 12.847h-92.83c7.973-22.903 20.221-43.821 35.799-61.781zm209.656 63.933c2.948 0 5.347 2.398 5.347 5.347s-2.398 5.347-5.347 5.347h-133.73c-2.948 0-5.347-2.398-5.347-5.347s2.398-5.347 5.347-5.347zm-122.74 25.694h112.087v68.97h-112.087zm127.087-.479c6.646-1.454 12.077-6.162 14.55-12.368h33.251v81.816h-47.801zm62.801-12.368h49.454c3.866 15.05 5.924 30.816 5.924 47.055v34.762h-55.378zm-48.251-15c-2.994-7.514-10.328-12.847-18.896-12.847h-59.197v-48.934h135.461c15.578 17.96 27.825 38.878 35.799 61.78h-93.167zm-78.094-76.78v-50.225c46.573 1.825 88.872 20.558 120.921 50.225zm-14.999 0h-120.921c32.049-29.667 74.348-48.4 120.921-50.225zm-63.544 188.597v70.235h-47.8v-70.235zm15 0h112.087v70.235h-112.087zm127.087 0h47.801v70.235h-47.801zm-260.265 0h55.378v70.235h-55.378zm423.868 97.929h-469.292c-3.5 0-6.347-2.848-6.347-6.348s2.847-6.347 6.347-6.347h469.292c3.5 0 6.347 2.847 6.347 6.347s-2.847 6.348-6.347 6.348z"/><path d="m443.521 105.11c19.159 0 34.746-15.587 34.746-34.746s-15.587-34.746-34.746-34.746c-19.158 0-34.745 15.587-34.745 34.746s15.587 34.746 34.745 34.746zm0-54.492c10.888 0 19.746 8.858 19.746 19.746s-8.858 19.746-19.746 19.746-19.745-8.858-19.745-19.746 8.858-19.746 19.745-19.746z"/></g></g></svg>