<svg id="Capa_1" enable-background="new 0 0 512 512" height="512" viewBox="0 0 512 512" width="512" xmlns="http://www.w3.org/2000/svg"><g><g><g><g><g><g><g><g><path d="m319.287 119.627c-12.2 7.991-25.483 16.012-37.589 24.842-6.728 4.908-22.02 18.355-24.708 17.144-2.955-1.332 1.414-19.536 3.849-26.471 4.433-12.629 10.921-25.679 20.999-35.432 8.477-8.203 23.845-10.34 33.467-4.757 8.148 4.729 13.167 18.657 3.982 24.674z" fill="#b5e245"/></g><g><path d="m192.713 119.627c12.2 7.991 25.483 16.012 37.589 24.842 6.728 4.908 22.02 18.355 24.708 17.144 2.955-1.332-1.414-19.536-3.849-26.471-4.433-12.629-10.921-25.679-20.999-35.432-8.477-8.203-23.845-10.34-33.467-4.757-8.148 4.729-13.168 18.657-3.982 24.674z" fill="#b5e245"/></g></g><path d="m276.21 81.277c0 20.383-14.609 80.327-20.591 80.327-5.686 0-20.591-59.945-20.591-80.327 0-10.499 9.219-19.01 20.591-19.01s20.591 8.511 20.591 19.01z" fill="#c6e873"/></g><path d="m251.653 212.226c0-25.832-7.638-45.129-21.695-55.602-1.691-1.26-3.986-1.423-5.852-.441-18.745 9.874-30.033 31.435-25.157 53.917l24.025 110.76c2.184 10.07 11.094 17.254 21.398 17.254z" fill="#e4936b"/><path d="m289.024 320.86 24.026-110.76c6.641-30.616-16.684-59.544-48.013-59.544h-18.074c-8.417 0-16.247 2.104-23.083 5.751 16.096 9.447 24.905 29.315 24.905 56.716l-7.234 125.09h26.076c10.303.001 19.213-7.183 21.397-17.253z" fill="#e27d47"/></g></g></g></g><g><g><g><g><g><g><g><g><path d="m152.405 119.627c-12.2 7.991-25.483 16.012-37.589 24.842-6.728 4.908-22.02 18.355-24.708 17.144-2.955-1.332 1.414-19.536 3.849-26.471 4.433-12.629 10.921-25.679 20.999-35.432 8.477-8.203 23.845-10.34 33.467-4.757 8.148 4.729 13.168 18.657 3.982 24.674z" fill="#b5e245"/></g><g><path d="m25.831 119.627c12.2 7.991 25.483 16.012 37.589 24.842 6.728 4.908 22.02 18.355 24.708 17.144 2.955-1.332-1.414-19.536-3.849-26.471-4.433-12.629-10.921-25.679-20.999-35.432-8.477-8.203-23.845-10.34-33.467-4.757-8.148 4.729-13.167 18.657-3.982 24.674z" fill="#b5e245"/></g></g><path d="m109.328 81.277c0 20.383-14.609 80.327-20.591 80.327-5.686 0-20.591-59.945-20.591-80.327 0-10.499 9.219-19.01 20.591-19.01s20.591 8.511 20.591 19.01z" fill="#c6e873"/></g><path d="m84.772 212.226c0-25.832-7.638-45.129-21.695-55.602-1.691-1.26-3.986-1.423-5.852-.441-18.745 9.874-30.033 31.435-25.157 53.917l24.025 110.76c2.184 10.07 11.094 17.254 21.398 17.254z" fill="#e4936b"/><path d="m122.143 320.86 24.025-110.76c6.641-30.616-16.684-59.544-48.013-59.544h-18.074c-8.417 0-16.247 2.104-23.083 5.751 16.096 9.447 24.905 29.315 24.905 56.716l-7.234 125.09h26.076c10.304.001 19.213-7.183 21.398-17.253z" fill="#e27d47"/></g></g></g></g><g><g><g><g><g><g><g><path d="m486.168 119.627c-12.2 7.991-25.483 16.012-37.589 24.842-6.728 4.908-22.02 18.355-24.708 17.144-2.955-1.332 1.414-19.536 3.849-26.471 4.433-12.629 10.921-25.679 20.999-35.432 8.477-8.203 23.845-10.34 33.467-4.757 8.148 4.729 13.168 18.657 3.982 24.674z" fill="#b5e245"/></g><g><path d="m359.595 119.627c12.2 7.991 25.483 16.012 37.589 24.842 6.728 4.908 22.02 18.355 24.708 17.144 2.955-1.332-1.414-19.536-3.849-26.471-4.433-12.629-10.921-25.679-20.999-35.432-8.477-8.203-23.845-10.34-33.467-4.757-8.148 4.729-13.168 18.657-3.982 24.674z" fill="#b5e245"/></g></g><path d="m443.091 81.277c0 20.383-14.609 80.327-20.591 80.327-5.686 0-20.591-59.945-20.591-80.327 0-10.499 9.219-19.01 20.591-19.01s20.591 8.511 20.591 19.01z" fill="#c6e873"/></g><path d="m418.535 212.226c0-25.832-7.638-45.129-21.695-55.602-1.691-1.26-3.986-1.423-5.852-.441-18.745 9.874-30.033 31.435-25.157 53.917l24.025 110.76c2.184 10.07 11.094 17.254 21.398 17.254z" fill="#e4936b"/><path d="m455.906 320.86 24.025-110.76c6.641-30.616-16.684-59.544-48.013-59.544h-18.074c-8.417 0-16.247 2.104-23.083 5.751 16.096 9.447 24.905 29.315 24.905 56.716l-7.234 125.09h26.076c10.304.001 19.214-7.183 21.398-17.253z" fill="#e27d47"/></g></g></g></g></g><g><path d="m431.807 449.733h-351.614c-12.002 0-22.453-8.194-25.317-19.849l-25.174-102.464h452.596l-25.175 102.464c-2.863 11.655-13.314 19.849-25.316 19.849z" fill="#e2f4ff"/><path d="m416.798 327.42-25.175 102.464c-2.864 11.655-13.315 19.849-25.317 19.849h65.5c12.002 0 22.453-8.194 25.317-19.849l25.175-102.464z" fill="#d1ecf9"/><path d="m486.206 346.337h-460.412c-10.104 0-18.294-8.191-18.294-18.294 0-10.104 8.191-18.294 18.294-18.294h460.411c10.104 0 18.294 8.191 18.294 18.294.001 10.103-8.19 18.294-18.293 18.294z" fill="#4a80aa"/><path d="m486.206 309.748h-47.039v18.294c0 10.104-8.191 18.294-18.294 18.294h65.333c10.104 0 18.294-8.191 18.294-18.294 0-10.103-8.191-18.294-18.294-18.294z" fill="#407093"/></g><path d="m486.206 302.248h-18.589c2.447-11.279 16.414-75.668 19.644-90.559 5.635-25.98-7.575-52.173-31.293-63.292 11.117-7.872 23.076-15.138 34.309-22.497 13.655-8.943 9.192-29.589-4.327-37.434-10.275-5.964-24.905-5.277-35.831.938.302-3.045.471-5.799.471-8.128 0-14.618-12.602-26.51-28.091-26.51-15.49 0-28.092 11.892-28.092 26.51 0 2.204.159 4.809.442 7.693-10.833-5.807-25.008-6.324-35.038-.503-13.463 7.813-18.049 28.447-4.327 37.434 11.216 7.347 23.231 14.651 34.348 22.524-24.416 11.493-36.779 38.148-31.33 63.265.878 4.048 4.873 6.618 8.919 5.74 4.048-.878 6.618-4.872 5.739-8.919-4.013-18.499 5.234-37.291 21.149-45.595l.005-.003c.032-.015.051-.023.083-.039.09-.042.178-.086.266-.131 12.327-6.424 22.591-4.557 37.255-4.687 18.859 0 34.801 12.511 39.932 29.797h-44.802c-4.143 0-7.5 3.358-7.5 7.5s3.357 7.5 7.5 7.5h46.369c-.147 1.887-.407 3.776-.815 5.657l-2.218 10.226h-34.47c-4.143 0-7.5 3.358-7.5 7.5s3.357 7.5 7.5 7.5h31.217l-3.758 17.326h-20.324c-4.143 0-7.5 3.358-7.5 7.5s3.357 7.5 7.5 7.5h17.07l-7.849 36.187h-58.775l-12.822-59.108c-.878-4.047-4.872-6.617-8.919-5.74-4.048.878-6.618 4.872-5.739 8.919l12.132 55.929h-77.411c2.452-11.302 16.42-75.698 19.643-90.559 5.706-26.307-7.864-52.309-31.293-63.292 11.128-7.879 23.098-15.152 34.31-22.497 13.655-8.943 9.192-29.589-4.327-37.434-10.276-5.964-24.905-5.277-35.83.938.302-3.045.471-5.798.471-8.128 0-14.618-12.602-26.51-28.092-26.51s-28.091 11.892-28.091 26.51c0 2.204.159 4.809.442 7.693-10.833-5.807-25.008-6.324-35.038-.503-13.507 7.838-18.023 28.464-4.328 37.434 11.169 7.316 23.228 14.648 34.348 22.524-24.452 11.508-36.77 38.189-31.331 63.265l19.643 90.559h-77.41c2.447-11.279 16.413-75.668 19.643-90.559 5.676-26.167-7.747-52.253-31.292-63.292 11.098-7.858 23.111-15.162 34.309-22.497 13.668-8.952 9.175-29.599-4.328-37.434-10.274-5.963-24.904-5.277-35.83.938.302-3.045.471-5.798.471-8.128 0-14.618-12.602-26.51-28.091-26.51s-28.091 11.892-28.091 26.51c0 2.204.159 4.808.442 7.693-10.833-5.807-25.009-6.324-35.038-.503-13.507 7.838-18.023 28.464-4.328 37.434 11.242 7.364 23.231 14.651 34.347 22.524-24.411 11.496-36.779 38.143-31.33 63.265l19.643 90.559h-18.586c-14.223 0-25.794 11.572-25.794 25.795s11.571 25.794 25.794 25.794h2.675l19.124 77.837c3.697 15.049 17.103 25.56 32.6 25.56h351.613c15.497 0 28.902-10.511 32.6-25.56l19.124-77.837h2.676c14.223 0 25.794-11.571 25.794-25.794s-11.571-25.795-25.794-25.795zm-32.271-197.149c6.041-5.847 17.713-7.591 24.486-3.659 3.878 2.251 7.232 9.56 3.638 11.913-14.052 9.204-30.341 18.951-42.782 28.825 2.418-8.327 4.815-18.076 6.777-27.592 2.442-3.577 5.082-6.778 7.881-9.487zm-31.435-35.332c7.219 0 13.091 5.163 13.091 11.51 0 12.147-6.119 42.502-12.247 61.779h-1.55c-5.81-18.379-12.385-48.979-12.385-61.779-.001-6.347 5.872-11.51 13.091-11.51zm-58.796 43.586c-3.602-2.358-.237-9.664 3.638-11.913 6.772-3.931 18.446-2.186 24.486 3.659 2.426 2.348 4.741 5.081 6.911 8.099 1.98 9.68 4.436 19.712 6.922 28.327-1.496-1.181-2.89-2.264-4.058-3.116-12.319-8.984-25.753-17.101-37.899-25.056zm-76.65-8.254c6.042-5.847 17.713-7.59 24.486-3.659 3.878 2.251 7.232 9.56 3.638 11.913-13.961 9.146-30.302 18.92-42.782 28.823 2.418-8.327 4.815-18.076 6.777-27.593 2.442-3.574 5.081-6.774 7.881-9.484zm-31.436-35.332c7.219 0 13.092 5.163 13.092 11.51 0 14.886-7.736 47.589-12.247 61.779h-1.551c-5.809-18.38-12.385-48.979-12.385-61.779 0-6.347 5.872-11.51 13.091-11.51zm-58.796 43.586c-3.607-2.363-.23-9.668 3.637-11.913 6.774-3.931 18.445-2.186 24.487 3.659 2.427 2.35 4.742 5.081 6.911 8.099 1.98 9.68 4.436 19.712 6.922 28.327-11.658-9.202-28.708-19.494-41.957-28.172zm9.458 95.157c-3.923-18.086 4.745-36.812 21.082-45.559.023-.012.045-.024.068-.036l.005-.003s.001 0 .002-.001c.029-.013.057-.026.081-.038 14.059-6.607 20.273-4.665 37.52-4.818 18.859 0 34.801 12.511 39.932 29.797h-44.803c-4.142 0-7.5 3.358-7.5 7.5s3.358 7.5 7.5 7.5h46.369c-.147 1.887-.407 3.776-.815 5.657l-2.218 10.226h-34.469c-4.143 0-7.5 3.358-7.5 7.5s3.357 7.5 7.5 7.5h31.216l-3.758 17.326h-20.324c-4.143 0-7.5 3.358-7.5 7.5s3.357 7.5 7.5 7.5h17.07l-7.849 36.187h-58.774zm-86.109-103.411c6.042-5.846 17.713-7.589 24.487-3.659 3.867 2.244 7.244 9.55 3.637 11.913-12.224 8.008-25.559 16.055-37.899 25.057-1.382 1.007-3.066 2.325-4.882 3.766 2.419-8.327 4.815-18.077 6.778-27.594 2.441-3.573 5.08-6.773 7.879-9.483zm-31.434-35.332c7.219 0 13.091 5.163 13.091 11.51 0 12.146-6.118 42.501-12.247 61.779h-1.551c-5.809-18.38-12.385-48.98-12.385-61.779.001-6.347 5.873-11.51 13.092-11.51zm-58.796 43.586c-3.607-2.363-.23-9.668 3.637-11.913 6.776-3.931 18.446-2.186 24.487 3.659 2.426 2.348 4.741 5.08 6.911 8.099 1.98 9.68 4.436 19.712 6.922 28.328-1.496-1.181-2.89-2.263-4.058-3.116-12.339-9.001-25.742-17.093-37.899-25.057zm9.457 95.157c-4.949-22.816 10.159-45.733 33.417-49.821 10.646-1.096 1.371-.421 25.34-.633 18.86 0 34.802 12.514 39.932 29.797h-44.801c-4.142 0-7.5 3.358-7.5 7.5s3.358 7.5 7.5 7.5h46.368c-.147 1.887-.407 3.776-.815 5.657l-2.218 10.226h-34.469c-4.142 0-7.5 3.358-7.5 7.5s3.358 7.5 7.5 7.5h31.215l-3.758 17.326h-20.323c-4.142 0-7.5 3.358-7.5 7.5s3.358 7.5 7.5 7.5h17.069l-7.849 36.187h-58.775zm446.808 130.327h-300.079c-4.142 0-7.5 3.358-7.5 7.5s3.358 7.5 7.5 7.5h281.957l-18.245 74.258c-2.045 8.324-9.461 14.138-18.033 14.138h-351.613c-8.572 0-15.988-5.814-18.034-14.139l-18.245-74.258h107.156c4.142 0 7.5-3.358 7.5-7.5s-3.358-7.5-7.5-7.5h-125.276c-5.952 0-10.794-4.842-10.794-10.794s4.842-10.794 10.794-10.794h432.502c.009 0 .018.001.027.001.006 0 .011-.001.017-.001h27.866c5.952 0 10.794 4.842 10.794 10.794s-4.842 10.795-10.794 10.795z"/></g></svg>