<svg id="Capa_1" enable-background="new 0 0 512 512" height="512" viewBox="0 0 512 512" width="512" xmlns="http://www.w3.org/2000/svg"><g><g><g><g><g><g><g><g><g><g><g><g><g><g><g><path d="m494.176 119.192c.272-.868-.524-1.709-1.398-1.459-3.41.972-11.887 2.064-31.832-.362-38.61-4.697-32.785 35.614-32.785 35.614s45.914 30.427 66.015-33.793z" fill="#b5e245"/><path d="m365.38 158.722c-.164-.894.727-1.633 1.565-1.279 3.267 1.378 11.583 4.661 31.641 3.497 32.024-1.858 29.566 39.437 29.566 39.437s-50.599 24.528-62.772-41.655z" fill="#c6e873"/></g></g></g></g></g></g></g></g><path d="m355.245 280.575c18.915-18.041 44.314-29.105 72.263-29.105 27.948 0 53.348 11.064 72.263 29.105z" fill="#c6865c"/></g></g></g></g></g><path d="m482.172 304.3-107.861 17.474c-16.518 2.676-31.504-10.077-31.504-26.811v-16.9h161.693c0 13.039-9.458 24.152-22.328 26.237z" fill="#e2f4ff"/><path d="m439.204 278.064c-1.054 15.746-10.078 29.531-23.362 36.982l66.331-10.746c12.87-2.085 22.328-13.198 22.328-26.236z" fill="#d1ecf9"/><path d="m291.536 306.52h-93.401v-56.911h93.401c9.922 0 17.965 8.043 17.965 17.965v20.982c-.001 9.921-8.044 17.964-17.965 17.964z" fill="#4a80aa"/><g><path d="m296.623 316.683-8.923-8.923c-.199-.23-.396-.462-.615-.681l-36.489-36.489c-4.363-4.363-4.362-11.437.002-15.799l6.988-6.984c2.226-2.224 1.973-5.891-.515-7.817-9.61-7.438-21.824-10.881-34.045-9.428l-14.456 1.719c-8.797 1.046-17.588-2-23.852-8.264l-44.374-44.375-71.61 71.611 52.753 52.753c2.591 2.591 4.665 5.65 6.113 9.016l10.149 23.591c5.88 11.962 13.688 22.874 23.113 32.299l20.855 21.188c6.425 6.425 16.797 6.5 23.313.223 6.719-6.472 6.516-17.473-.08-24.071l-.389-.389 8.245 8.245c6.597 6.597 17.599 6.801 24.072.082 6.277-6.517 6.203-16.888-.223-23.313l-3.063-3.064 8.732 8.732c6.597 6.597 17.599 6.801 24.072.081 6.277-6.517 6.203-16.888-.223-23.313l6.911 6.911c6.5 6.501 17.04 6.501 23.541 0 6.499-6.501 6.499-17.04-.002-23.541z" fill="#ffddce"/><path d="m296.623 316.683-8.923-8.923c-.199-.23-.396-.462-.615-.681l-36.489-36.489c-4.363-4.363-4.362-11.437.002-15.799l6.988-6.984c2.226-2.224 1.973-5.891-.515-7.817-9.61-7.438-21.824-10.881-34.045-9.428l-14.456 1.719c-8.797 1.046-17.588-2-23.852-8.264l-44.374-44.375-46.861 46.861 44.374 44.375c5.246 5.246 12.265 8.235 19.575 8.454 2.898.087 5.682 1.148 7.781 3.149 0 0 47.792 45.706 71.6 68.569-.055-.057-.102-.119-.159-.175l-3.063-3.064 3.645 3.645c2.647 2.542 4.98 4.785 6.906 6.641 6.662 5.01 16.342 4.666 22.254-1.471 6.277-6.517 6.203-16.888-.223-23.313l6.911 6.911c6.5 6.501 17.04 6.501 23.541 0 6.499-6.501 6.499-17.04-.002-23.541z" fill="#ffcbbe"/><g><g><g><g><g><g><g><g><g><path d="m150.476 174.843-52.752-52.752c-4.621-4.621-12.113-4.621-16.734 0l-70.02 70.02c-4.621 4.621-4.621 12.113 0 16.734l52.752 52.752z" fill="#afe2f7"/><g fill="#8fd6f7"><path d="m97.724 122.091c-4.621-4.621-12.113-4.621-16.734 0l-39.39 39.39 61.119 61.119 47.757-47.757z"/><path d="m172.139 181.241-17.056-17.056c-3.295-3.295-8.637-3.295-11.932 0l-87.181 87.182c-3.295 3.295-3.295 8.637 0 11.932l17.056 17.056c3.295 3.295 8.637 3.295 11.932 0l87.182-87.182c3.294-3.295 3.294-8.637-.001-11.932z"/></g></g></g></g></g></g></g></g></g></g></g></g><g><g><g><g><g><g><g><g><g><g><path d="m172.139 181.241-17.056-17.056c-3.295-3.295-8.637-3.295-11.932 0l-47.757 47.757c3.295-3.295 8.637-3.294 11.931 0l17.056 17.056c3.295 3.295 3.295 8.637 0 11.932l47.757-47.757c3.296-3.295 3.296-8.637.001-11.932z" fill="#74ccf7"/></g></g></g></g></g></g></g></g></g></g><path d="m504.5 270.564h-4.665c-18.235-15.429-40.58-24.583-64.183-26.299 0-15.398.003-76.405 0-79.539 10.011 3.44 20.762 4.195 30.94.582 15.682-5.566 27.372-20.328 34.742-43.876h.001c.951-3.041.16-6.349-2.065-8.632-2.219-2.275-5.491-3.149-8.549-2.279-16.944 4.842-42.915-9.547-60.343 8.275-11.579 11.842-10.162 30.667-9.725 34.564v6.512c-16.094-12.519-32.241-1.513-50.795-9.34-2.925-1.232-6.279-.762-8.757 1.229-2.485 1.996-3.672 5.183-3.097 8.316 0 .001.001.002.001.003 5.292 28.77 20.12 52.238 49.48 52.238 4.898 0 9.41-.693 13.168-1.572v33.442c-24.078 1.471-46.906 10.668-65.471 26.377h-38.182v-2.991c0-14.041-11.423-25.465-25.464-25.465h-25.097c-.513-3.174-2.208-6.059-4.777-8.048-22.982-17.791-45.955-9.136-53.978-9.226-6.558.782-12.994-1.451-17.663-6.12l-16.409-16.409 3.83-3.83c6.214-6.214 6.214-16.324 0-22.538l-17.056-17.056c-4.941-4.94-12.338-5.938-18.288-3.023l-9.402-9.402c-2.93-2.929-7.678-2.929-10.607 0s-2.929 7.678 0 10.606l8.789 8.789-76.147 76.148-38.457-38.457c-1.692-1.692-1.695-4.434 0-6.128l70.02-70.02c1.693-1.693 4.433-1.693 6.127 0l5.029 5.029c2.93 2.929 7.678 2.929 10.607 0s2.929-7.678 0-10.606l-5.029-5.029c-7.556-7.555-19.784-7.557-27.342 0l-70.019 70.019c-7.555 7.553-7.558 19.784-.001 27.341l40.569 40.569c-.809 4.902.658 10.11 4.431 13.883l17.056 17.056c3.106 3.106 7.187 4.66 11.268 4.66s8.162-1.554 11.269-4.66l1.134-1.134 24.787 24.786c1.927 1.927 3.45 4.173 4.527 6.676 4.986 9.683 10.502 33.883 34.807 58.187l20.896 21.23c9.225 9.226 24.397 9.398 33.82.322 3.046-2.934 5.203-6.565 6.335-10.572 8.708 3.151 18.87 1.34 25.71-5.76 3.075-3.192 5.09-7.047 6.05-11.109 8.194 2.123 17.23.023 23.47-6.455 2.874-2.984 4.821-6.548 5.848-10.318 8.212 2.558 17.642.657 24.283-5.983 9.319-9.32 9.397-24.418.265-33.853 8.732-4.041 14.807-12.881 14.807-23.119v-2.991h18.306v9.4c0 10.178 4.445 19.799 12.197 26.396 6.321 5.379 14.275 8.267 22.444 8.267 4.243 0 6.592-.699 12.264-1.534 4.089-.662 6.866-4.514 6.204-8.602s-4.508-6.866-8.602-6.204c-3.607.078-13.401 4.47-22.588-3.35-4.397-3.742-6.919-9.199-6.919-14.973v-9.4h145.158c-2.493 5.864-7.828 10.253-14.491 11.333l-66.331 10.746c-4.089.662-6.867 4.514-6.204 8.603.663 4.091 4.518 6.866 8.602 6.204l66.33-10.746c16.592-2.688 28.632-16.835 28.632-33.64 0-4.142-3.357-7.5-7.5-7.5zm-129.352-103.03c19.995 3.441 29.435-2.829 37.676 5.385 5.607 5.589 7.396 15.668 7.792 22.285-21.235 6.597-37.766-1.498-45.468-27.67zm-73.148 100.039v20.982c0 5.77-4.694 10.465-10.464 10.465h-1.904l-33.732-33.733c-1.433-1.432-1.434-3.756.001-5.191l2.99-2.988h32.645c5.77 0 10.464 4.695 10.464 10.465zm-223.67 7.478-17.056-17.056c-.183-.182-.275-.405-.275-.663s.093-.48.275-.663l87.181-87.181c.182-.182.404-.274.662-.274s.48.092.662.274l17.056 17.056c.366.365.366.96 0 1.325l-80.734 80.736c-.003.003-.006.005-.009.008s-.005.006-.008.009l-6.428 6.428c-.366.366-.963.366-1.326.001zm212.989 59.87c-3.565 3.567-9.35 3.582-12.934-.001l-6.912-6.911c-2.93-2.929-7.677-2.928-10.606 0-2.929 2.929-2.929 7.678.001 10.607 3.499 3.499 3.556 9.245.124 12.807-3.551 3.689-9.733 3.452-13.367-.182l-8.731-8.732h-.001c-2.928-2.93-7.677-2.929-10.606 0s-2.929 7.678 0 10.606l3.064 3.064c3.499 3.499 3.556 9.245.124 12.807-3.587 3.724-9.769 3.412-13.367-.182l-7.839-7.839c-.006-.006-.012-.011-.017-.017l-.389-.389h-.001c-2.928-2.93-7.677-2.929-10.606 0s-2.929 7.678 0 10.606l.389.388c1.828 1.829 2.862 4.384 2.838 7.012-.023 2.47-.967 4.727-2.655 6.354-3.564 3.432-9.309 3.376-12.766-.082l-20.896-21.23c-21.714-21.714-26.043-42.526-31.677-53.551-1.832-4.257-4.422-8.078-7.698-11.354l-24.787-24.787 61.003-61.004 16.408 16.408c7.941 7.94 18.888 11.735 30.042 10.409 8.908-.154 24.342-6.522 40.927 4.674l-5.086 5.083c-7.3 7.295-7.303 19.107-.005 26.407 7.091 7.101 38.947 39.002 46.028 46.093 3.574 3.575 3.573 9.361-.002 12.936zm149.818-205.674c8.625-8.762 21.811-2.457 42.476-2.926-5.593 13.252-12.949 21.583-21.938 24.816-10.494 3.774-21.237-.256-26.333-2.746-.096-5.468.864-14.136 5.795-19.144zm-13.628 129.723c16.169 0 31.845 4.032 45.853 11.595h-91.707c14.008-7.563 29.684-11.595 45.854-11.595z"/></g></svg>