<svg id="Capa_1" enable-background="new 0 0 512.021 512.021" height="512" viewBox="0 0 512.021 512.021" width="512" xmlns="http://www.w3.org/2000/svg"><g><g><path d="m504.317 142.902-255.213 24.085 1.087 28.968 27.375.523 226.751 11.851z" fill="#d1ecf9"/><g><g><g><path d="m380.28 292.026c-28.367.541-133.381 8.737-144.781 99.976-.346 2.771 2.122 5.384 5.371 5.684 115.762 10.688 140.793-75.816 145.473-99.661.61-3.111-2.38-6.069-6.063-5.999z" fill="#b5e245"/></g><g><path d="m44.588 265.459c27.475.524 129.186 8.462 140.228 96.832.335 2.684-2.055 5.215-5.202 5.505-112.122 10.352-136.366-73.432-140.899-96.527-.591-3.013 2.305-5.878 5.873-5.81z" fill="#c6e873"/></g></g><path d="m210.82 451.596c-107.951.068-178.662 52.944-178.662 52.944h178.662 178.662s-70.711-52.876-178.662-52.944z" fill="#ce9875"/><path d="m210.82 451.596c-12.857.008-25.178.772-36.922 2.1 86.862 9.82 141.74 50.845 141.74 50.845h73.844c0-.001-70.711-52.877-178.662-52.945z" fill="#c6865c"/></g><path d="m280.579 163.895 1.23 32.784c.085 2.275-1.092 4.411-3.062 5.553l-33.493 19.42c-1.974 1.145-4.457-.224-4.543-2.505l-2.798-74.577c-.086-2.28 2.288-3.832 4.342-2.838l34.854 16.856c2.05.991 3.384 3.033 3.47 5.307z" fill="#e2f4ff"/><path d="m490.356 7.518-92.712-.017c-4.716-.001-9.113 2.379-11.692 6.326l-45.499 69.647c-2.668 4.085-1.815 9.526 1.976 12.597l158.093 128.083c1.525 1.23 3.795.144 3.795-1.815v-200.858c0-7.711-6.25-13.962-13.961-13.963z" fill="#f2f9ff"/><path d="m490.356 7.518-51.179-.009v128.556c0 12.138-8.573 20.959-18.773 23.181l80.118 64.91c1.525 1.23 3.795.144 3.795-1.815v-200.86c0-7.711-6.25-13.962-13.961-13.963z" fill="#e2f4ff"/></g><g><path d="m504.51 497.019h-112.659c-39.637-27.489-105.011-51.201-173.372-52.821 1.051-15.103 7.869-29.316 19.099-39.541 3.882 1.117 18.517 1.451 22.665 1.451 42.29-.002 76.056-13.494 100.549-40.237 22.834-24.932 30.622-54.743 32.91-66.403 1.568-7.987-5.257-14.945-13.301-14.945-.088 0-.177.001-.266.002h.001c-44.954.858-96.896 14.235-126.844 48.503-17.957 20.549-25.82 49.216-25.302 60.064-3.483 3.134-6.619 6.496-9.672 10.537v-66.906c0-4.143-3.358-7.501-7.501-7.501s-7.501 3.358-7.501 7.501v38.555c-3.173-4.01-6.827-7.996-10.996-11.949.03-.653.018-1.311-.064-1.97-4.986-39.897-28.642-70.089-68.414-87.311-31.79-13.767-65.916-15.839-79.115-16.091-8.199-.078-14.925 6.862-13.374 14.754 2.63 13.402 10.016 39.305 29.94 62.197 2.719 3.124 7.457 3.453 10.582.733 3.124-2.719 3.453-7.457.733-10.582-13.194-15.161-20.176-32.188-23.752-44.109 22.804 12.815 73.027 42.605 118.039 80.112-26.807.847-49.894-4.16-68.74-14.972-3.593-2.062-8.176-.819-10.239 2.774-2.061 3.593-.819 8.177 2.774 10.239 19.791 11.352 43.415 17.07 70.428 17.07 4.299 0 17.844-.354 21.511-1.341 13.388 12.875 20.355 25.583 20.688 37.825v31.536c-69.286 1.607-134.678 25.881-173.53 52.825h-22.276c-4.143 0-7.501 3.358-7.501 7.501s3.358 7.501 7.501 7.501h496.999c4.143 0 7.501-3.358 7.501-7.501s-3.358-7.5-7.501-7.5zm-251.054-106.145c47.051-39.276 99.713-70.404 122.99-83.452-20.628 75.617-88.893 84.149-122.99 83.452zm103.687-89.692c-26.597 15.483-70.64 42.916-111.107 76.358 15.71-55.788 74.006-71.86 111.107-76.358zm-182.955 46.445c-38.493-31.727-80.225-57.826-105.97-72.862 14.459 1.87 32.481 5.609 49.665 13.051 29.647 12.838 48.521 32.919 56.305 59.811zm36.626 111.469c69.357.044 123.37 22.691 151.861 37.923h-303.774c28.426-15.23 82.376-37.878 151.913-37.923z"/><path d="m249.017 228.141 33.493-19.421c1.846-1.07 3.371-2.531 4.51-4.238l189.534 9.906 19.258 15.602c6.419 5.18 16.006.625 16.006-7.651v-148.859c0-4.143-3.358-7.501-7.501-7.501s-7.501 3.358-7.501 7.501v138.019c-15.07-12.209-134.658-109.095-149.666-121.254-.806-.652-.985-1.8-.418-2.668l45.499-69.647c1.197-1.833 3.22-2.928 5.41-2.928h.002l92.712.017c3.563.001 6.461 2.9 6.461 6.462v16.937c0 4.143 3.358 7.501 7.501 7.501s7.501-3.358 7.501-7.501v-16.938c0-11.832-9.627-21.461-21.46-21.464l-92.712-.016c-.002 0-.003 0-.005 0-7.273 0-13.991 3.636-17.969 9.725l-45.499 69.647c-4.788 7.33-3.27 17.014 3.533 22.527l10.28 8.329-27.121 42.452-35.444 3.345c-1.292-1.752-3.007-3.203-5.046-4.19l-34.854-16.856c-7.146-3.456-15.4 1.938-15.103 9.872l2.798 74.575c.295 7.926 8.927 12.701 15.801 8.715zm40.032-38.574-.704-18.75 120.402-11.363 47.985 38.876zm70.668-69.835 32.372 26.227-52.279 4.934zm-86.603 45.255 1.169 31.164-26.355 15.281-2.24-59.708z"/></g></g></svg>