<svg id="Capa_1" enable-background="new 0 0 512 512" height="512" viewBox="0 0 512 512" width="512" xmlns="http://www.w3.org/2000/svg"><g><g><g><g><g><g><g><g><g><g><g><g><path d="m490.116 81.304c-15.697 10.282-32.788 20.602-48.365 31.964-8.657 6.314-28.333 23.617-31.791 22.058-3.802-1.714 1.82-25.136 4.952-34.059 5.704-16.249 14.051-33.041 27.019-45.59 10.907-10.555 30.681-13.305 43.061-6.12 10.484 6.084 16.943 24.005 5.124 31.747z" fill="#b5e245"/></g><g><path d="m327.255 81.304c15.697 10.282 32.788 20.602 48.365 31.964 8.657 6.314 28.333 23.617 31.791 22.058 3.802-1.714-1.82-25.136-4.952-34.059-5.704-16.249-14.051-33.041-27.019-45.59-10.907-10.555-30.681-13.305-43.061-6.12-10.484 6.084-16.943 24.005-5.124 31.747z" fill="#b5e245"/></g></g><path d="m434.689 31.96c0 26.226-18.798 103.356-26.494 103.356-7.317 0-26.494-77.13-26.494-103.356 0-13.509 11.862-24.46 26.494-24.46s26.494 10.951 26.494 24.46z" fill="#c6e873"/></g><path d="m420.658 116.256h-23.945c-10.918 0-21.082 2.685-30.003 7.333-.091.043-.187.074-.277.121-.094.05-.185.104-.279.154-.006.004-.014.007-.021.011 0 0 .001.001.001.001-24.652 13.153-39.462 41.6-33.028 71.263l44.531 282.818c2.406 15.283 15.577 26.542 31.048 26.542 15.471 0 28.642-11.259 31.048-26.542l44.531-282.818c8.798-40.56-22.103-78.883-63.606-78.883z" fill="#e4936b"/><path d="m420.658 116.256h-23.945c-7.367 0-14.388 1.227-20.918 3.45 30.247 10.28 49.834 42.098 42.604 75.433l-40.761 282.818c2.406 15.283 15.577 26.542 31.048 26.542 15.471 0 28.642-11.259 31.048-26.542l44.531-282.818c8.797-40.56-22.104-78.883-63.607-78.883z" fill="#e27d47"/></g></g></g></g></g></g></g><g><g><g><g><g><g><g><g><g><g><g><path d="m412.65 420.211h-66.431" fill="#617880"/><g><g><g><path d="m475.685 234.459h-111.056c-2.544 0-5.568-1.077-8.674-2.692-11.902-6.19-19.92-17.934-22.061-31.177l-1.413-8.739c-18.307 3.324-34.965 13.22-46.669 28.083l-14.852 18.86c-9.038 11.477-22.839 18.176-37.448 18.176h-22.056v166.994h41.594c6.042 0 12.028 1.149 17.64 3.384l39.34 15.672c20.803 7.092 42.631 10.71 64.609 10.71h69.908c11.47 0 20.769-9.299 20.769-20.769v-13.28c0-11.47-9.299-20.769-20.769-20.769h13.311c11.47 0 20.769-9.298 20.769-20.769v-13.28c0-11.47-9.299-20.769-20.769-20.769h10.579c11.47 0 20.769-9.298 20.769-20.769v-13.28c0-11.47-9.298-20.769-20.769-20.769h7.246c11.47 0 20.769-9.298 20.769-20.769v-13.28c.001-11.47-9.297-20.768-20.767-20.768z" fill="#ffddce"/></g></g></g></g></g><path d="m221.172 237.992h-188.957c-9.206 0-16.669 7.463-16.669 16.669v172.102c0 9.206 7.463 16.669 16.669 16.669h188.956v-205.44z" fill="#eaaadd"/><path d="m103.796 237.992v143.679c0 16.014-12.982 28.996-28.996 28.996h-59.253v16.096c0 9.206 7.463 16.669 16.669 16.669h188.956v-205.44z" fill="#e490d0"/><path d="m222.211 225.147h-39.773c-7.683 0-13.912 6.229-13.912 13.912v203.306c0 7.683 6.229 13.912 13.912 13.912h39.773c7.683 0 13.912-6.229 13.912-13.912v-203.306c0-7.684-6.229-13.912-13.912-13.912z" fill="#eaaadd"/></g></g></g></g></g></g></g><g fill="#ffcbbe"><path d="m475.685 234.459h-111.056c-2.544 0-5.568-1.077-8.674-2.692-3.627-1.886-6.888-4.294-9.736-7.097v6.479c0 15.963 12.94 28.904 28.904 28.904h100.562c8.927 0 16.902 6.51 19.871 14.49.58-1.91.898-3.935.898-6.035v-13.28c-.001-11.471-9.299-20.769-20.769-20.769z"/><path d="m468.438 289.276h-99.355v.529c0 13.563 10.995 24.558 24.558 24.558h74.798l4.472.496c7.395 1.625 13.301 7.189 15.43 14.379.556-1.875.866-3.857.866-5.912v-13.28c0-11.471-9.298-20.77-20.769-20.77z"/><path d="m457.859 344.094h-77.345c0 13.563 10.995 24.558 24.558 24.558h52.787c9.513 0 17.514 6.404 19.973 15.13.506-1.795.796-3.682.796-5.639v-13.28c0-11.47-9.298-20.769-20.769-20.769z"/><path d="m444.548 398.912h-52.602v.212c0 13.563 10.995 24.558 24.558 24.558h28.044c9.467 0 17.439 6.341 19.941 15.003.525-1.82.828-3.734.828-5.723v-13.28c0-11.472-9.298-20.77-20.769-20.77z"/></g></g></g></g><path d="m503.953 268.507v-13.28c0-11.755-7.214-21.854-17.446-26.111l4.949-31.43c.644-4.092-2.151-7.931-6.243-8.575-4.085-.649-7.931 2.151-8.575 6.242l-4.976 31.605h-107.033c-.277 0-1.835-.089-5.213-1.846-17.47-9.085-18.127-27.633-18.98-31.562-6.593-30.4 12.42-60.918 42.831-68.214.063-.013.127-.026.19-.04 4.302-1.016 8.729-1.539 13.257-1.539h23.944c24.851 0 46.831 15.863 54.696 39.473 1.309 3.93 5.554 6.054 9.485 4.746 3.93-1.309 6.055-5.556 4.745-9.486-6.462-19.402-20.496-34.646-38.164-42.906 14.027-9.836 28.953-18.933 42.804-28.005 16.336-10.7 10.375-35.314-5.469-44.508-13.806-8.012-34.045-6.208-47.681 3.593.708-5.684 1.114-10.721 1.114-14.703 0-17.624-15.25-31.961-33.994-31.961s-33.994 14.337-33.994 31.959c0 3.821.372 8.587 1.026 13.951-13.609-9.14-33.165-10.643-46.612-2.841-15.824 9.184-21.869 33.765-5.469 44.508 13.981 9.158 28.764 18.16 42.823 28.018-27.711 13.027-43.491 41.514-41.667 70.425-17.509 4.706-33.083 14.923-44.382 29.272l-14.852 18.86c-5.467 6.942-13.029 11.819-21.444 14.009v-9.102c0-11.807-9.605-21.412-21.412-21.412h-39.773c-8.76 0-16.299 5.294-19.611 12.845h-130.611c-13.327 0-24.169 10.842-24.169 24.169v172.102c0 13.327 10.842 24.169 24.169 24.169h130.611c3.312 7.552 10.851 12.845 19.611 12.845h39.773c11.807 0 21.412-9.605 21.412-21.412v-10.902h9.427c5.114 0 10.115.959 14.865 2.852 19.628 6.469 48.458 25.009 99.475 26.781l2.839 18.03c3 19.049 19.174 32.875 38.457 32.875 19.284 0 35.457-13.826 38.457-32.875l2.902-18.435c12.965-2.566 22.772-14.022 22.772-27.728v-13.28c0-5.624-1.65-10.869-4.493-15.277 10.422-4.168 17.804-14.369 17.804-26.261v-13.28c0-6.029-1.897-11.624-5.126-16.217 9.3-4.634 15.705-14.244 15.705-25.32v-13.28c0-6.617-2.285-12.71-6.107-17.532 8.01-4.998 13.353-13.891 13.353-24.009zm-56.807-207.44c8.385-8.114 24.629-10.508 34.08-5.023 6.211 3.604 11.085 14.857 4.779 18.987-15.424 10.104-38.645 24.281-52.279 34.918-1.927-.351-3.876-.625-5.846-.821 3.028-10.547 6.058-22.993 8.547-35.123 3.302-4.891 6.902-9.244 10.719-12.938zm-38.952-46.067c10.474 0 18.994 7.608 18.994 16.959 0 14.877-7.119 51.316-14.827 76.797h-8.173c-5.517-18.087-14.988-58.145-14.988-76.797 0-9.351 8.521-16.959 18.994-16.959zm-76.83 60.03c-6.24-4.088-1.499-15.343 4.778-18.987 9.452-5.484 25.697-3.091 34.082 5.023 3.307 3.199 6.463 6.911 9.402 11.04 2.578 12.662 5.801 25.841 9.059 37.09-1.702.186-3.391.427-5.066.732-13.679-10.668-36.834-24.796-52.255-34.898zm-102.741 367.334c0 3.536-2.877 6.412-6.412 6.412h-39.773c-3.535 0-6.412-2.876-6.412-6.412v-135.791c0-4.142-3.357-7.5-7.5-7.5s-7.5 3.358-7.5 7.5v129.358h-128.81c-5.056 0-9.169-4.113-9.169-9.169v-172.101c0-5.056 4.113-9.169 9.169-9.169h128.81v26.019c0 4.142 3.357 7.5 7.5 7.5s7.5-3.358 7.5-7.5v-32.452c0-3.536 2.877-6.412 6.412-6.412h39.773c3.535 0 6.412 2.876 6.412 6.412zm180.063 54.636c-11.854 0-21.796-8.499-23.64-20.208l-2.45-15.562h52.178l-2.45 15.562c-1.843 11.709-11.785 20.208-23.638 20.208zm80.267-228.493c0 7.316-5.952 13.269-13.269 13.269-12.175 0-81.212 0-106.602 0-4.143 0-7.5 3.358-7.5 7.5 0 4.974 3.559 7.5 10.273 7.5h96.582c7.316 0 13.269 5.952 13.269 13.269v13.28c0 7.316-5.952 13.269-13.269 13.269-9.46 0-74.983 0-87.924 0-4.143 0-7.5 3.358-7.5 7.5s3.357 7.5 7.5 7.5h77.345.005c7.314.003 13.264 5.954 13.264 13.269v13.28c0 7.316-5.952 13.269-13.269 13.269-12.059 0-46.885 0-65.912 0-4.143 0-7.5 3.358-7.5 7.5v.211c0 4.142 2.778 7.289 9.275 7.289h50.825.005c7.314.003 13.265 5.954 13.265 13.269v13.28c0 7.316-5.953 13.269-13.27 13.269h-69.907c-51.844 0-82.43-19.796-101.174-25.85-6.523-2.6-13.393-3.917-20.417-3.917h-9.427v-152.951c13.064-2.437 24.911-9.516 33.229-20.079l14.852-18.86c8.896-11.297 21.01-19.488 34.66-23.561l.125.774c2.556 15.799 12.277 29.494 26.005 36.634 4.578 2.381 8.548 3.539 12.135 3.539h111.056c7.316 0 13.269 5.952 13.269 13.269v13.279z"/></g></svg>