<svg id="Capa_1" enable-background="new 0 0 512 512" height="512" viewBox="0 0 512 512" width="512" xmlns="http://www.w3.org/2000/svg"><g><g><g><g><g><g><g><g><path d="m112.574 189.395-29.6.787c-13.693 8.638-31.868 1.141-35.379-14.664-3.646-16.412-6.066-33.754-6.072-48.278-.011-30.09 24.674-54.71 54.764-54.71h210.203c19.874 0 30.353 23.544 17.051 38.31l-9.213 10.226 51.353 32.926v-64.08c0-28.39-23.015-51.405-51.405-51.405h-218.123c-48.962 0-88.653 39.691-88.653 88.653 0 62.88 24.166 123.355 67.499 168.919l7.682 8.136h29.717z" fill="#e490d0"/><g><path d="m476.822 153.75-156.133 206.442 44.993 76.704 111.14-232.229z" fill="#df73c1"/><path d="m383.682 454.843h-318.708l18-317.815h282.708z" fill="#eaaadd"/><path d="m365.682 137.028h-67.5l18 317.815h67.5z" fill="#e490d0"/><path d="m360.306 155.328h-271.957c-10.106 0-18.299-8.193-18.299-18.299 0-10.106 8.193-18.299 18.299-18.299h271.957c10.106 0 18.299 8.193 18.299 18.299.001 10.106-8.192 18.299-18.299 18.299z" fill="#e490d0"/><path d="m360.306 118.729h-65.333c10.106 0 18.299 8.193 18.299 18.299s-8.193 18.299-18.299 18.299h65.333c10.106 0 18.299-8.193 18.299-18.299s-8.192-18.299-18.299-18.299z" fill="#df73c1"/><path d="m378.306 473.494h-307.957c-10.106 0-18.299-8.193-18.299-18.299 0-10.106 8.193-18.299 18.299-18.299h307.957c10.106 0 18.299 8.193 18.299 18.299.001 10.106-8.192 18.299-18.299 18.299z" fill="#e490d0"/><path d="m378.306 436.896h-64.5c10.106 0 18.299 8.193 18.299 18.299s-8.193 18.299-18.299 18.299h64.5c10.106 0 18.299-8.193 18.299-18.299s-8.192-18.299-18.299-18.299z" fill="#df73c1"/></g></g><path d="m465.722 232.258v-67.945c0-10.708 8.681-19.389 19.389-19.389 10.708 0 19.389 8.681 19.389 19.389v67.945c0 10.708-8.681 19.389-19.389 19.389-10.708 0-19.389-8.681-19.389-19.389z" fill="#e490d0"/></g></g></g></g></g><g><g><circle cx="224.328" cy="295.323" fill="#f2f9ff" r="82.672"/><g><g><g><g><g><g><g><g><path d="m225.648 257.519c-.639-.922-2.002-.922-2.641 0-6.389 9.213-32.438 51.092 1.266 78.082h.109c33.705-26.99 7.655-68.869 1.266-78.082z" fill="#b5e245"/></g></g></g></g></g></g></g></g></g><g><g><g><g><path d="m175.03 287.763c-.174-.963.666-1.803 1.629-1.629 9.172 1.66 47.665 10.608 47.668 43.859v5.078l-.354.073c-37.437 4.142-47.201-37.757-48.943-47.381z" fill="#c6e873"/></g></g></g><g><g><g><path d="m273.625 287.763c.174-.963-.666-1.803-1.629-1.629-9.172 1.66-47.665 10.608-47.668 43.859v5.078l.354.073c37.437 4.142 47.201-37.757 48.943-47.381z" fill="#c6e873"/></g></g></g></g><path d="m296.882 334.98h-145.109c14.04 25.633 41.266 43.016 72.554 43.016s58.515-17.383 72.555-43.016z" fill="#c6865c"/></g></g><g><path d="m314.5 295.323c0-49.721-40.451-90.172-90.172-90.172-49.722 0-90.173 40.451-90.173 90.172 0 49.696 40.442 90.173 90.173 90.173 49.709 0 90.172-40.457 90.172-90.173zm-90.172-75.172c41.45 0 75.172 33.722 75.172 75.172 0 11.5-2.604 22.402-7.241 32.157h-28.643c2.817-3.161 5.391-6.769 7.675-10.838 6.299-11.219 8.892-22.999 9.715-27.547.519-2.871-.404-5.817-2.469-7.88-2.065-2.062-5.011-2.98-7.877-2.461-8.02 1.452-16.207 3.973-23.7 7.658-3.548-15.146-11.383-27.738-15.152-33.171-1.702-2.45-4.498-3.912-7.481-3.912-2.982 0-5.778 1.462-7.483 3.917-3.767 5.432-11.6 18.023-15.148 33.167-7.492-3.684-15.678-6.206-23.697-7.657-2.868-.526-5.816.396-7.881 2.46-2.064 2.062-2.987 5.009-2.468 7.884.822 4.544 3.415 16.324 9.714 27.543 2.284 4.069 4.858 7.677 7.675 10.838h-28.643c-4.637-9.756-7.241-20.657-7.241-32.157 0-41.451 33.723-75.173 75.173-75.173zm-39.559 75.704c4.625 1.443 10.097 3.602 15.245 6.757 10.473 6.418 15.949 14.576 16.708 24.868h-3.21c-16.949-2.88-25.127-20.108-28.743-31.625zm39.559 9.284c-2.517-3.701-5.574-7.001-9.02-9.924 1.317-9.842 5.457-19.098 9.02-25.564 3.563 6.467 7.702 15.72 9.02 25.564-3.446 2.923-6.503 6.223-9.02 9.924zm7.606 22.341c.759-10.291 6.235-18.45 16.708-24.868 5.147-3.155 10.618-5.312 15.244-6.756-3.616 11.517-11.794 28.744-28.743 31.624zm-7.606 43.016c-23.604 0-44.691-10.945-58.482-28.016h116.964c-13.792 17.071-34.878 28.016-58.482 28.016z"/><path d="m485.111 137.424c-14.826 0-26.889 12.062-26.889 26.889v1.598l-77.583 102.581-6.223-109.881c7.032-4.613 11.69-12.563 11.69-21.583 0-9.538-5.207-17.878-12.924-22.342v-24.774c0-32.48-26.425-58.905-58.904-58.905h-218.126c-53.018-.001-96.152 43.133-96.152 96.153 0 63.443 23.55 123.891 66.358 170.607l-7.612 134.396c-8.412 4.255-14.196 12.978-14.196 23.031 0 14.226 11.573 25.799 25.799 25.799h307.958c14.226 0 25.799-11.573 25.799-25.799 0-10.054-5.784-18.776-14.196-23.031l-1.444-25.499 48.461-101.259c1.788-3.736.208-8.214-3.528-10.003-3.734-1.785-8.214-.21-10.003 3.528l-36.689 76.663-4.756-83.967 76.273-100.849v35.381l-19.669 41.098c-1.788 3.736-.208 8.214 3.528 10.003 3.746 1.79 8.217.201 10.003-3.528l11.901-24.868c4.928 6.255 12.563 10.284 21.125 10.284 14.826 0 26.889-12.062 26.889-26.889v-67.945c-.001-14.826-12.063-26.889-26.89-26.889zm-110.383 291.972h-300.801l15.098-266.568h18.767c4.143 0 7.5-3.357 7.5-7.5s-3.357-7.5-7.5-7.5h-19.443c-1.268 0-2.481-.231-3.612-.635-.079-.031-.158-.059-.238-.087-4.056-1.556-6.948-5.48-6.948-10.078 0-5.954 4.845-10.799 10.799-10.799h271.958c5.954 0 10.799 4.845 10.799 10.799 0 6.077-5.011 10.8-10.799 10.8h-217.454c-4.143 0-7.5 3.357-7.5 7.5s3.357 7.5 7.5 7.5h216.776c.781 13.78 14.3 252.472 15.098 266.568zm-56.759-323.576-4.874 5.409h-224.746c-14.226 0-25.799 11.573-25.799 25.799 0 9.021 4.657 16.97 11.69 21.583l-1.559 27.518c-7.748 1.098-15.854-3.638-17.765-12.237-3.795-17.085-5.888-33.653-5.893-46.655-.01-25.958 21.281-47.207 47.264-47.207h210.203c13.415 0 20.46 15.82 11.479 25.79zm-302.969 21.34c0-44.748 36.405-81.153 81.152-81.153h218.125c24.209 0 43.904 19.696 43.904 43.905v21.317h-25.63c12.123-19.799-1.914-46.199-26.062-46.199h-210.202c-34.26 0-62.278 27.947-62.264 62.213.006 14.062 2.226 31.783 6.25 49.902 3.295 14.833 16.782 24.79 31.549 24.135l-4.244 74.927c-34.02-42.16-52.578-94.425-52.578-149.047zm363.307 338.834h-307.958c-5.954 0-10.799-4.845-10.799-10.799 0-6.042 4.961-10.799 10.799-10.799h307.958c5.835 0 10.799 4.754 10.799 10.799-.001 5.954-4.845 10.799-10.799 10.799zm118.693-233.736c0 6.556-5.333 11.889-11.889 11.889s-11.889-5.333-11.889-11.889v-67.945c0-6.556 5.333-11.889 11.889-11.889s11.889 5.333 11.889 11.889z"/></g></g></svg>