<svg id="Capa_1" enable-background="new 0 0 512 512" height="512" viewBox="0 0 512 512" width="512" xmlns="http://www.w3.org/2000/svg"><g><g><g><path d="m188.292 270.786v-219.743c0-24.049-19.496-43.545-43.545-43.545-24.049 0-43.545 19.496-43.545 43.545v219.738c0 4.157-1.503 8.208-4.347 11.239-11.537 12.3-18.395 29.039-17.713 47.386 1.259 33.876 28.647 61.526 62.511 63.081 37.666 1.73 68.747-28.296 68.747-65.581 0-17.338-6.728-33.098-17.709-44.832-2.858-3.051-4.399-7.106-4.399-11.288z" fill="#e2f4ff"/><path d="m144.188 364.648c-19.768-.281-36.438-16.565-37.159-36.3-.414-11.336 4.212-22.153 12.694-29.679l9.387-8.328v-239.298c0-8.622 7.015-15.637 15.637-15.637s15.637 7.015 15.637 15.637v239.297l9.386 8.328c8.085 7.173 12.721 17.466 12.721 28.239 0 10.082-3.926 19.561-11.055 26.689-7.129 7.129-16.608 11.055-26.689 11.055-.001.001-.559-.003-.559-.003z" fill="#f2f9ff"/><path d="m169.77 298.668-9.385-8.328v-165.491h-31.275v165.492l-9.387 8.328c-8.482 7.526-13.109 18.343-12.694 29.679.722 19.735 17.391 36.019 37.159 36.3 0 0 .558.004.559.004 10.082 0 19.561-3.926 26.689-11.055 7.129-7.128 11.055-16.607 11.055-26.689 0-10.773-4.636-21.066-12.721-28.24z" fill="#dd636e"/></g><g><g><g><circle cx="416.264" cy="68.534" fill="#ffd064" r="27.197"/><g><g><g><g><g><g><g><g><g><g fill="#c6e873"><path d="m248.874 158.633c-.356-1.169.721-2.29 1.893-1.945 4.57 1.342 15.945 2.898 42.761-.151 51.911-5.901 43.661 48.185 43.661 48.185s-61.992 40.385-88.315-46.089z"/><path d="m421.459 213.092c.23-1.2-.959-2.201-2.088-1.735-4.403 1.817-15.608 6.138-42.538 4.363-42.996-2.834-40.131 52.66-40.131 52.66s67.707 33.481 84.757-55.288z"/></g></g></g></g></g></g></g></g></g><path d="m436.188 371.486c-26.228-22.703-61.448-36.625-100.203-36.625s-73.975 13.923-100.203 36.625z" fill="#c6865c"/><g><path d="m400.529 504.502h-289.058c-11.707 0-21.974-7.814-25.094-19.097l-28.789-104.115h396.824l-28.789 104.115c-3.12 11.283-13.387 19.097-25.094 19.097z" fill="#eaaa89"/></g><path d="m389.179 381.29-28.789 104.115c-3.12 11.284-13.387 19.097-25.094 19.097h65.233c11.707 0 21.974-7.814 25.094-19.097l28.789-104.115z" fill="#e4936b"/><path d="m465.489 398.078h-418.978c-6.431 0-11.643-5.213-11.643-11.643v-10.289c0-6.431 5.213-11.643 11.643-11.643h418.978c6.431 0 11.643 5.213 11.643 11.643v10.289c.001 6.43-5.212 11.643-11.643 11.643z" fill="#e4936b"/><g><path d="m465.489 364.502h-65.316c6.43 0 11.643 5.213 11.643 11.643v10.289c0 6.43-5.213 11.643-11.643 11.643h65.316c6.43 0 11.643-5.213 11.643-11.643v-10.289c0-6.43-5.213-11.643-11.643-11.643z" fill="#e27d47"/></g></g></g></g></g></g><g><path d="m416.264 22.821c4.141 0 7.498-3.357 7.498-7.498v-7.658c0-4.141-3.357-7.498-7.498-7.498s-7.498 3.357-7.498 7.498v7.657c0 4.142 3.357 7.499 7.498 7.499z"/><path d="m408.766 121.746v7.658c0 4.141 3.357 7.498 7.498 7.498s7.498-3.357 7.498-7.498v-7.658c0-4.141-3.357-7.498-7.498-7.498s-7.498 3.357-7.498 7.498z"/><path d="m453.89 38.406c1.919 0 3.838-.732 5.302-2.196l5.415-5.415c2.928-2.928 2.928-7.676 0-10.604s-7.676-2.928-10.604 0l-5.415 5.415c-2.928 2.928-2.928 7.676 0 10.604 1.464 1.464 3.383 2.196 5.302 2.196z"/><path d="m373.336 100.859-5.415 5.415c-2.928 2.928-2.928 7.676 0 10.604 1.464 1.464 3.383 2.196 5.302 2.196s3.838-.732 5.302-2.196l5.415-5.415c2.928-2.928 2.928-7.676 0-10.604-2.929-2.928-7.676-2.928-10.604 0z"/><path d="m461.977 68.534c0 4.141 3.357 7.498 7.498 7.498h7.658c4.141 0 7.498-3.357 7.498-7.498s-3.357-7.498-7.498-7.498h-7.658c-4.141 0-7.498 3.357-7.498 7.498z"/><path d="m355.395 76.032h7.657c4.141 0 7.498-3.357 7.498-7.498s-3.357-7.498-7.498-7.498h-7.657c-4.141 0-7.498 3.357-7.498 7.498s3.357 7.498 7.498 7.498z"/><path d="m448.588 100.859c-2.928 2.928-2.928 7.676 0 10.604l5.415 5.415c1.464 1.464 3.383 2.196 5.302 2.196s3.838-.732 5.302-2.196c2.928-2.928 2.928-7.676 0-10.604l-5.415-5.415c-2.928-2.928-7.676-2.928-10.604 0z"/><path d="m373.336 36.21c1.464 1.464 3.383 2.196 5.302 2.196s3.838-.732 5.302-2.196c2.928-2.928 2.928-7.676 0-10.604l-5.415-5.415c-2.928-2.928-7.676-2.928-10.604 0s-2.928 7.676 0 10.604z"/><path d="m416.264 103.229c19.131 0 34.695-15.564 34.695-34.695s-15.564-34.695-34.695-34.695-34.695 15.564-34.695 34.695 15.564 34.695 34.695 34.695zm0-54.394c10.862 0 19.699 8.837 19.699 19.699s-8.837 19.699-19.699 19.699-19.699-8.837-19.699-19.699 8.837-19.699 19.699-19.699z"/><path d="m465.489 357.004h-35.616c-25.074-17.927-54.652-28.028-86.108-29.458l.37-48.477c15.447 4.407 31.981 4.377 46.423-2.795 19.365-9.617 32.24-30.398 38.265-61.768 1.354-7.05-5.673-12.816-12.312-10.081-3.305 1.364-13.365 5.516-39.185 3.812-12.751-.837-24.022 2.595-32.74 11.594l.112-14.69c4.281-34.232-13.773-60.401-52.016-56.055-26.796 3.046-36.761 1.299-39.802.406-6.885-2.021-13.269 4.453-11.179 11.322v.001c9.403 30.89 24.414 50.28 44.618 57.631 14.214 5.172 29.416 3.687 43.294-1.699-.494 61.182-.105 7.597-.844 110.771-31.666 1.334-61.447 11.452-86.671 29.485h-30.661c4.248-9.39 6.461-19.597 6.461-30.097 0-18.617-7.007-36.358-19.731-49.955-1.532-1.637-2.375-3.827-2.375-6.167v-219.74c-.002-28.146-22.9-51.044-51.045-51.044s-51.043 22.898-51.043 51.044v105.043c0 4.141 3.357 7.498 7.498 7.498s7.498-3.357 7.498-7.498v-105.043c0-19.877 16.171-36.048 36.047-36.048s36.048 16.171 36.048 36.048v219.743c0 6.159 2.281 11.988 6.422 16.413 10.115 10.809 15.685 24.91 15.685 39.708 0 10.713-2.895 21.038-8.391 30.097h-15.991c7.411-8.295 11.469-18.882 11.469-30.097 0-25.526-19.514-36.768-22.107-39.938v-235.927c0-12.757-10.379-23.135-23.135-23.135s-23.135 10.379-23.135 23.135v235.927c-2.562 3.186-23.052 14.961-22.076 41.652.393 10.736 4.793 20.701 11.731 28.383h-16.198c-5.162-8.453-8.068-18.012-8.435-27.875-.582-15.663 4.99-30.571 15.69-41.979 4.111-4.384 6.376-10.197 6.376-16.369v-79.519c0-4.141-3.357-7.498-7.498-7.498s-7.498 3.357-7.498 7.498v79.519c0 2.347-.823 4.516-2.318 6.11-13.46 14.35-20.47 33.099-19.737 52.794.352 9.484 2.566 18.739 6.474 27.318h-31.612c-10.555 0-19.141 8.587-19.141 19.141v10.289c0 10.555 8.587 19.141 19.141 19.141h10.013l22.626 81.827c4.005 14.483 17.296 24.598 32.321 24.598h289.058c15.026 0 28.316-10.115 32.321-24.596l22.626-81.827h10.013c10.555 0 19.142-8.587 19.142-19.141v-10.289c0-10.556-8.587-19.143-19.142-19.143zm-174.149-152.688c-13.596-4.994-24.41-18.024-32.219-38.784 8.837.616 20.765.101 35.254-1.545 25.344-2.883 37.087 10.345 35.707 36.127-6.574 3.355-22.818 10.051-38.742 4.202zm85 18.886c16.669 1.099 27.796.006 35.522-1.689-5.56 20.933-14.913 34.797-27.875 41.281-15.153 7.577-32.041 3.277-39.733.559l.005-.654c1.076-22.285 9.48-40.984 32.081-39.497zm-40.355 119.156c22.935 0 44.895 5.012 64.682 14.646h-129.364c19.787-9.633 41.747-14.646 64.682-14.646zm-191.238-299.454c4.488 0 8.139 3.651 8.139 8.139v66.308h-16.278v-66.308c0-4.488 3.651-8.139 8.139-8.139zm-30.225 285.17c-.708-19.371 15.183-27.051 19.564-32.124 1.604-1.423 2.522-3.465 2.522-5.609v-157.994h16.278v157.994c0 2.144.918 4.185 2.522 5.608 4.49 5.119 19.585 12.447 19.585 30.959 0 8.079-3.146 15.675-8.858 21.387-5.027 5.027-11.392 8.034-18.424 8.709h-5.831c-14.826-1.454-26.816-14.102-27.358-28.93zm355.113 58.361c0 2.286-1.86 4.145-4.146 4.145h-124.075c-4.141 0-7.498 3.357-7.498 7.498s3.357 7.498 7.498 7.498h98.503l-21.521 77.831c-2.213 8.006-9.56 13.597-17.867 13.597h-289.058c-8.306 0-15.654-5.591-17.868-13.597l-21.521-77.83h234.278c4.141 0 7.498-3.357 7.498-7.498s-3.357-7.498-7.498-7.498h-259.849c-2.286 0-4.145-1.86-4.145-4.145v-10.289c0-2.286 1.86-4.145 4.145-4.145h418.978c2.286 0 4.146 1.86 4.146 4.145z"/></g></g></svg>