<svg id="Capa_1" enable-background="new 0 0 512 512" height="512" viewBox="0 0 512 512" width="512" xmlns="http://www.w3.org/2000/svg"><g><g><g><path d="m472.567 272.887-38.519-56.263c-6.827-9.972-10.886-21.552-11.953-33.59-8.761-98.842-92.121-176.243-193.406-175.529-106.468.751-191.513 86.535-191.387 193.006.065 55.031 23.205 104.63 60.254 139.696 28.722 27.184 45.561 64.588 45.561 104.134v54.848h183.288v-80.736c0-4.044 3.278-7.323 7.323-7.323h77.079c17.337 0 30.465-15.664 27.435-32.734l-13.86-78.079c-.796-4.486 2.654-8.603 7.21-8.603h31.045c9.679.003 15.397-10.841 9.93-18.827z" fill="#ffddce"/><g fill="#ffcbbe"><path d="m262.368 418.454v80.736h64.038v-80.736c0-4.044 3.279-7.323 7.323-7.323h-64.038c-4.044 0-7.323 3.279-7.323 7.323z"/><path d="m472.567 272.887-38.519-56.263c-6.827-9.972-10.885-21.552-11.952-33.59-8.762-98.842-92.122-176.243-193.407-175.529-10.458.074-20.705.98-30.69 2.633 91.258 15.226 160.819 94.558 160.819 190.139v3.403c0 58.577 5.149 117.041 15.387 174.717 3.03 17.07-10.098 32.734-27.435 32.734h64.038c17.337 0 30.465-15.663 27.435-32.734l-13.86-78.079c-.796-4.486 2.654-8.603 7.21-8.603h31.045c9.678.002 15.396-10.842 9.929-18.828z"/></g><path d="m330.107 504.5h-196.244c-10.505 0-19.021-8.516-19.021-19.021v-27.57c0-10.505 8.516-19.021 19.021-19.021h196.244c10.505 0 19.021 8.516 19.021 19.021v27.57c0 10.505-8.516 19.021-19.021 19.021z" fill="#e07f84"/><path d="m330.107 438.889h-65.372c10.505 0 19.021 8.516 19.021 19.021v27.57c0 10.505-8.516 19.021-19.021 19.021h65.372c10.505 0 19.021-8.516 19.021-19.021v-27.57c0-10.505-8.516-19.021-19.021-19.021z" fill="#dd636e"/></g><g><g><circle cx="221.192" cy="194.482" fill="#f2f9ff" r="117.753"/></g><path d="m221.192 312.236c29.64 0 56.72-10.955 77.419-29.032-23.401-11.35-49.664-17.721-77.419-17.721s-54.018 6.371-77.419 17.721c20.699 18.077 47.779 29.032 77.419 29.032z" fill="#c6865c"/><g><g fill="#c6e873"><path d="m156.48 153.823c-.256-.816.493-1.607 1.315-1.373 3.208.915 11.182 1.941 29.944-.341 36.319-4.418 30.84 33.502 30.84 33.502s-43.19 28.622-62.099-31.788z"/><path d="m281.841 191.4c.166-.901-.732-1.645-1.577-1.289-3.293 1.389-11.673 4.697-31.886 3.524-32.271-1.872-29.794 39.741-29.794 39.741s50.99 24.717 63.257-41.976z"/></g></g></g></g><g><path d="m478.755 268.651-38.52-56.263c-6.019-8.792-9.708-19.172-10.67-30.016-4.422-49.893-27.3-96.051-64.418-129.973-78.739-71.958-201.543-69.872-277.451 6.683-37.397 37.717-57.957 87.947-57.894 141.438.066 55.757 23.021 107.676 62.6 145.135 24.458 23.149 39.384 53.348 42.559 85.734h-1.098c-14.623 0-26.521 11.897-26.521 26.521v27.57c0 14.624 11.897 26.521 26.521 26.521h196.244c14.623 0 26.521-11.897 26.521-26.521v-27.57c0-13.333-9.892-24.396-22.722-26.245v-13.033h76.902c22.02 0 38.661-19.902 34.819-41.545l-13.822-77.87h30.833c15.687-.001 24.986-17.613 16.117-30.566zm-16.117 15.565h-31.045c-9.211 0-16.209 8.323-14.595 17.413l13.859 78.079c2.216 12.484-7.392 23.923-20.05 23.923h-77.08c-8.173 0-14.822 6.649-14.822 14.823v12.934h-120.905c-4.143 0-7.5 3.358-7.5 7.5s3.357 7.5 7.5 7.5h132.107c6.353 0 11.521 5.168 11.521 11.521v27.57c0 6.353-5.168 11.521-11.521 11.521h-196.244c-6.353 0-11.521-5.168-11.521-11.521v-27.57c0-6.353 5.168-11.521 11.521-11.521h29.053c4.143 0 7.5-3.358 7.5-7.5s-3.357-7.5-7.5-7.5h-12.882c-3.213-36.543-19.846-70.625-47.321-96.628-37.283-35.287-57.85-82.967-57.91-134.258-.059-49.501 18.958-95.975 53.547-130.858 70.043-70.641 183.663-72.9 256.68-6.171 34.341 31.383 55.506 74.08 59.596 120.225 1.188 13.402 5.765 26.253 13.234 37.165l38.52 56.263c2.059 3.009-.09 7.09-3.742 7.09z"/><path d="m221.192 69.229c-26.89 0-52.521 8.395-74.121 24.276-3.338 2.454-4.054 7.148-1.601 10.485 2.454 3.336 7.147 4.054 10.485 1.6 19.008-13.975 41.566-21.361 65.236-21.361 60.794 0 110.253 49.459 110.253 110.253 0 31.353-13.155 59.692-34.235 79.786-22.459-10.143-46.34-15.586-71.125-16.218v-14.298c3.797.893 8.365 1.599 13.327 1.599 6.438 0 13.539-1.188 20.468-4.697 15.021-7.607 24.892-23.722 29.338-47.897.001-.002.001-.004.001-.006.575-3.137-.614-6.327-3.104-8.325-2.48-1.99-5.841-2.46-8.766-1.225-18.833 7.943-35.17-3.272-51.265 9.459v-6.645c.415-3.715 1.754-21.6-9.271-32.877-16.778-17.156-40.802-3.294-56.962-7.901-3.027-.862-6.277.003-8.479 2.26-2.208 2.264-2.994 5.544-2.052 8.562.001.001.001.003.002.004 6.977 22.291 18.065 36.274 32.956 41.56 9.437 3.351 19.412 2.762 28.806-.35v60.983c-22.922 1.217-45.03 6.583-65.91 16.013-40.485-38.591-45.617-100.988-12.521-145.5 2.472-3.324 1.78-8.022-1.544-10.494-3.323-2.474-8.022-1.78-10.493 1.543-61.109 82.19-2.005 199.918 100.575 199.918 68.89 0 125.253-56.019 125.253-125.253.002-69.066-56.187-125.254-125.251-125.254zm12.771 136.464c8.421-8.436 17.446-1.898 38.118-5.486-3.976 13.563-10.305 22.63-18.885 27.017-9.938 5.082-21.101 2.858-27.054.998.345-6.068 1.84-16.54 7.821-22.529zm-46.666-22.207c-8.235-2.923-15.008-10.476-20.202-22.502 19.256.277 31.132-5.339 38.96 2.606 4.46 4.527 5.386 12.352 5.331 17.414-4.808 2.307-14.582 5.858-24.089 2.482zm-28.984 101.508c19.953-7.966 41.046-12.012 62.879-12.012s42.926 4.046 62.879 12.012c-17.848 12.437-39.524 19.742-62.879 19.742s-45.031-7.306-62.879-19.742z"/></g></g></svg>