<svg id="Capa_1" enable-background="new 0 0 512 512" height="512" viewBox="0 0 512 512" width="512" xmlns="http://www.w3.org/2000/svg"><g><g><g><path d="m10.972 391.753c0-20.751 16.822-37.574 37.573-37.574h414.909c20.751 0 37.573 16.822 37.573 37.573 0 20.751-16.822 37.573-37.573 37.573h-414.909c-20.751.001-37.573-16.821-37.573-37.572z" fill="#afe2f7"/><path d="m463.455 354.179h-65.333c20.751 0 37.574 16.822 37.574 37.573 0 .091 0 .181-.001.272-.06 8.346-6.999 15.015-15.345 15.015h-371.803c-16.871 0-31.145-11.12-35.893-26.43-1.092 3.521-1.681 7.263-1.681 11.143 0 20.751 16.822 37.573 37.573 37.573h414.909c20.751 0 37.573-16.822 37.573-37.573 0-20.75-16.822-37.573-37.573-37.573z" fill="#8fd6f7"/><g fill="#afe2f7"><path d="m10.972 316.613c0-20.751 16.822-37.574 37.573-37.574h414.909c20.751 0 37.573 16.822 37.573 37.573 0 20.751-16.822 37.573-37.573 37.573h-414.909c-20.751.001-37.573-16.821-37.573-37.572z"/><path d="m10.972 466.9c0-20.751 16.822-37.574 37.573-37.574h414.909c20.751 0 37.573 16.822 37.573 37.573 0 20.751-16.822 37.573-37.573 37.573h-414.909c-20.751.001-37.573-16.821-37.573-37.572z"/><path d="m177.662 357.891v60.67c0 5.961 4.832 10.793 10.793 10.793h275c20.751 0 37.573 16.822 37.573 37.573 0 20.751-16.822 37.573-37.573 37.573h-291.602c-38.294 0-69.337-31.043-69.337-69.337v-77.272z"/></g><path d="m463.455 279.039h-65.333c20.751 0 37.574 16.822 37.574 37.573 0 .091 0 .181-.001.272-.06 8.346-6.999 15.015-15.345 15.015h-371.805c-16.871 0-31.145-11.12-35.893-26.43-1.092 3.521-1.681 7.263-1.681 11.143 0 20.751 16.822 37.574 37.574 37.574h414.909c20.751 0 37.573-16.822 37.573-37.573.001-20.752-16.821-37.574-37.572-37.574z" fill="#8fd6f7"/><path d="m463.455 429.353h-65.333c20.751 0 37.574 16.822 37.574 37.573v.163c-.023 8.388-6.956 15.123-15.345 15.123h-248.049c-28.325 0-51.286-22.962-51.286-51.286v-73.036h-18.5v77.272c0 38.294 31.043 69.337 69.337 69.337h291.602c20.751 0 37.573-16.822 37.573-37.573 0-20.751-16.822-37.573-37.573-37.573z" fill="#8fd6f7"/></g><g><g><path d="m106.944 281.753h65.723v80.496h-65.723z" fill="#f2f9ff"/><g><path d="m172.707 300.024c6.32 0 11.444-5.123 11.444-11.444v-105.287c0-18.202-16.222-18.202-16.222-36.403s16.222-18.201 20.45-57.273h-73.523l-18.506 197.898c-.628 6.712 4.653 12.509 11.394 12.509z" fill="#e490d0"/><g><path d="m120.28 61.011-48.754 4.485c-7.31.673-12.66 7.192-11.891 14.493l2.357 22.395c.754 7.167 7.128 12.397 14.304 11.737l49.098-4.517z" fill="#4a80aa"/><g><g><g><path d="m181.581 26.386-27.25 18.059c-4.08 2.704-8.753 4.384-13.621 4.896l-32.495 3.419c-6.002.632-10.356 6.01-9.725 12.012l4.337 41.216c.632 6.002 6.01 10.356 12.012 9.725l32.495-3.419c4.868-.512 9.788.158 14.342 1.953l30.412 11.991c4.554 1.796 9.474 2.466 14.342 1.953l50.854-5.351-11.228-106.701-50.854 5.351c-4.868.512-9.541 2.192-13.621 4.896z" fill="#e2f4ff"/></g></g></g><path d="m218.042 17.609h33.721v107.291h-33.721z" fill="#e490d0" transform="matrix(.995 -.105 .105 .995 -6.167 24.974)"/></g></g></g><path d="m180.242 378.839h-80.873c-8.315 0-15.055-6.741-15.055-15.055v-11.785c0-8.315 6.741-15.055 15.055-15.055h80.874c8.315 0 15.055 6.741 15.055 15.055v11.785c0 8.314-6.741 15.055-15.056 15.055z" fill="#eaaadd"/></g></g><path d="m508.528 391.753c0-15.669-8.041-29.49-20.209-37.57 12.168-8.08 20.209-21.901 20.209-37.57 0-24.854-20.22-45.074-45.073-45.074h-271.804l.001-88.246c0-11.958-5.552-18.187-10.013-23.192-3.739-4.196-6.21-6.968-6.21-13.211 0-5.512 1.929-8.414 5.43-13.681.555-.834 1.141-1.726 1.738-2.65l6.741 2.658c5.61 2.211 11.779 3.074 17.877 2.435 15.006-1.579 28.588-3.008 43.395-4.567l.124 1.179c.432 4.104 4.105 7.106 8.244 6.674 4.119-.434 7.107-4.124 6.674-8.244-2.93-27.848-10.174-96.685-13.046-123.978-.434-4.119-4.117-7.108-8.244-6.674-4.119.434-7.107 4.125-6.674 8.244l.124 1.179-43.395 4.567c-6.043.636-11.914 2.747-16.979 6.103l-27.25 18.059c-3.061 2.029-6.609 3.304-10.263 3.688l-32.495 3.419c-6.724.708-12.213 4.977-14.833 10.725l-21.757 2.002c-11.483 1.056-19.871 11.276-18.664 22.746l2.356 22.394c1.11 10.555 10.138 18.508 20.562 18.507.625 0 1.255-.028 1.889-.087l1.239-.114c-21.404 18.616-46.954 48.427-56.598 89.956-.937 4.035 1.574 8.065 5.609 9.002 4.028.935 8.063-1.567 9.002-5.609 11.38-49.004 47.192-80.185 67.582-94.448.195.124.396.238.595.355l-3.504 37.474c-.386 4.124 2.646 7.78 6.77 8.166.237.022.473.033.707.033 3.827 0 7.095-2.916 7.459-6.802l3.443-36.816 28.833-3.034c3.652-.385 7.389.125 10.806 1.472l9.418 3.714c-3.896 5.861-7.915 11.928-7.915 21.951 0 11.958 5.552 18.187 10.013 23.192 3.739 4.196 6.21 6.968 6.21 13.211l-.001 95.745v.002s0 .001 0 .002v9.54c0 2.174-1.769 3.943-3.943 3.943h-64.964c-.003 0-.006-.001-.009-.001-.054-.006-.109-.006-.163-.011-2.247-.095-3.966-2.043-3.754-4.3l8.754-93.618c.386-4.124-2.646-7.78-6.77-8.166-4.108-.389-7.779 2.645-8.166 6.769l-7.325 78.341h-41.766c-24.853 0-45.073 20.22-45.073 45.074 0 15.669 8.041 29.49 20.209 37.57-12.168 8.08-20.209 21.901-20.209 37.57 0 15.671 8.044 29.494 20.215 37.573-12.171 8.082-20.215 21.905-20.215 37.576 0 24.853 20.22 45.074 45.073 45.074 61.167.004 411.157.026 414.91.026 24.853 0 45.073-20.22 45.073-45.074 0-15.68-8.053-29.509-20.235-37.587 12.182-8.077 20.235-21.906 20.235-37.586zm-259.487-275.586-18.618 1.959-9.658-91.784 18.618-1.959zm-173.432-9.514c-3.069.276-5.835-1.984-6.158-5.053l-2.356-22.395c-.332-3.153 1.976-5.95 5.12-6.24l19.409-1.786 3.543 33.674zm74.88-2.024c-1.314 0-2.631.068-3.939.206l-32.495 3.419c-1.877.207-3.571-1.17-3.769-3.05l-4.337-41.217c-.024-.228-.023-.452-.003-.672 0-.01.002-.021.002-.031.159-1.581 1.41-2.892 3.052-3.065l32.495-3.419c6.044-.636 11.915-2.747 16.979-6.103l27.25-18.059c3.062-2.029 6.61-3.304 10.263-3.688l9.859-1.038 9.658 91.784-9.86 1.037c-3.651.385-7.389-.125-10.806-1.472l-30.41-11.991c-4.428-1.746-9.181-2.641-13.939-2.641zm312.966 181.91c16.582 0 30.073 13.491 30.073 30.074 0 16.537-13.419 29.997-29.938 30.07-.045 0-.09-.003-.135-.003-.046 0-.09.006-.135.007h-261.16c-2.395-9.881-11.31-17.244-21.918-17.244h-.075v-23.455c6.746-2.902 11.483-9.61 11.483-17.407v-2.041h271.805zm-283.213 84.8h-80.874c-4.166 0-7.556-3.39-7.556-7.556v-11.785c0-4.166 3.39-7.556 7.556-7.556h80.874c4.166 0 7.556 3.39 7.556 7.556v11.785c0 4.166-3.39 7.556-7.556 7.556zm-65.798-63.815h50.724v21.919h-50.724zm-95.972 9.089c0-16.582 13.491-30.074 30.073-30.074h40.363l-.026.277c-.697 7.451 3.088 15.116 10.562 18.763v23.864h-.075c-10.608 0-19.523 7.362-21.918 17.244h-28.77c-.046-.001-.09-.007-.135-.007s-.09.003-.135.003c-16.52-.073-29.939-13.533-29.939-30.07zm0 75.14c0-16.537 13.419-29.997 29.938-30.07.045 0 .09.003.135.003h28.268v2.097c0 10.948 7.842 20.096 18.203 22.13v35.913h-46.471c-16.582 0-30.073-13.491-30.073-30.073zm30.073 105.221c-16.582 0-30.073-13.491-30.073-30.074s13.491-30.074 30.073-30.074h46.513c.528 24.634 12.687 46.449 31.214 60.147h-77.727zm414.91-75.148c-.18 0-.356.014-.532.027h-91.423c-4.143 0-7.5 3.358-7.5 7.5s3.357 7.5 7.5 7.5h91.955c16.582 0 30.073 13.491 30.073 30.073s-13.491 30.074-30.073 30.074h-291.602c-34.097 0-61.837-27.74-61.837-61.837v-48.824h60.146v32.222c0 10.087 8.206 18.293 18.293 18.293h147.859c4.143 0 7.5-3.358 7.5-7.5s-3.357-7.5-7.5-7.5h-147.859c-1.815 0-3.293-1.477-3.293-3.293v-32.769c10.078-2.252 17.636-11.262 17.636-22.009v-2.097h260.657c.045 0 .09-.003.135-.003 16.52.073 29.938 13.533 29.938 30.07 0 16.583-13.491 30.073-30.073 30.073z"/></g></svg>