<svg id="Capa_1" enable-background="new 0 0 512 512" height="512" viewBox="0 0 512 512" width="512" xmlns="http://www.w3.org/2000/svg"><g><g><g><path d="m318.331 472.458h-124.662l34.998-147.241h54.666z" fill="#e2f4ff"/><g><path d="m476.086 386.274h-440.172c-15.693 0-28.414-12.721-28.414-28.414v-306.062c0-15.693 12.721-28.414 28.414-28.414h440.172c15.693 0 28.414 12.721 28.414 28.414v306.062c0 15.692-12.721 28.414-28.414 28.414z" fill="#d1ecf9"/><path d="m476.086 23.384h-65.333c15.693 0 28.414 12.721 28.414 28.414v306.062c0 15.693-12.721 28.414-28.414 28.414h65.333c15.693 0 28.414-12.721 28.414-28.414v-306.062c0-15.693-12.721-28.414-28.414-28.414z" fill="#afe2f7"/><path d="m7.5 328.011v29.849c0 15.693 12.721 28.414 28.414 28.414h440.172c15.693 0 28.414-12.721 28.414-28.414v-29.849z" fill="#f2f9ff"/><path d="m504.5 357.86v-29.849h-65.333v29.849c0 15.693-12.721 28.414-28.414 28.414h65.333c15.693 0 28.414-12.722 28.414-28.414z" fill="#d1ecf9"/></g><path d="m343.889 488.616h-175.778c-8.07 0-14.611-6.542-14.611-14.611 0-18.845 15.276-34.121 34.121-34.121h136.758c18.845 0 34.121 15.276 34.121 34.121 0 8.069-6.542 14.611-14.611 14.611z" fill="#d1ecf9"/><path d="m324.379 439.884h-64.905c18.844 0 34.121 15.276 34.121 34.121v14.611h50.294c8.07 0 14.611-6.542 14.611-14.611 0-18.845-15.276-34.121-34.121-34.121z" fill="#afe2f7"/></g><g><path d="m54.755 249.534v-144.227c0-12.659 10.263-22.922 22.922-22.922h138.489c12.659 0 22.922 10.263 22.922 22.922v144.227c0 12.659-10.263 22.922-22.922 22.922h-138.489c-12.659 0-22.922-10.262-22.922-22.922z" fill="#f2f9ff"/><g><g><g fill="#c6e873"><path d="m85.514 136.425c-.253-.808.488-1.592 1.302-1.36 3.177.906 11.074 1.923 29.656-.338 35.97-4.375 30.543 33.18 30.543 33.18s-42.773 28.348-61.501-31.482z"/><path d="m205.506 173.253c.153-.833-.677-1.521-1.458-1.192-3.044 1.284-10.791 4.342-29.478 3.258-29.835-1.731-27.545 36.741-27.545 36.741s47.14 22.851 58.481-38.807z"/></g></g><path d="m216.185 272.456c-13.808-21.755-39.644-36.408-69.263-36.408s-55.456 14.654-69.264 36.408z" fill="#c6865c"/></g></g></g><g><path d="m457.245 112.732h-171c-4.143 0-7.5 3.357-7.5 7.5s3.357 7.5 7.5 7.5h171c4.143 0 7.5-3.357 7.5-7.5s-3.357-7.5-7.5-7.5z"/><path d="m457.245 150.955h-171c-4.143 0-7.5 3.357-7.5 7.5s3.357 7.5 7.5 7.5h171c4.143 0 7.5-3.357 7.5-7.5s-3.357-7.5-7.5-7.5z"/><path d="m464.745 196.677c0-4.143-3.357-7.5-7.5-7.5h-171c-4.143 0-7.5 3.357-7.5 7.5s3.357 7.5 7.5 7.5h171c4.143 0 7.5-3.358 7.5-7.5z"/><path d="m286.245 227.399c-4.143 0-7.5 3.357-7.5 7.5s3.357 7.5 7.5 7.5h85.5c4.143 0 7.5-3.357 7.5-7.5s-3.357-7.5-7.5-7.5z"/><path d="m504.5 262.425c4.143 0 7.5-3.357 7.5-7.5v-203.127c0-19.803-16.111-35.914-35.914-35.914h-440.172c-19.803 0-35.914 16.111-35.914 35.914v306.062c0 19.803 16.111 35.914 35.914 35.914h168.749l-9.177 38.61h-7.865c-22.95 0-41.621 18.671-41.621 41.621 0 12.192 9.919 22.111 22.111 22.111h175.777c12.192 0 22.111-9.919 22.111-22.111 0-22.95-18.671-41.621-41.621-41.621h-7.865l-9.177-38.61h168.749c19.803 0 35.914-16.111 35.914-35.914v-67.872c0-4.143-3.357-7.5-7.5-7.5s-7.5 3.357-7.5 7.5v30.523h-481.999v-268.713c0-11.532 9.382-20.914 20.914-20.914h440.172c11.532 0 20.914 9.382 20.914 20.914v203.127c0 4.142 3.357 7.5 7.5 7.5zm-153.5 211.58c0 3.921-3.19 7.111-7.111 7.111h-175.778c-3.921 0-7.111-3.19-7.111-7.111 0-14.679 11.942-26.621 26.621-26.621h136.758c14.679 0 26.621 11.942 26.621 26.621zm-49.904-41.621h-90.192l9.177-38.61h71.838zm195.904-96.873v22.349c0 11.532-9.382 20.914-20.914 20.914h-440.172c-11.532 0-20.914-9.382-20.914-20.914v-22.349z"/><path d="m54.755 184.649c-4.143 0-7.5 3.357-7.5 7.5v57.385c0 16.774 13.647 30.422 30.422 30.422h138.489.008c.006 0 .012.001.019.001.012 0 .025-.003.038-.003 16.746-.035 30.359-13.667 30.359-30.42v-144.226c0-16.774-13.647-30.422-30.423-30.422h-138.49c-16.774 0-30.422 13.647-30.422 30.422v51.779c0 4.143 3.357 7.5 7.5 7.5s7.5-3.357 7.5-7.5v-51.779c0-8.504 6.918-15.422 15.422-15.422h138.489c8.504 0 15.423 6.918 15.423 15.422v144.227c0 7.238-5.018 13.309-11.754 14.962-14.709-20.344-38.899-33.496-65.311-35.632v-6.512c32.861 7.317 52.231-14.434 58.357-47.743.571-3.105-.604-6.264-3.066-8.243-2.455-1.973-5.784-2.438-8.683-1.216-16.929 7.138-31.598-2.672-46.608 8.143v-5.007c2.799-25.278-11.028-44.401-38.958-41.003-18.657 2.271-25.149 1.01-26.691.571-3.029-.865-6.271 0-8.471 2.256-2.206 2.263-2.99 5.54-2.048 8.555l.001.001c6.917 22.1 17.914 35.964 32.684 41.207 9.235 3.277 19.066 2.785 28.483-.317v49.294c-26.492 2.084-50.769 15.251-65.516 35.648-6.735-1.653-11.753-7.725-11.753-14.963v-57.385c0-4.144-3.358-7.502-7.5-7.502zm106.887 2.217c7.374-7.384 15.518-1.837 34.038-4.765-7.083 23.154-21.835 30.595-41.079 24.781.357-5.573 1.775-14.741 7.041-20.016zm-68.97-52.681c.002.006.003.01.005.014-.002-.005-.003-.011-.005-.014zm54.25 109.363c20.587 0 40.025 7.962 53.615 21.408h-107.23c13.59-13.446 33.028-21.408 53.615-21.408zm-30.863-77.813c-8.113-2.879-14.791-10.312-19.921-22.145 5.734.089 12.833-.395 21.24-1.418 14.598-1.78 22.606 4.283 22.441 21.128-4.764 2.279-14.392 5.761-23.76 2.435z"/></g></g></svg>