<svg id="Capa_1" enable-background="new 0 0 512 512" height="512" viewBox="0 0 512 512" width="512" xmlns="http://www.w3.org/2000/svg"><g><g><path d="m407.1 125.32c-9.297 0-18.168 1.805-26.307 5.053-15.485-23.316-41.753-38.828-71.69-39.454-5.762-19.82-24.045-34.31-45.724-34.31-14.395 0-27.287 6.396-36.02 16.489-11.365-4.012-23.591-6.203-36.33-6.203-43.674 0-81.348 25.663-98.783 62.729-36.158.195-65.411 29.558-65.411 65.762 0 36.324 29.447 65.771 65.771 65.771 8.711 0 17.018-1.709 24.626-4.784 19.426 17.848 45.337 28.748 73.797 28.748 28.4 0 54.263-10.853 73.676-28.635 12.614 6.949 27.103 10.912 42.522 10.912 19.892 0 38.244-6.585 53.004-17.688 12.509 10.997 28.904 17.679 46.868 17.679 39.231 0 71.034-31.803 71.034-71.034s-31.802-71.035-71.033-71.035z" fill="#c6e873"/><g><path d="m369.321 65.703h30.407v77.274h-30.407z" fill="#d1ecf9" transform="matrix(.707 .707 -.707 .707 186.404 -241.339)"/><path d="m319.568 223.875-36.022-1.842c-9.033-.462-16.253-7.682-16.714-16.714l-1.842-36.023c-.953-18.645 4.945-36.995 16.583-51.593l29.595-37.121c10.139-12.717 29.087-13.782 40.587-2.282l58.808 58.808c11.501 11.501 10.435 30.448-2.282 40.587l-37.121 29.596c-14.597 11.639-32.947 17.537-51.592 16.584z" fill="#f2f9ff"/><g><path d="m410.564 137.108-41.871-41.871c8.374 8.374 7.598 22.17-1.661 29.553l-43.606 34.766c-14.598 11.638-32.948 17.537-51.593 16.583l-6.51-.333 1.509 29.512c.462 9.033 7.682 16.253 16.714 16.714l36.022 1.842c18.645.953 36.995-4.945 51.593-16.583l37.121-29.596c12.717-10.138 13.782-29.086 2.282-40.587z" fill="#e2f4ff"/></g><path d="m409.12 91.516-11.772-11.772c-5.853-5.853-5.853-15.344 0-21.197l46.652-46.652c5.853-5.853 15.344-5.853 21.197 0l11.772 11.772c5.853 5.853 5.853 15.344 0 21.197l-46.652 46.652c-5.853 5.854-15.343 5.854-21.197 0z" fill="#4a80aa"/></g><g><g><g><g><path d="m23.544 200.035h464.913v258.656h-464.913z" fill="#e4936b"/></g><g><path d="m23.544 200.035h58.027v258.656h-58.027z" fill="#e27d47"/></g><g><path d="m430.429 200.035h58.027v258.656h-58.027z" fill="#dd6938"/></g><g><path d="m488.39 446.156h-464.78c-8.477 0-15.349 6.872-15.349 15.349v27.645c0 8.477 6.872 15.349 15.349 15.349h464.78c8.477 0 15.349-6.872 15.349-15.349v-27.645c.001-8.476-6.872-15.349-15.349-15.349z" fill="#eaaa89"/><path d="m488.39 170.864h-464.78c-8.477 0-15.349 6.872-15.349 15.349v27.645c0 8.477 6.872 15.349 15.349 15.349h464.78c8.477 0 15.349-6.872 15.349-15.349v-27.645c.001-8.477-6.872-15.349-15.349-15.349z" fill="#eaaa89"/><g fill="#e4936b"><path d="m488.39 170.864h-67.069c8.477 0 15.349 6.872 15.349 15.349v27.645c0 8.477-6.872 15.349-15.349 15.349h67.069c8.477 0 15.349-6.872 15.349-15.349v-27.645c.001-8.477-6.872-15.349-15.349-15.349z"/><path d="m488.39 446.156h-67.069c8.477 0 15.349 6.872 15.349 15.349v27.645c0 8.477-6.872 15.349-15.349 15.349h67.069c8.477 0 15.349-6.872 15.349-15.349v-27.645c.001-8.476-6.872-15.349-15.349-15.349z"/></g></g></g></g><g><circle cx="459.443" cy="475.328" r="7.693"/><circle cx="52.557" cy="475.328" r="7.693"/></g><g><circle cx="459.443" cy="200.035" r="7.693"/><circle cx="52.557" cy="200.035" r="7.693"/></g></g></g><g><path d="m269.971 402.904c-21.58 4.802-43.786-1.649-59.398-17.261-21.435-21.435-24.493-54.376-9.209-79.115l1.238 5.557c.778 3.494 3.876 5.871 7.313 5.871 4.798 0 8.372-4.443 7.327-9.133l-4.653-20.886c-.766-3.433-3.836-5.869-7.32-5.869-.012 0-.025 0-.037 0l-21.397.104c-4.142.021-7.483 3.395-7.463 7.537.021 4.129 3.374 7.463 7.499 7.463h.038l5.633-.028c-19.922 30.677-16.454 72.226 10.424 99.105 19.302 19.3 46.694 27.205 73.264 21.295 4.043-.9 6.591-4.908 5.691-8.951-.899-4.04-4.903-6.595-8.95-5.689z"/><path d="m327.711 382.486-4.923.223c19.449-30.611 15.85-71.755-10.837-98.443-19.419-19.419-47.011-27.331-73.808-21.173-4.037.929-6.557 4.954-5.628 8.99.928 4.037 4.953 6.559 8.99 5.629 21.732-4.998 44.099 1.418 59.84 17.161 21.638 21.637 24.551 55 8.772 79.814l-1.685-6.346c-1.063-4.003-5.172-6.386-9.174-5.324-4.003 1.063-6.387 5.171-5.323 9.174l5.338 20.1c1.139 6.285 7.602 6.236 7.391 6.156.305 0 6.347-.281 21.727-.977 4.138-.188 7.34-3.694 7.152-7.832-.187-4.139-3.699-7.337-7.832-7.152z"/><path d="m488.456 274.622c4.142 0 7.5-3.357 7.5-7.5v-31.709c8.891-3.13 15.284-11.608 15.284-21.556v-27.644c0-12.599-10.25-22.849-22.849-22.849h-10.031c-5.824-12.589-14.836-23.377-26.309-31.405-13.22-9.25-28.763-14.139-44.95-14.139-1.33 0-2.688.041-4.063.115l14.629-14.629c6.958.627 13.365-1.897 17.955-6.486l46.652-46.652c8.789-8.79 8.79-23.015 0-31.805l-11.772-11.77c-8.788-8.789-23.015-8.792-31.804-.001l-46.651 46.651c-4.58 4.581-7.114 10.982-6.487 17.955l-15.15 15.149-13.35-13.35c-6.99-6.989-16.648-10.668-26.53-10.125-8.314.468-16.142 3.923-22.089 9.618-10.186-14.482-26.871-23.382-45.061-23.382-14.297 0-27.951 5.552-38.181 15.382-11.044-3.383-22.515-5.096-34.169-5.096-43.436 0-83.571 24.541-103.523 62.904-26.248 1.799-49.33 17.403-60.801 41.066h-3.096c-12.599 0-22.849 10.25-22.849 22.849v27.644c0 9.948 6.393 18.427 15.284 21.556v136.327c0 4.143 3.358 7.5 7.5 7.5s7.5-3.357 7.5-7.5v-135.033h43.027v201.95h-43.028v-30.922c0-4.143-3.358-7.5-7.5-7.5s-7.5 3.357-7.5 7.5v32.215c-8.891 3.13-15.284 11.608-15.284 21.555v27.645c0 12.6 10.251 22.85 22.85 22.85h464.78c12.599 0 22.849-10.25 22.849-22.849v-27.645c0-9.947-6.393-18.426-15.284-21.555v-136.835c0-4.143-3.358-7.5-7.5-7.5s-7.5 3.357-7.5 7.5v135.541h-43.027v-201.95h43.027v30.416c.001 4.142 3.359 7.499 7.501 7.499zm-27.092-111.258h-35.995c2.152-10.366-.542-21.314-7.723-29.636 18.085 3.095 34.148 13.996 43.718 29.636zm-58.713-99.514 46.652-46.652c2.927-2.926 7.663-2.927 10.591.001l11.772 11.771c2.926 2.925 2.927 7.665 0 10.591l-46.652 46.652c-2.988 2.989-7.733 2.859-10.591 0v.001l-11.772-11.773c-2.853-2.852-2.994-7.597 0-10.591zm-10.167 21.636 10.894 10.894-11.467 11.467-10.895-10.894zm-300.197 51.638c2.891-.016 5.516-1.691 6.747-4.308 16.693-35.49 52.804-58.422 91.996-58.422 11.596 0 22.979 1.943 33.833 5.775 2.909 1.025 6.15.168 8.169-2.165 7.641-8.831 18.702-13.896 30.348-13.896 14.642 0 27.928 7.936 34.974 20.517l-8.057 10.106c-2.582 3.239-2.05 7.958 1.189 10.54 3.238 2.583 7.957 2.051 10.539-1.188 3.72-4.666 11.289-14.159 15.008-18.824 3.554-4.458 8.647-7.09 14.339-7.41 5.702-.311 11.049 1.725 15.081 5.756 6.239 6.239 52.228 52.228 58.808 58.808 5.612 5.612 7.242 13.789 4.51 20.952h-137.343c.321-11.011 3.264-21.795 8.643-31.479 2.012-3.62.707-8.186-2.914-10.198-3.622-2.013-8.187-.707-10.198 2.915-6.621 11.918-10.215 25.204-10.539 38.762h-213.5c10.567-16.129 28.533-26.135 48.367-26.241zm396.049 316.533c.035 0 .071.002.104.002 4.305.028 7.799 3.535 7.799 7.846v27.645c0 4.328-3.521 7.85-7.85 7.85h-464.779c-4.328 0-7.85-3.521-7.85-7.85v-27.645c0-4.311 3.495-7.819 7.799-7.846.032 0 .069-.002.104-.002zm-399.265-15v-201.95h333.859v201.95zm-65.407-216.95c-.035-.001-.071-.002-.104-.003-4.305-.027-7.799-3.536-7.799-7.847v-27.644c0-4.328 3.521-7.85 7.85-7.85h7.926c.014 0 .028.002.041.002.009 0 .017-.002.026-.002h456.787c4.328 0 7.85 3.521 7.85 7.85v27.644c0 4.311-3.495 7.82-7.799 7.847-.032 0-.069.002-.104.003z"/></g></g></svg>