<svg id="Capa_1" enable-background="new 0 0 512 512" height="512" viewBox="0 0 512 512" width="512" xmlns="http://www.w3.org/2000/svg"><g><g><path d="m312.765 489.667h-140.096l31.922-83.796h76.252z" fill="#d1ecf9"/><g><g><g><path d="m78.124 428.537c-31.402 0-56.949-25.547-56.949-56.949v-231.163c0-31.402 25.547-56.949 56.949-56.949h329.186c31.402 0 56.949 25.547 56.949 56.949v231.163c0 31.402-25.547 56.949-56.949 56.949z" fill="#e2f4ff"/><path d="m407.31 83.476h-65.332c31.402 0 56.949 25.547 56.949 56.949v231.163c0 31.402-25.547 56.949-56.949 56.949h65.332c31.402 0 56.949-25.547 56.949-56.949v-231.163c0-31.402-25.547-56.949-56.949-56.949z" fill="#d1ecf9"/><path d="m407.31 396.538h-329.186c-13.78 0-24.95-11.171-24.95-24.95v-231.163c0-13.78 11.171-24.95 24.95-24.95h329.186c13.78 0 24.95 11.171 24.95 24.95v231.163c0 13.78-11.17 24.95-24.95 24.95z" fill="#afe2f7"/><path d="m407.31 115.475h-14.151c3.69 7.539 5.769 16.006 5.769 24.95v231.163c0 8.945-2.079 17.411-5.769 24.95h14.151c13.78 0 24.95-11.171 24.95-24.95v-231.163c0-13.779-11.17-24.95-24.95-24.95z" fill="#8fd6f7"/></g></g><g><path d="m384.95 12.05c10.088 19.48 33.958 27.236 53.57 17.406 6.118-3.067 13.15 2.042 12.124 8.808-3.289 21.689 11.464 41.995 33.108 45.569 6.752 1.115 9.438 9.382 4.631 14.252-15.409 15.614-15.409 40.713 0 56.327 4.807 4.871 2.121 13.137-4.631 14.252-21.644 3.575-36.397 23.88-33.108 45.569 1.026 6.766-6.006 11.875-12.124 8.809-19.611-9.83-43.482-2.074-53.57 17.406-3.147 6.077-11.839 6.077-14.986 0-10.088-19.48-33.958-27.236-53.57-17.406-6.118 3.067-13.15-2.042-12.124-8.809 3.289-21.689-11.464-41.995-33.108-45.569-6.752-1.115-9.438-9.382-4.631-14.252 15.409-15.614 15.409-40.713 0-56.327-4.807-4.871-2.121-13.137 4.631-14.252 21.644-3.575 36.397-23.88 33.108-45.569-1.026-6.766 6.006-11.875 12.124-8.808 19.611 9.83 43.482 2.074 53.57-17.406 3.147-6.077 11.839-6.077 14.986 0z" fill="#ffe07d"/><path d="m488.383 154.413c-15.409-15.614-15.409-40.713 0-56.327 4.807-4.871 2.121-13.137-4.631-14.252-21.644-3.575-36.397-23.88-33.108-45.569 1.026-6.766-6.006-11.875-12.124-8.808-19.611 9.83-43.482 2.074-53.57-17.406-3.147-6.077-11.839-6.077-14.986 0-2.445 4.721-5.704 8.746-9.512 12.007 37.751 18.508 63.746 57.312 63.746 102.193s-25.994 83.684-63.746 102.193c3.807 3.26 7.067 7.286 9.512 12.007 3.147 6.077 11.839 6.077 14.986 0 10.088-19.48 33.958-27.236 53.57-17.406 6.118 3.067 13.15-2.042 12.124-8.808-3.289-21.689 11.464-41.995 33.108-45.569 6.752-1.118 9.438-9.384 4.631-14.255z" fill="#ffd064"/><circle cx="377.457" cy="126.25" fill="#e4936b" r="63.638"/></g></g><path d="m355.726 464.977h-226.018c-16.214 0-29.357 13.144-29.357 29.357 0 5.614 4.551 10.165 10.165 10.165h264.401c5.614 0 10.165-4.551 10.165-10.165.001-16.213-13.143-29.357-29.356-29.357z" fill="#e2f4ff"/><path d="m355.726 464.977h-65.332c16.214 0 29.357 13.144 29.357 29.357 0 5.614-4.551 10.165-10.165 10.165h65.332c5.614 0 10.165-4.551 10.165-10.165 0-16.213-13.144-29.357-29.357-29.357z" fill="#d1ecf9"/></g><g><path d="m464.259 239.173c-4.142 0-7.5 3.358-7.5 7.5v124.915c0 27.267-22.182 49.449-49.449 49.449h-329.186c-27.267 0-49.449-22.182-49.449-49.449v-231.163c0-27.266 22.182-49.449 49.449-49.449h153.229c4.142 0 7.5-3.358 7.5-7.5s-3.358-7.5-7.5-7.5h-153.229c-35.538 0-64.449 28.912-64.449 64.449v231.163c0 35.538 28.912 64.449 64.449 64.449h106.949l-8.167 21.439h-47.198c-20.324 0-36.857 16.534-36.857 36.857 0 9.741 7.925 17.666 17.666 17.666h264.401c9.741 0 17.665-7.925 17.665-17.666 0-20.323-16.534-36.857-36.857-36.857h-47.198l-8.167-21.439h106.95c35.538 0 64.449-28.912 64.449-64.449v-124.915c0-4.142-3.358-7.5-7.501-7.5zm-263.134 196.864h83.184l8.167 21.439h-99.518zm154.601 36.44c12.052 0 21.857 9.805 21.857 21.857 0 1.47-1.195 2.666-2.665 2.666h-264.401c-1.47 0-2.666-1.196-2.666-2.666 0-12.052 9.805-21.857 21.857-21.857z"/><path d="m493.721 103.354c9.07-9.191 3.997-24.815-8.747-26.92-17.5-2.89-29.574-19.509-26.915-37.045 1.936-12.767-11.35-22.425-22.9-16.637-15.857 7.946-35.393 1.601-43.548-14.15-5.938-11.467-22.366-11.47-28.306 0-8.155 15.75-27.691 22.099-43.549 14.15-11.542-5.786-24.836 3.865-22.9 16.638 2.659 17.536-9.415 34.154-26.915 37.044-12.74 2.105-17.821 17.726-8.747 26.921 1.424 1.443 2.677 2.994 3.776 4.62h-186.846c-17.893 0-32.45 14.557-32.45 32.45v231.163c0 17.893 14.557 32.45 32.45 32.45h329.186c17.893 0 32.451-14.557 32.451-32.45v-140.357c10.582 1.725 19.929-7.368 18.299-18.121-2.659-17.536 9.415-34.155 26.914-37.045 12.741-2.104 17.82-17.726 8.748-26.92-12.46-12.625-12.46-33.166-.001-45.791zm-243.504 19.621h20.154c.93 9.346-2.128 19.025-9.178 26.17-9.07 9.191-3.997 24.816 8.747 26.92 13.406 2.214 23.619 12.488 26.472 25.056h-46.195zm-109.772 172.917h-22.604c-4.142 0-7.5 3.358-7.5 7.5s3.358 7.5 7.5 7.5h22.604v78.146h-62.321c-9.622 0-17.45-7.828-17.45-17.45v-60.696h22.106c4.142 0 7.5-3.358 7.5-7.5s-3.358-7.5-7.5-7.5h-22.106v-79.771h79.771zm0-94.771h-79.771v-60.696c0-9.622 7.828-17.45 17.45-17.45h62.321zm94.772 187.917h-79.772v-78.146h79.772zm0-93.146h-79.772v-79.771h79.772zm0-94.771h-79.772v-78.146h79.772zm94.771 187.917h-79.771v-78.146h79.771zm0-93.146h-79.771v-79.771h46.474c.428 11.475 12.631 18.858 23.064 13.627 3.297-1.653 6.753-2.679 10.233-3.139zm94.772 75.696c0 9.622-7.828 17.45-17.45 17.45h-62.321v-78.146h79.772v60.696zm0-75.696h-79.772v-67.756c7.647 2.64 14.336 8.078 18.315 15.761 5.938 11.467 22.366 11.472 28.307 0 6.433-12.424 19.946-18.99 33.15-17.312zm57.77-134.627c-25.554 4.221-43.184 28.487-39.301 54.094.115.764-.661 1.327-1.348.979-23.155-11.604-51.68-2.336-63.591 20.662-.353.685-1.309.687-1.666 0-8.425-16.269-25.163-25.667-42.434-25.667-7.144 0-14.382 1.609-21.157 5.005-.699.347-1.462-.223-1.348-.979 3.883-25.607-13.748-49.873-39.301-54.094-.761-.126-1.057-1.035-.514-1.584 18.193-18.434 18.193-48.429 0-66.863-.541-.548-.249-1.458.515-1.584 25.553-4.221 43.184-28.487 39.301-54.094-.116-.767.66-1.321 1.348-.979 23.156 11.607 51.681 2.337 63.59-20.661.079-.152.263-.507.834-.507.57 0 .754.355.833.507 11.911 22.999 40.437 32.268 63.59 20.662.686-.346 1.464.213 1.349.979-3.883 25.607 13.747 49.873 39.301 54.094.76.126 1.058 1.033.515 1.584-18.193 18.434-18.193 48.429 0 66.863.541.549.246 1.458-.516 1.583z"/><path d="m377.457 55.112c-39.225 0-71.137 31.912-71.137 71.138s31.912 71.138 71.137 71.138c39.226 0 71.138-31.912 71.138-71.138s-31.912-71.138-71.138-71.138zm0 127.275c-30.954 0-56.137-25.183-56.137-56.138s25.183-56.138 56.137-56.138c30.955 0 56.138 25.183 56.138 56.138s-25.184 56.138-56.138 56.138z"/></g></g></svg>