<svg id="Capa_1" enable-background="new 0 0 512 512" height="512" viewBox="0 0 512 512" width="512" xmlns="http://www.w3.org/2000/svg"><g><g><g><g><g><g><path d="m288.224 367.424 49.195-46.207-19.531-3.628c-9.427-1.895-16.209-12.83-16.209-22.446v-42.85h-45.679-45.678v42.85c0 9.616-6.782 20.551-16.209 22.446l-19.531 3.628 49.195 46.207c18.113 17.014 46.333 17.014 64.447 0z" fill="#ffddce"/><path d="m391.33 325.247-84.046-14.594-51.284 47.209-51.283-47.209-84.046 14.594c-34.932 10.285-58.917 42.35-58.917 78.766v83.236c0 9.528 7.724 17.251 17.251 17.251h353.991c9.528 0 17.251-7.724 17.251-17.251v-83.236c-.001-36.416-23.985-68.481-58.917-78.766z" fill="#f2f9ff"/><g><g><g><g><g><path d="" fill="#ebebeb"/></g><g><g><g><g><g><g><g><g><path d="m351.396 164.618h-6.089v-7.15-26.066c0-24.132-9.907-47.517-28.194-63.263-14.337-12.345-107.889-12.345-122.226 0-18.287 15.746-28.194 39.13-28.194 63.263v26.066 7.15h-6.089c-8.927 0-16.163 7.237-16.163 16.163v8.937c0 8.927 7.237 16.163 16.163 16.163h6.113c.504 23.458 10.361 46.037 28.17 61.371 14.337 12.345 34.491 23.121 61.113 23.418 26.622-.297 46.776-11.073 61.113-23.418 17.809-15.334 27.667-37.913 28.17-61.371h6.113c8.927 0 16.163-7.237 16.163-16.163v-8.937c.001-8.926-7.236-16.163-16.163-16.163z" fill="#ffddce"/></g><g><path d="m351.396 164.618h-6.089v-7.15-26.066c0-24.132-9.907-47.517-28.194-63.263-2.604-2.243-7.832-4.076-14.715-5.504l-.012 143.247c-.504 23.458-10.361 46.037-28.17 61.371-10.199 8.782-23.344 16.765-39.665 20.752 6.622 1.617 13.764 2.58 21.448 2.666 26.622-.297 46.776-11.072 61.113-23.418 17.809-15.334 27.667-37.913 28.17-61.371h6.113c8.927 0 16.163-7.237 16.163-16.164v-8.937c.002-8.926-7.235-16.163-16.162-16.163z" fill="#ffcbbe"/></g><g><path d="m153.15 117.703v48.736s13.661-.309 22.439 8.379c1.828 1.809 4.935.487 4.935-2.085v-55.029h-27.374z" fill="#4a80aa"/><path d="m331.476 117.703v55.029c0 2.572 3.107 3.894 4.935 2.085 8.778-8.688 22.439-8.379 22.439-8.379v-48.736h-27.374z" fill="#407093"/></g></g></g></g></g></g></g></g></g></g></g></g></g><path d="m362.971 113.842h-213.942l8.715-63.314c3.907-28.383 30.898-47.625 59.004-42.062 25.917 5.13 52.588 5.13 78.505 0 28.106-5.563 55.097 13.678 59.004 42.062z" fill="#ce9875"/><g><path d="m287.427 54.389 8.183 59.452h67.361l-8.715-63.313c-3.907-28.383-30.898-47.625-59.004-42.062-16.064 3.179-32.417 4.384-48.701 3.622 20.722 3.573 37.828 20.153 40.876 42.301z" fill="#c6865c"/></g><path d="m403.678 100.46h-295.356c-1.724 0-3.121 1.397-3.121 3.121 0 17.322 14.042 31.364 31.364 31.364h238.871c17.322 0 31.364-14.042 31.364-31.364-.001-1.723-1.398-3.121-3.122-3.121z" fill="#c6865c"/></g><g fill="#d1ecf9"><path d="m141.148 319.18v122.857h34.569v-126.483c0-4.248-3.829-7.469-8.014-6.742l-20.882 3.626c-3.28.569-5.673 3.415-5.673 6.742z"/><path d="m336.283 315.554v126.483h34.569v-122.857c0-3.328-2.394-6.173-5.673-6.742l-20.882-3.626c-4.184-.727-8.014 2.495-8.014 6.742z"/></g><path d="m358.12 404.103h-203.926c-6.786 0-12.713 4.668-14.2 11.289-1.394 6.203-4.456 14.102-11.159 21.431-7.92 8.66-12.312 19.97-12.312 31.705v35.972h278.954v-35.971c0-11.735-4.392-23.046-12.312-31.705-6.559-7.172-9.63-15.309-11.064-21.674-1.463-6.494-7.325-11.047-13.981-11.047z" fill="#afe2f7"/><path d="m383.165 436.824c-6.559-7.172-9.63-15.309-11.064-21.674-1.463-6.493-7.325-11.046-13.981-11.046h-65.149c6.656 0 12.518 4.553 13.981 11.046 1.434 6.365 4.504 14.502 11.064 21.674 7.92 8.66 12.312 19.97 12.312 31.705v35.971h65.149v-35.971c0-11.735-4.392-23.046-12.312-31.705z" fill="#8fd6f7"/></g><g fill="#e2f4ff"><path d="m256 357.862 23.026 5.534c13.405 3.222 27.39-2.318 34.953-13.845l22.305-33.996-29-4.901z"/><path d="m256 357.862-23.026 5.534c-13.405 3.222-27.39-2.318-34.953-13.845l-22.305-33.996 29-4.901z"/></g></g><g><circle cx="175.717" cy="432.413" r="7.585"/><circle cx="336.283" cy="432.413" r="7.585"/></g></g><path d="m439.893 350.338c-13.2-17.647-34.375-30.244-47.281-32.481l-14.798-2.569c-1.461-5.21-5.789-9.274-11.352-10.24l-20.883-3.626c-4.18-.727-8.44.425-11.688 3.157-.905.761-1.689 1.628-2.368 2.564l-19.85-3.355c-1.565-2.702-2.496-5.835-2.496-8.646v-12.672c4.412-2.811 8.695-5.974 12.828-9.533 17.212-14.82 28.037-36.227 30.337-59.574 12.611-.499 22.716-10.914 22.716-23.644v-8.937c0-7.217-3.248-13.893-8.71-18.332v-20.003h9.086c21.429 0 38.864-17.434 38.864-38.864 0-5.857-4.765-10.622-10.621-10.622h-36.01l-5.981-43.454c-4.473-32.494-35.33-54.839-67.89-48.397-25.079 4.966-50.512 4.966-75.593 0-32.248-6.382-63.373 15.58-67.89 48.397l-5.981 43.454h-36.01c-5.857 0-10.621 4.765-10.621 10.622 0 21.429 17.434 38.864 38.864 38.864h9.086v20.003c-5.462 4.439-8.71 11.115-8.71 18.332v8.937c0 12.73 10.105 23.145 22.716 23.644 2.3 23.347 13.125 44.754 30.336 59.574 4.133 3.559 8.417 6.721 12.828 9.533v12.672c0 2.811-.931 5.944-2.496 8.646l-19.85 3.355c-.679-.936-1.464-1.803-2.368-2.564-3.248-2.731-7.507-3.884-11.688-3.157l-20.883 3.626c-5.563.966-9.891 5.03-11.352 10.24l-14.798 2.569c-12.062 2.091-33.491 14.046-47.281 32.481-11.68 15.614-17.853 34.174-17.853 53.674v83.236c0 13.648 11.103 24.752 24.751 24.752h353.991c13.648 0 24.751-11.103 24.751-24.752v-83.236c.002-19.499-6.172-38.06-17.852-53.674zm-75.108 66.461c2.16 9.584 6.602 18.259 12.846 25.086 6.672 7.296 10.347 16.758 10.347 26.644v28.471h-263.955v-28.471c0-9.887 3.675-19.348 10.347-26.644 6.474-7.078 10.828-15.438 12.942-24.848.708-3.148 3.602-5.434 6.883-5.434h203.925c3.184 0 5.986 2.185 6.665 5.196zm-181.569-20.196v-55.946l8.534 13.007c7.521 11.464 20.307 18.131 33.639 18.131 7.655 0 11.084-1.805 30.61-6.22 19.449 4.398 22.958 6.22 30.61 6.22 13.331 0 26.118-6.668 33.639-18.131l8.534-13.007v55.946zm124.492-51.167c-5.81 8.855-16.634 13.142-26.929 10.668l-9.353-2.248 38.232-35.196 14.059 2.377zm43.642-185.781c-3.592.643-8.028 1.857-12.374 4.143v-21.352h12.374zm-238.247-51.695h61.478c4.142 0 7.5-3.357 7.5-7.5s-3.358-7.5-7.5-7.5h-15.107l5.7-41.41c3.322-24.138 26.222-40.462 50.118-35.727 27.011 5.347 54.404 5.346 81.417 0 23.865-4.723 46.792 11.556 50.118 35.727l5.7 41.41h-142.983c-4.142 0-7.5 3.357-7.5 7.5s3.358 7.5 7.5 7.5h151.555c.007 0 .014.001.021.001.005 0 .01-.001.014-.001h37.763c-2.061 11.076-11.798 19.486-23.462 19.486-8.471 0-225.421 0-238.872 0-11.663 0-21.399-8.41-23.46-19.486zm59.922 34.486v21.352c-4.347-2.287-8.782-3.5-12.374-4.143v-17.209zm1.19 63.274c-.087-4.078-3.418-7.339-7.498-7.339h-6.113c-4.777 0-8.663-3.887-8.663-8.663v-8.937c0-2.665 1.228-5.115 3.267-6.742 3.364.293 10.403 1.454 15.108 6.11 6.53 6.459 17.71 1.841 17.71-7.417v-30.287h135.951v30.287c0 9.244 11.17 13.887 17.711 7.415 4.702-4.654 11.758-5.818 15.103-6.111 2.041 1.626 3.27 4.079 3.27 6.745v8.937c0 4.776-3.887 8.663-8.663 8.663h-6.113c-4.08 0-7.411 3.261-7.498 7.339-.471 21.909-9.789 42.265-25.567 55.85-33.401 28.762-79.025 28.771-112.438 0-15.778-13.585-25.097-33.941-25.567-55.85zm119.964 84.65v4.772c0 4.794 1.22 9.727 3.446 14.208l-41.625 38.318-41.624-38.317c2.226-4.481 3.445-9.415 3.445-14.209v-4.772c24.394 10.298 51.477 10.504 76.358 0zm-91.837 28.29 38.232 35.196c-2.733.039-24.057 10.214-36.282-8.42l-16.009-24.399zm-34.125-2.326v80.269h-14.022c-1.912 0-3.771.242-5.547.694v-77.565zm-98.964 170.914v-83.236c0-16.235 5.14-31.689 14.865-44.69 9.641-12.888 22.866-22.135 38.269-26.761l11.261-1.955v79.996c-.391 1.013-.727 2.058-.971 3.147-1.534 6.828-4.688 12.888-9.375 18.013-9.207 10.067-14.278 23.125-14.278 36.767v28.471h-30.019c-5.377 0-9.752-4.375-9.752-9.752zm373.494 0c0 5.377-4.374 9.752-9.751 9.752h-30.019v-28.471c0-13.642-5.071-26.7-14.278-36.767-4.549-4.975-7.672-11.118-9.282-18.26-.261-1.159-.624-2.277-1.065-3.354v-28.363c0-4.143-3.358-7.5-7.5-7.5s-7.5 3.357-7.5 7.5v15.472c-1.688-.42-3.44-.653-5.232-.653h-14.337v-80.269l19.569 3.398v27.087c0 4.143 3.358 7.5 7.5 7.5s7.5-3.357 7.5-7.5v-16.214l11.261 1.955c15.403 4.626 28.628 13.873 38.269 26.761 9.724 13.001 14.865 28.455 14.865 44.69z"/></g></svg>