<svg id="Capa_1" enable-background="new 0 0 512 512" height="512" viewBox="0 0 512 512" width="512" xmlns="http://www.w3.org/2000/svg"><g><g><g><g><g fill="#c6e873"><path d="m32.895 55.962c-.241-.771.465-1.518 1.242-1.296 3.029.864 10.558 1.833 28.273-.322 34.293-4.171 29.119 31.632 29.119 31.632s-40.78 27.025-58.634-30.014z"/><path d="m147.291 91.072c.146-.794-.646-1.45-1.39-1.136-2.902 1.224-10.288 4.14-28.104 3.106-28.444-1.65-26.26 35.028-26.26 35.028s44.942 21.785 55.754-36.998z"/></g></g><g><g fill="#c6e873"><path d="m191.639 24.642c-.241-.771.465-1.518 1.242-1.296 3.029.864 10.558 1.833 28.273-.322 34.293-4.171 29.119 31.632 29.119 31.632s-40.78 27.025-58.634-30.014z"/><path d="m306.035 59.752c.146-.794-.646-1.45-1.39-1.136-2.902 1.224-10.288 4.14-28.104 3.106-28.444-1.65-26.26 35.028-26.26 35.028s44.942 21.785 55.754-36.998z"/></g></g><g><g fill="#c6e873"><path d="m364.74 66.803c-.241-.771.465-1.518 1.242-1.296 3.029.864 10.558 1.833 28.273-.322 34.293-4.171 29.119 31.632 29.119 31.632s-40.78 27.026-58.634-30.014z"/><path d="m479.135 101.914c.146-.794-.646-1.45-1.39-1.136-2.902 1.224-10.288 4.14-28.104 3.106-28.444-1.65-26.26 35.028-26.26 35.028s44.943 21.784 55.754-36.998z"/></g></g></g><g><path d="m487.355 229.32c-5.273-29.556-31.086-52-62.158-52-8.442 0-16.491 1.669-23.853 4.675-15.586-9.41-33.853-14.827-53.387-14.827-4.646 0-9.219.308-13.702.903-5.518.732-11.022-1.397-14.559-5.694-18.155-22.054-45.665-36.118-76.461-36.118-27.824 0-52.965 11.481-70.949 29.962-3.607 3.706-8.821 5.345-13.93 4.546-4.216-.66-8.536-1.004-12.938-1.004-22.311 0-42.559 8.78-57.522 23.052-1.441-.103-2.89-.173-4.357-.173-28.655 0-52.64 19.929-58.895 46.678z" fill="#ce9875"/></g><path d="m425.197 177.32c-8.442 0-16.491 1.669-23.853 4.675-15.586-9.41-33.853-14.827-53.387-14.827-4.646 0-9.219.308-13.702.903-.067.009-.134.012-.201.02 37.348 12.197 84.495 36.313 89.288 61.229h64.012c-5.272-29.556-31.085-52-62.157-52z" fill="#c6865c"/><g><g><g><g><path d="m22.83 238.989h466.34v204.38h-466.34z" fill="#e27d47"/></g><g><path d="m22.83 238.989h58.205v204.38h-58.205z" fill="#e4936b"/></g><g><path d="m430.965 238.989h58.205v204.38h-58.205z" fill="#dd6938"/></g><g><path d="m489.103 430.796h-466.206c-8.503 0-15.397 6.893-15.397 15.397v27.73c0 8.503 6.893 15.397 15.397 15.397h466.207c8.503 0 15.397-6.893 15.397-15.397v-27.73c-.001-8.504-6.894-15.397-15.398-15.397z" fill="#eaaa89"/><path d="m489.103 430.796h-64.981c8.503 0 15.397 6.893 15.397 15.397v27.73c0 8.503-6.893 15.397-15.397 15.397h64.981c8.503 0 15.397-6.893 15.397-15.397v-27.73c0-8.504-6.893-15.397-15.397-15.397z" fill="#e4936b"/><path d="m489.103 209.728h-466.206c-8.503 0-15.397 6.893-15.397 15.397v27.73c0 8.503 6.893 15.397 15.397 15.397h466.207c8.503 0 15.397-6.893 15.397-15.397v-27.73c-.001-8.504-6.894-15.397-15.398-15.397z" fill="#eaaa89"/></g></g></g><g><path d="m489.103 320.262h-466.206c-8.503 0-15.397 6.893-15.397 15.397v27.73c0 8.503 6.893 15.397 15.397 15.397h466.207c8.503 0 15.397-6.893 15.397-15.397v-27.73c-.001-8.504-6.894-15.397-15.398-15.397z" fill="#eaaa89"/><g><path d="m489.103 209.728h-64.981c8.503 0 15.397 6.893 15.397 15.396v27.73c0 8.503-6.893 15.396-15.397 15.396h64.981c8.503 0 15.397-6.893 15.397-15.396v-27.73c0-8.503-6.893-15.396-15.397-15.396z" fill="#e4936b"/></g><path d="m489.103 320.262h-64.981c8.503 0 15.397 6.893 15.397 15.397v27.73c0 8.503-6.893 15.396-15.397 15.396h64.981c8.503 0 15.397-6.893 15.397-15.396v-27.73c0-8.504-6.893-15.397-15.397-15.397z" fill="#e4936b"/></g></g></g><g><circle cx="460.067" cy="460.057" r="7.717"/><ellipse cx="51.933" cy="460.057" rx="7.717" ry="7.717" transform="matrix(.987 -.16 .16 .987 -73.023 14.259)"/><circle cx="460.067" cy="238.989" r="7.717"/><ellipse cx="51.933" cy="238.989" rx="7.717" ry="7.717" transform="matrix(.973 -.23 .23 .973 -53.519 18.325)"/><circle cx="460.067" cy="349.523" r="7.717"/><ellipse cx="51.933" cy="349.523" rx="7.717" ry="7.717" transform="matrix(.973 -.23 .23 .973 -78.915 21.282)"/><path d="m512 252.854v-27.729c0-12.625-10.271-22.896-22.896-22.896h-4.527c-11.93-18.504-31.829-30.399-53.695-32.169v-20.904c10.078 2.162 20.286 1.528 29.299-3.037 13.5-6.836 22.359-21.253 26.331-42.848 0 0 0 0 0-.001.567-3.087-.602-6.228-3.05-8.194-2.441-1.96-5.748-2.423-8.631-1.208-2.043.862-8.267 3.486-24.754 2.529-7.346-.425-13.882 1.261-19.195 4.89v-4.062c2.836-24.055-10.578-42.763-37.533-39.484-17.726 2.157-23.855.97-25.309.556-3.006-.857-6.236.001-8.423 2.244-2.193 2.25-2.973 5.508-2.034 8.505 6.629 21.18 17.186 34.473 31.376 39.51 8.782 3.117 18.081 2.672 26.923-.151v62.036c-4.713.623-9.343 1.714-13.851 3.282-20.885-11.673-45.03-16.235-68.762-13.085-2.986.396-5.896-.734-7.782-3.026-17.206-20.9-41.329-34.252-67.706-37.86v-12.756c3.18.682 6.876 1.195 10.87 1.195 5.794 0 12.188-1.07 18.429-4.231 13.5-6.836 22.359-21.253 26.331-42.848 0 0 0 0 0-.001.567-3.087-.602-6.228-3.05-8.194-2.441-1.961-5.748-2.423-8.631-1.208-2.044.862-8.264 3.485-24.754 2.529-7.344-.429-13.881 1.259-19.195 4.889v-4.061c.462-3.919 1.695-20.548-8.877-31.36-6.732-6.885-16.374-9.618-28.656-8.125-17.725 2.157-23.854.97-25.309.556-6.488-1.852-12.485 4.269-10.458 10.748 6.63 21.18 17.186 34.473 31.376 39.51 4.373 1.552 8.684 2.158 12.751 2.158 5.268 0 10.125-1.016 14.172-2.308v52.522c-28.822.119-55.75 11.55-75.869 32.226-1.864 1.915-4.628 2.797-7.396 2.367-20.848-3.263-42.233.775-60.479 11.644v-26.687c10.077 2.162 20.286 1.528 29.299-3.037 13.5-6.836 22.359-21.253 26.332-42.848 0 0 0 0 0-.001 1.221-6.645-5.438-12.036-11.681-9.402-2.044.862-8.264 3.488-24.755 2.529-7.339-.43-13.88 1.259-19.195 4.89v-4.058c.462-3.912 1.699-20.548-8.877-31.364-16.036-16.4-38.759-3.24-53.964-7.569-6.495-1.858-12.482 4.279-10.458 10.748v.001c6.629 21.18 17.186 34.473 31.376 39.51 8.782 3.117 18.081 2.672 26.923-.15v77.587c-.164-.001-.335-.007-.497-.007-21.455 0-41.453 10.053-54.284 27.086h-6.359c-12.625-.004-22.896 10.267-22.896 22.892v27.729c0 9.974 6.413 18.474 15.33 21.606v39.592c-8.917 3.133-15.33 11.633-15.33 21.607v27.73c0 9.974 6.413 18.474 15.33 21.606v39.592c-8.917 3.133-15.33 11.632-15.33 21.606v27.729c0 12.625 10.271 22.896 22.896 22.896h466.207c12.625 0 22.896-10.271 22.896-22.896v-27.729c0-9.974-6.413-18.474-15.33-21.606v-39.592c8.917-3.132 15.33-11.632 15.33-21.606v-27.73c0-9.974-6.413-18.474-15.33-21.606v-39.592c8.918-3.132 15.331-11.632 15.331-21.606zm-74.409-137.74c2.819-2.809 6.616-4.028 11.617-3.743 8.637.501 15.115.145 20.06-.591-3.444 10.952-8.729 18.303-15.773 21.91-8.146 4.17-17.302 2.572-22.54 1.026.414-5.736 2.009-13.993 6.636-18.602zm-173.126-42.136c2.822-2.827 6.634-4.061 11.642-3.769 8.638.501 15.116.145 20.061-.591-3.444 10.952-8.729 18.303-15.773 21.91-8.144 4.17-17.301 2.572-22.539 1.026.419-5.666 2.01-13.97 6.609-18.576zm-158.718 31.294c2.819-2.808 6.615-4.031 11.617-3.743 8.639.502 15.115.146 20.061-.591-3.444 10.952-8.729 18.303-15.773 21.911-8.145 4.17-17.302 2.572-22.541 1.026.413-5.736 2.009-13.993 6.636-18.603zm288.131-9.89c-7.484-2.696-13.676-9.541-18.475-20.393 5.38.034 11.99-.415 19.757-1.359 13.509-1.643 21.069 3.733 21.005 19.575-4.577 2.164-13.556 5.323-22.287 2.177zm-173.1-42.161c-7.484-2.696-13.677-9.541-18.476-20.393 5.391.032 11.99-.415 19.757-1.359 7.379-.899 12.792.343 16.087 3.688 4.042 4.102 4.937 11.181 4.918 15.888-4.577 2.163-13.554 5.323-22.286 2.176zm-158.647 31.355c-7.528-2.672-13.753-9.528-18.573-20.428 17.504.143 28.709-4.909 35.844 2.329 4.043 4.102 4.937 11.181 4.918 15.888-4.549 2.148-13.493 5.297-22.189 2.211zm21.409 106.565c3.827 0 6.574.923 9.533-1.899 17.659-16.842 41.412-23.618 64.124-20.066 7.566 1.187 15.215-1.33 20.465-6.725 17.377-17.858 40.665-27.693 65.574-27.693 27.446 0 53.205 12.168 70.67 33.385 5.202 6.319 13.179 9.445 21.336 8.362 21.636-2.87 43.598 1.663 62.226 12.91 2.028 1.225 4.517 1.418 6.711.523 6.693-2.733 13.765-4.119 21.018-4.119 15.45 0 30.004 6.449 40.388 17.408h-415.693c9.361-7.717 21.185-12.086 33.648-12.086zm-68.54 34.983c0-4.354 3.542-7.896 7.896-7.896h10.28.013 455.914c4.354 0 7.896 3.542 7.896 7.896v27.729c0 4.354-3.542 7.896-7.896 7.896h-.037c-.02 0-.04-.002-.06-.001-.013 0-.028.001-.041.001h-332.16c-4.142 0-7.5 3.358-7.5 7.5s3.358 7.5 7.5 7.5h266.66v37.011h-334.93v-37.01h33.208c4.142 0 7.5-3.358 7.5-7.5s-3.358-7.5-7.5-7.5h-98.709c-.013 0-.028-.001-.041-.001-.019 0-.038.002-.057.001h-.04c-4.354 0-7.896-3.542-7.896-7.896zm423.465 87.638v-37.012h43.205v37.011h-43.205zm-408.135 0v-37.012h43.205v37.011h-43.205zm43.205 73.523v37.011h-43.205v-37.011zm423.465 87.637c0 4.354-3.542 7.896-7.896 7.896h-466.208c-4.354 0-7.896-3.542-7.896-7.896v-27.729c0-4.338 3.517-7.868 7.848-7.894.029 0 .061-.002.091-.002h332.255c4.142 0 7.5-3.358 7.5-7.5s-3.358-7.5-7.5-7.5h-266.659v-37.011h334.93v37.011h-33.208c-4.142 0-7.5 3.358-7.5 7.5s3.358 7.5 7.5 7.5h98.802c.031 0 .063.002.093.002 4.331.026 7.848 3.556 7.848 7.894zm-15.33-87.637v37.011h-43.205v-37.011zm15.33-22.897c0 4.331-3.507 7.857-7.83 7.893 0 0 0 0-.001 0-.04 0-.086.003-.128.003h-466.082c-.043-.001-.089-.003-.129-.003 0 0 0 0-.001 0-4.323-.036-7.83-3.562-7.83-7.893v-27.73c0-4.331 3.507-7.857 7.83-7.893h.001c.04 0 .086-.003.129-.003h466.088c.041.001.085.003.124.003h.001c4.323.036 7.83 3.562 7.83 7.893v27.73z"/></g></g></svg>