<svg id="Capa_1" enable-background="new 0 0 512 512" height="512" viewBox="0 0 512 512" width="512" xmlns="http://www.w3.org/2000/svg"><g><g><g><g><path d="m240.923 13.263c-3.599-7.155-13.857-7.155-17.456 0-55.81 110.949-159.726 172.461-159.726 283.005 0 93.034 75.419 168.453 168.453 168.453s168.453-75.419 168.453-168.453c.001-110.544-103.915-172.056-159.724-283.005z" fill="#e2f4ff"/><path d="m240.923 13.263c-3.599-7.155-13.857-7.155-17.456 0-7.076 14.068-14.929 27.339-23.242 40.018 57.251 87.316 136.483 146.46 136.483 242.987 0 82.102-58.74 150.472-136.483 165.41 10.352 1.989 21.038 3.043 31.97 3.043 93.034 0 168.453-75.419 168.453-168.453 0-110.544-103.916-172.056-159.725-283.005z" fill="#d1ecf9"/></g><path d="m400.648 296.268c0-3.38-.1-6.713-.29-10.004-5.815 4.531-11.837 8.9-23.45 8.9-24.122 0-24.122-18.849-48.244-18.849-24.119 0-24.119 18.849-48.238 18.849-24.12 0-24.12-18.849-48.239-18.849-24.118 0-24.118 18.849-48.237 18.849-24.118 0-24.118-18.849-48.236-18.849-24.119 0-24.119 18.849-48.239 18.849-11.609 0-17.63-4.367-23.443-8.897-.19 3.29-.29 6.622-.29 10.001 0 93.034 75.419 168.453 168.453 168.453s168.453-75.419 168.453-168.453z" fill="#afe2f7"/><path d="m232.195 464.722c93.034 0 168.453-75.419 168.453-168.453 0-3.38-.1-6.713-.29-10.004-5.815 4.531-11.837 8.9-23.45 8.9-21.547 0-23.861-15.028-41.297-18.24.712 6.288 1.097 12.725 1.097 19.344 0 82.102-58.74 150.472-136.483 165.41 10.352 1.988 21.037 3.043 31.97 3.043z" fill="#8fd6f7"/></g><g><g><path d="m368.25 88.543h36.149v61.618h-36.149z" fill="#e2f4ff"/><path d="m411.951 105.513h-51.252c-10.102 0-18.292-8.19-18.292-18.292 0-10.102 8.19-18.292 18.292-18.292h51.252c10.102 0 18.292 8.19 18.292 18.292 0 10.103-8.19 18.292-18.292 18.292z" fill="#4a80aa"/></g><g><g><circle cx="386.325" cy="249.947" fill="#dd636e" r="118.175"/><circle cx="386.325" cy="249.947" fill="#f2f9ff" r="86.36"/><path d="m386.325 163.588c-11.573 0-22.606 2.293-32.692 6.423 31.482 12.889 53.668 43.815 53.668 79.937s-22.186 67.048-53.668 79.937c10.086 4.129 21.119 6.423 32.692 6.423 47.695 0 86.36-38.665 86.36-86.36s-38.665-86.36-86.36-86.36z" fill="#e2f4ff"/></g></g></g></g><g><path d="m399.096 404.258c-4.004-1.065-8.11 1.322-9.173 5.325-1.062 4.004 1.322 8.11 5.325 9.173 39.962 10.604 54.142 22.89 54.142 30.188 0 7.825-15.74 20.825-60.1 31.712-86.632 21.263-227.532 21.27-314.191 0-44.359-10.888-60.099-23.888-60.099-31.713 0-7.298 14.179-19.583 54.142-30.188 4.003-1.062 6.388-5.169 5.325-9.173-1.062-4.003-5.169-6.386-9.173-5.325-43.326 11.498-65.294 26.532-65.294 44.686 0 19.061 24.064 34.631 71.524 46.28 88.968 21.835 232.332 21.846 321.341 0 47.46-11.649 71.524-27.22 71.524-46.28.001-18.154-21.967-33.188-65.293-44.685z"/><path d="m386.324 195.275c-4.143 0-7.5 3.358-7.5 7.5v47.173c0 1.989.79 3.897 2.196 5.303l25.094 25.093c2.93 2.929 7.678 2.929 10.607 0s2.929-7.678 0-10.606l-22.897-22.896v-44.066c0-4.143-3.357-7.501-7.5-7.501z"/><path d="m411.899 126.891v-13.878h.051c14.222 0 25.792-11.57 25.792-25.792s-11.57-25.792-25.792-25.792h-51.251c-14.222 0-25.792 11.57-25.792 25.792s11.57 25.792 25.792 25.792h.051v13.877c-57.076 11.846-100.101 62.52-100.101 123.057 0 11.411 1.538 22.469 4.401 32.986-1.36-.945-2.702-1.989-4.127-3.103-6.279-4.908-14.095-11.015-28.738-11.015-14.642 0-22.457 6.107-28.736 11.015-5.601 4.377-10.024 7.834-19.5 7.834s-13.899-3.457-19.5-7.833c-6.279-4.908-14.094-11.015-28.736-11.015-14.643 0-22.458 6.107-28.738 11.015-5.601 4.377-10.024 7.834-19.501 7.834-7.396 0-11.793-2.179-15.669-4.928 4.788-58.989 40.484-103.425 81.386-154.305 27.242-33.887 55.411-68.927 76.976-111.797.541-1.076 1.503-1.237 2.028-1.237s1.487.161 2.028 1.237c19.718 39.2 44.896 71.809 71.127 104.521 2.591 3.231 7.312 3.751 10.543 1.159 3.232-2.591 3.751-7.312 1.16-10.543-25.711-32.062-50.367-63.98-69.43-101.877-2.946-5.857-8.858-9.496-15.428-9.497-6.57 0-12.482 3.639-15.429 9.497-20.851 41.451-48.514 75.862-75.266 109.14-41.646 51.805-81.094 100.884-84.947 166.672-.003.034-.005.069-.007.103-.2 3.441-.306 6.925-.306 10.46 0 97.021 78.933 175.954 175.954 175.954 53.725 0 103.815-24.085 137.427-66.081 2.588-3.234 2.065-7.954-1.169-10.542-3.232-2.587-7.952-2.064-10.542 1.169-30.75 38.419-76.572 60.454-125.716 60.454-87.638 0-159.134-70.408-160.911-157.629 4.274 1.798 9.512 3.071 16.191 3.071 14.643 0 22.458-6.107 28.737-11.015 5.601-4.377 10.024-7.834 19.501-7.834 9.476 0 13.899 3.457 19.5 7.833 6.279 4.908 14.094 11.015 28.736 11.015 14.643 0 22.458-6.107 28.737-11.015 5.601-4.376 10.024-7.833 19.5-7.833 9.477 0 13.901 3.457 19.502 7.834 4.889 3.821 10.821 8.447 20.208 10.243 19.803 43.451 63.645 73.731 114.428 73.731 69.298 0 125.676-56.378 125.676-125.675.001-60.539-43.024-111.213-100.1-123.059zm-61.992-39.67c0-5.951 4.841-10.792 10.792-10.792h51.251c5.951 0 10.792 4.841 10.792 10.792s-4.841 10.792-10.792 10.792h-51.251c-5.951 0-10.792-4.841-10.792-10.792zm25.843 25.792h21.149v11.708c-3.488-.292-7.013-.449-10.575-.449s-7.087.157-10.574.449zm10.574 247.61c-61.026 0-110.675-49.649-110.675-110.675s49.648-110.675 110.675-110.675 110.676 49.648 110.676 110.674-49.649 110.676-110.676 110.676z"/><path d="m472.72 257.086c-4.08-.688-7.955 2.058-8.647 6.142-6.438 38-39.137 65.58-77.748 65.58-43.483 0-78.859-35.376-78.859-78.86s35.376-78.86 78.859-78.86c36.434 0 67.931 24.676 76.595 60.007.986 4.023 5.047 6.483 9.07 5.498 4.023-.986 6.484-5.047 5.498-9.07-10.313-42.06-47.802-71.435-91.163-71.435-51.754 0-93.859 42.105-93.859 93.86s42.105 93.86 93.859 93.86c22.307 0 43.926-7.961 60.876-22.416 16.757-14.291 28.001-34.057 31.661-55.658.692-4.084-2.058-7.956-6.142-8.648z"/></g></g></svg>