<svg id="Capa_1" enable-background="new 0 0 512 512" height="512" viewBox="0 0 512 512" width="512" xmlns="http://www.w3.org/2000/svg"><g><g><g><g><g><g><g><g><g><g><g><g><path d="m234.427 293.339c.326-1.041-.628-2.05-1.677-1.751-4.091 1.167-14.261 2.476-38.188-.435-46.319-5.634-39.331 42.726-39.331 42.726s55.08 36.504 79.196-40.54z" fill="#b5e245"/><path d="m79.911 340.763c-.197-1.073.872-1.959 1.877-1.535 3.92 1.654 13.896 5.591 37.96 4.195 38.419-2.229 35.47 47.312 35.47 47.312s-60.703 29.427-75.307-49.972z" fill="#c6e873"/></g></g></g></g></g></g></g></g></g><g><g><g><g><g><g><g><g><g><path d="m436.072 293.339c.326-1.041-.628-2.05-1.677-1.751-4.091 1.167-14.261 2.476-38.188-.435-46.319-5.634-39.331 42.726-39.331 42.726s55.08 36.504 79.196-40.54z" fill="#b5e245"/><path d="m281.556 340.763c-.197-1.073.872-1.959 1.877-1.535 3.92 1.654 13.896 5.591 37.96 4.195 38.419-2.229 35.47 47.312 35.47 47.312s-60.703 29.427-75.307-49.972z" fill="#c6e873"/></g></g></g></g></g></g></g></g><path d="m270.06 469.956c22.734-23.229 53.263-37.474 86.856-37.474s64.121 14.245 86.856 37.474z" fill="#c6865c"/><path d="m356.916 432.482c-12.075 0-23.75 1.849-34.813 5.286 19.716 6.124 37.48 17.308 52.043 32.188h69.626c-22.735-23.229-53.264-37.474-86.856-37.474z" fill="#b16e3d"/><path d="m68.415 469.956c22.734-23.229 53.263-37.474 86.856-37.474s64.121 14.245 86.856 37.474z" fill="#c6865c"/><path d="m155.27 432.482c-11.885 0-23.383 1.791-34.291 5.124 19.924 6.088 37.874 17.339 52.565 32.35h68.582c-22.734-23.229-53.263-37.474-86.856-37.474z" fill="#b16e3d"/></g></g><g><path d="m485.008 465.561h-457.83c-10.753 0-19.47 8.717-19.47 19.469 0 10.753 8.717 19.47 19.47 19.47h457.83c10.753 0 19.47-8.717 19.47-19.47-.001-10.752-8.717-19.469-19.47-19.469z" fill="#4a80aa"/><path d="m485.008 465.561h-45.696v19.47c0 10.753-8.717 19.47-19.47 19.47h65.166c10.753 0 19.469-8.717 19.469-19.47s-8.716-19.47-19.469-19.47z" fill="#407093"/><g><path d="m140.3 138.077-45.463 51.029c-1.392 1.562-3.385 2.456-5.478 2.456h-60.239v33.602h73.811c2.059 0 4.023-.865 5.413-2.384l57.045-62.351z" fill="#e2f4ff"/><g><path d="m28.234 268.897h-12.37c-4.606 0-8.341-3.734-8.341-8.341v-104.221c0-4.606 3.734-8.341 8.341-8.341h12.37c10.886 0 19.712 8.825 19.712 19.712v81.48c-.001 10.886-8.826 19.711-19.712 19.711z" fill="#d1ecf9"/></g><g><path d="m107.456 161.402 40.561 36.137c5.228 4.657 13.241 4.195 17.898-1.033l43-48.265-59.492-53.002-43 48.265c-4.657 5.227-4.194 13.24 1.033 17.898z" fill="#d1ecf9"/><g><path d="m230.336 167.449h60.167v41.624h-60.167z" fill="#d1ecf9" transform="matrix(.766 .643 -.643 .766 182.1 -123.39)"/><g><path d="m213.706 206.619-134.243-112.761c-7.15-6.006-8.077-16.671-2.072-23.821l42.367-50.438 154.262 129.577-47.301 56.312c-3.281 3.905-9.107 4.412-13.013 1.131z" fill="#f2f9ff"/><path d="m291.255 131.236-142.586-119.769c-7.15-6.006-17.815-5.078-23.821 2.072l-22.986 27.365 74.723 62.766c6.692 5.621 15.209 8.601 23.946 8.377 8.737-.224 17.254 2.756 23.946 8.377l43.207 36.293 21.827-10.856c5.681-2.824 6.6-10.546 1.744-14.625z" fill="#e2f4ff"/></g><path d="m265.102 252.837-13.454-19.102c-1.641-2.33-1.507-5.473.326-7.655l44.901-53.455c1.833-2.182 4.906-2.856 7.484-1.642l21.138 9.954c3.728 1.756 4.783 6.565 2.133 9.72l-52.585 62.603c-2.65 3.156-7.57 2.946-9.943-.423z" fill="#e2f4ff"/></g></g></g></g></g><g><path d="m15.863 276.398h12.371c15.005 0 27.212-12.207 27.212-27.212v-16.522h47.486c4.151 0 8.141-1.757 10.946-4.822l25.542-27.918 3.609 3.215c8.305 7.399 21.084 6.664 28.486-1.644l10.457-11.737 26.91 22.604c7.077 5.944 17.631 5.032 23.581-2.051l4.215-5.018 13.463 11.309-3.91 4.655c-4.017 4.782-4.311 11.689-.714 16.797l13.454 19.102c5.203 7.388 15.995 7.858 21.817.928l52.585-62.603c5.814-6.923 3.507-17.472-4.681-21.329l-21.137-9.954c-5.652-2.662-12.404-1.18-16.424 3.603l-4.572 5.443-13.113-11.015 19.406-9.652c10.498-5.221 12.23-19.522 3.227-27.084l-142.586-119.769c-10.329-8.676-25.71-7.34-34.387 2.991-4.606 5.483-42.015 50.019-47.458 56.499-8.655 10.306-7.313 25.731 2.991 34.386l34.807 29.237-8.621 9.677c-7.416 8.323-6.686 21.069 1.644 28.487l1.125 1.003-14.306 16.058h-33.842v-16.356c0-15.005-12.207-27.212-27.212-27.212h-12.371c-8.734 0-15.841 7.106-15.841 15.841v104.222c0 8.735 7.107 15.841 15.841 15.841zm144.452-84.881c-1.906 2.139-5.175 2.322-7.309.421l-40.562-36.137c-2.135-1.902-2.326-5.172-.422-7.309l8.913-10.004 49.546 41.617zm132.903-2.878c.001-.002.003-.003.004-.005s.003-.004.004-.005l8.787-10.461 18.855 8.878-50.547 60.176-12-17.039zm-16.306-3.909-17.124 20.386-13.463-11.309 17.125-20.386zm-192.626-96.615c-3.972-3.336-4.488-9.282-1.152-13.254l19.648-23.39 9.987 8.389c3.172 2.664 7.901 2.253 10.567-.919 2.664-3.171 2.252-7.902-.919-10.566l-9.988-8.39 18.163-21.623c3.356-3.994 9.288-4.485 13.253-1.153l142.586 119.769c.723.607.595 1.743-.259 2.167l-17.427 8.668-39.445-33.133c-20.407-17.141-32.516-3.837-47.891-16.754l-32.131-26.989c-3.173-2.665-7.903-2.254-10.567.919-2.664 3.171-2.252 7.902.919 10.566l32.131 26.989c19.79 16.623 32.977 4.226 47.891 16.754l37.465 31.47-.327.389c-.002.002-.003.003-.005.005s-.003.004-.004.006l-26.763 31.865c-.001.001-.002.002-.003.003s-.002.002-.003.003l-9.036 10.758c-.601.716-1.686.849-2.446.212zm-28.84 110.947h33.914c4.227 0 8.264-1.81 11.077-4.967l14.355-16.113 13.428 11.963-25.361 27.719h-47.413zm-40.424-42.727c0-.464.377-.841.841-.841h12.371c6.733 0 12.212 5.478 12.212 12.212v81.48c0 6.734-5.478 12.212-12.212 12.212h-12.371c-.464 0-.841-.377-.841-.841z"/><path d="m485.008 458.061h-42.852c-22.083-19.644-49.369-31.13-77.793-32.846 0-15.98 0-64.843 0-79.38 7.87 2.972 16.355 4.596 24.788 4.095 4.136-.245 7.288-3.796 7.044-7.931-.245-4.135-3.817-7.282-7.931-7.043-10.298.608-19.612-3.285-24.218-5.634-.208-5.88.335-17.82 7.283-24.926 5.054-5.168 13.12-7.12 23.972-5.798 12.451 1.515 22.6 2.091 30.353 1.721-3.335 8.362-7.249 15.288-11.687 20.665-2.637 3.194-2.185 7.921 1.01 10.559 3.191 2.635 7.92 2.185 10.558-1.01 7.219-8.745 13.172-20.505 17.693-34.952 2.107-6.725-4.111-13.144-10.891-11.204-2.673.762-11.459 2.224-35.226-.668-15.731-1.915-28.017 1.519-36.507 10.202-13.542 13.849-11.734 36.059-11.241 40.337v11.147c-7.366-6.936-16.909-10.125-28.405-9.457-22.883 1.33-31.711-2.395-34.61-3.619-6.5-2.735-13.443 2.869-12.168 9.802 5.208 28.319 16.704 47.161 34.167 56.005 12.747 6.455 27.304 6.73 41.016 3.143v23.954c-28.387 1.737-55.633 13.22-77.687 32.839h-31.165c-22.083-19.644-49.369-31.13-77.793-32.846 0-15.99 0-64.835 0-79.372 12.282 4.641 25.596 5.853 38.117 1.41 18.346-6.512 32.055-23.897 40.75-51.673.001-.001.001-.003.002-.005 2.1-6.724-4.117-13.137-10.893-11.199-2.674.763-11.456 2.224-35.226-.668-15.733-1.915-28.017 1.519-36.507 10.202-13.542 13.849-11.734 36.059-11.241 40.337v11.147c-7.367-6.936-16.91-10.127-28.404-9.457-22.882 1.329-31.712-2.395-34.611-3.619-6.499-2.736-13.443 2.869-12.168 9.802 5.208 28.319 16.704 47.161 34.167 56.005 12.747 6.455 27.304 6.73 41.016 3.143v23.954c-28.386 1.737-55.632 13.22-77.687 32.839h-42.855c-14.871 0-26.969 12.099-26.969 26.969 0 14.87 12.098 26.969 26.969 26.969h457.83c14.871 0 26.969-12.099 26.969-26.969.001-14.871-12.098-26.97-26.969-26.97zm-169.884-73.318c-11.102-5.622-19.135-17.486-23.946-35.328 6.888 1.424 16.569 2.312 30.649 1.496 7.55-.436 13.34 1.469 17.711 5.829 7.895 7.877 9.527 21.704 9.818 28.902-6.943 2.345-21.268 5.666-34.232-.899zm-201.645 0c-11.102-5.622-19.135-17.486-23.946-35.328 6.887 1.424 16.573 2.313 30.65 1.496 7.549-.436 13.34 1.469 17.71 5.829 7.895 7.877 9.527 21.704 9.818 28.902-6.942 2.345-21.267 5.666-34.232-.899zm243.437 55.239c21.37 0 42.273 6.323 60.525 18.079h-121.05c18.251-11.756 39.154-18.079 60.525-18.079zm-187.232-135.585c5.054-5.168 13.12-7.12 23.972-5.798 12.457 1.515 22.607 2.09 30.36 1.72-6.983 17.564-16.411 28.569-28.095 32.761-13.661 4.901-27.552-.723-33.521-3.76-.208-5.881.336-17.818 7.284-24.923zm-14.413 135.585c21.37 0 42.273 6.323 60.524 18.079h-121.049c18.251-11.756 39.155-18.079 60.525-18.079zm329.737 57.018h-457.83c-6.601 0-11.97-5.37-11.97-11.97s5.369-11.97 11.97-11.97h457.83c6.6 0 11.97 5.37 11.97 11.97 0 6.601-5.37 11.97-11.97 11.97z"/></g></g></svg>