<svg id="Capa_1" enable-background="new 0 0 512 512" height="512" viewBox="0 0 512 512" width="512" xmlns="http://www.w3.org/2000/svg"><g><g><g><g><path d="m214.276 461.845h-104.244v-448.479c0-3.24 2.626-5.866 5.866-5.866h92.512c3.24 0 5.866 2.626 5.866 5.866z" fill="#afe2f7"/><path d="m149.413 461.845h-39.381v-448.479c0-3.24 2.626-5.866 5.866-5.866h33.515z" fill="#d1ecf9"/></g><g><g><g><g><g><g><g><g fill="#c6e873"><path d="m248.871 158.466c-.356-1.169.722-2.291 1.894-1.946 4.573 1.343 15.953 2.899 42.782-.151 51.936-5.903 43.682 48.208 43.682 48.208s-62.023 40.405-88.358-46.111z"/><path d="m421.538 212.951c.23-1.2-.959-2.202-2.089-1.736-4.405 1.818-15.615 6.141-42.559 4.365-43.017-2.835-40.15 52.686-40.15 52.686s67.74 33.497 84.798-55.315z"/></g></g></g></g></g></g></g></g></g><path d="m436.274 371.421c-26.24-22.714-61.478-36.643-100.25-36.643s-74.01 13.929-100.251 36.643z" fill="#c6865c"/><g><path d="m400.598 504.5h-289.196c-11.712 0-21.985-7.817-25.106-19.106l-28.803-104.165h397.013l-28.802 104.164c-3.121 11.29-13.394 19.107-25.106 19.107z" fill="#eaaa89"/></g><path d="m389.243 381.229-28.803 104.165c-3.121 11.289-13.394 19.106-25.106 19.106h65.264c11.712 0 21.985-7.817 25.106-19.106l28.803-104.164h-65.264z" fill="#e4936b"/><path d="m465.589 398.025h-419.178c-6.434 0-11.649-5.215-11.649-11.649v-10.294c0-6.434 5.215-11.649 11.649-11.649h419.178c6.434 0 11.649 5.215 11.649 11.649v10.294c0 6.434-5.215 11.649-11.649 11.649z" fill="#e4936b"/><g><path d="m465.589 364.433h-65.347c6.434 0 11.649 5.215 11.649 11.649v10.294c0 6.434-5.215 11.649-11.649 11.649h65.347c6.434 0 11.649-5.215 11.649-11.649v-10.294c0-6.433-5.215-11.649-11.649-11.649z" fill="#e27d47"/></g></g><path d="m465.589 356.933h-35.634c-25.086-17.935-54.679-28.042-86.149-29.472l.37-48.503c37.989 10.839 73.495-6.101 84.728-64.592.629-3.274-.586-6.619-3.171-8.729-2.574-2.1-6.076-2.621-9.145-1.355-3.307 1.365-13.371 5.518-39.204 3.814-13.076-.863-23.889 2.822-32.133 10.949-.215.212-.415.436-.624.652l.112-14.704c4.272-34.172-13.719-60.433-52.039-56.077-26.813 3.048-36.781 1.3-39.819.408-3.184-.935-6.613-.05-8.952 2.311-2.349 2.371-3.204 5.826-2.232 9.016 9.407 30.904 24.426 50.303 44.638 57.657 14.221 5.175 29.431 3.688 43.316-1.702-.013 1.767-.829 108.725-.845 110.828-31.681 1.334-61.477 11.456-86.714 29.499h-20.315v-343.567c-.001-7.37-5.997-13.366-13.367-13.366h-92.513c-7.37 0-13.366 5.996-13.366 13.366v29.682c0 4.142 3.358 7.5 7.5 7.5s7.5-3.358 7.5-7.5v-28.048h24.381v341.933h-24.381v-278.815c0-4.142-3.358-7.5-7.5-7.5s-7.5 3.358-7.5 7.5v278.815h-56.12c-10.559 0-19.149 8.59-19.149 19.149v10.294c0 10.559 8.59 19.149 19.149 19.149h10.019l22.638 81.868c4.006 14.488 17.302 24.607 32.334 24.607h289.196c15.032 0 28.329-10.119 32.335-24.607l22.637-81.868h10.019c10.559 0 19.149-8.59 19.149-19.149v-10.294c0-10.559-8.591-19.149-19.149-19.149zm-121.282-95.195c.557-9.276 3.165-23.817 11.476-32.01 5.131-5.06 11.876-7.241 20.615-6.663 16.681 1.099 27.812.006 35.541-1.69-5.562 20.944-14.921 34.817-27.89 41.304-15.16 7.582-32.058 3.278-39.754.559zm-52.951-57.565c-13.603-4.997-24.423-18.033-32.235-38.806 8.841.617 20.776.102 35.272-1.546 25.28-2.872 37.113 10.263 35.726 36.146-6.577 3.357-22.83 10.057-38.763 4.206zm44.667 138.105c22.948 0 44.921 5.016 64.719 14.655h-129.438c19.799-9.64 41.772-14.655 64.719-14.655zm-179.11-327.278h49.863v38.083h-11.521c-4.142 0-7.5 3.358-7.5 7.5s3.358 7.5 7.5 7.5h11.521v50.275h-11.521c-4.142 0-7.5 3.358-7.5 7.5s3.358 7.5 7.5 7.5h11.521v50.275h-11.521c-4.142 0-7.5 3.358-7.5 7.5s3.358 7.5 7.5 7.5h11.521v50.275h-11.521c-4.142 0-7.5 3.358-7.5 7.5s3.358 7.5 7.5 7.5h11.521v50.275h-11.521c-4.142 0-7.5 3.358-7.5 7.5s3.358 7.5 7.5 7.5h11.521v27.75h-49.863zm312.825 371.376c0 2.288-1.861 4.149-4.149 4.149h-124.134c-4.143 0-7.5 3.358-7.5 7.5s3.357 7.5 7.5 7.5h98.552l-21.532 77.87c-2.215 8.01-9.566 13.604-17.878 13.604h-289.195c-8.311 0-15.662-5.595-17.877-13.605l-21.532-77.87h234.391c4.143 0 7.5-3.358 7.5-7.5s-3.357-7.5-7.5-7.5h-259.973c-2.288 0-4.149-1.861-4.149-4.149v-10.294c0-2.288 1.861-4.149 4.149-4.149h381.104.006.009 38.059c2.288 0 4.149 1.861 4.149 4.149z"/></g></svg>