<svg id="Capa_1" enable-background="new 0 0 512 512" height="512" viewBox="0 0 512 512" width="512" xmlns="http://www.w3.org/2000/svg"><g><g><g><g><path d="m261.849 504.5h-95.814c-14.103 0-25.535-11.432-25.535-25.535v-77.806h146.884v77.806c0 14.103-11.432 25.535-25.535 25.535z" fill="#4a80aa"/><path d="m283.894 419.806c5.936-45.871 26.014-89 57.528-123.534 27.982-30.664 45.048-71.46 45.048-116.245 0-95.709-77.933-173.216-173.803-172.522-94.701.685-171.671 78.604-171.25 173.305.198 44.608 17.328 85.216 45.293 115.732 31.503 34.378 51.407 77.483 57.293 123.264z" fill="#ffe07d"/><path d="m212.666 7.505c-10.693.077-21.156 1.148-31.31 3.108 79.625 15.298 139.786 85.326 139.786 169.415 0 44.785-17.066 85.581-45.048 116.245-31.514 34.534-51.591 77.664-57.528 123.534h65.328c5.936-45.871 26.014-89 57.528-123.534 27.982-30.664 45.048-71.46 45.048-116.245-.001-95.71-77.935-173.217-173.804-172.523z" fill="#ffd064"/></g><path d="m276.247 378.354h-124.61v-28.918c0-7.597 6.159-13.756 13.756-13.756h97.098c7.597 0 13.756 6.159 13.756 13.756z" fill="#eff2f4"/><g><path d="m295.464 401.158h-163.045c-10.299 0-18.648-8.349-18.648-18.648 0-10.299 8.349-18.648 18.648-18.648h163.045c10.299 0 18.648 8.349 18.648 18.648 0 10.3-8.349 18.648-18.648 18.648z" fill="#e2f4ff"/><path d="m295.464 438.454h-163.045c-10.299 0-18.648-8.349-18.648-18.648 0-10.299 8.349-18.648 18.648-18.648h163.045c10.299 0 18.648 8.349 18.648 18.648 0 10.299-8.349 18.648-18.648 18.648z" fill="#d1ecf9"/><path d="m295.464 475.75h-163.045c-10.299 0-18.648-8.349-18.648-18.648 0-10.299 8.349-18.648 18.648-18.648h163.045c10.299 0 18.648 8.349 18.648 18.648 0 10.299-8.349 18.648-18.648 18.648z" fill="#e2f4ff"/></g></g><g><g><path d="m335.15 229.951h39.864v53.133h-39.864z" fill="#e2f4ff"/><path d="m380.128 247.829h-50.093c-9.874 0-17.878-8.004-17.878-17.878 0-9.874 8.004-17.878 17.878-17.878h50.093c9.874 0 17.878 8.004 17.878 17.878.001 9.874-8.004 17.878-17.878 17.878z" fill="#4a80aa"/></g><g><g><circle cx="355.082" cy="388.997" fill="#dd636e" r="115.503"/><circle cx="355.082" cy="388.997" fill="#f2f9ff" r="84.407"/><path d="m355.082 304.59c-11.582 0-22.616 2.337-32.664 6.558 30.395 12.769 51.743 42.814 51.743 77.849s-21.348 65.081-51.743 77.849c10.048 4.221 21.082 6.558 32.664 6.558 46.617 0 84.407-37.79 84.407-84.407s-37.79-84.407-84.407-84.407z" fill="#e2f4ff"/></g></g></g></g><g><path d="m362.582 385.891v-43c0-4.142-3.358-7.5-7.5-7.5s-7.5 3.358-7.5 7.5v46.106c0 1.989.79 3.897 2.197 5.303l24.525 24.525c2.929 2.929 7.678 2.929 10.606 0 2.929-2.929 2.929-7.678 0-10.606z"/><path d="m382.514 269.081v-13.868c12.879-1.207 22.993-12.074 22.993-25.263 0-13.994-11.385-25.378-25.378-25.378h-50.093c-13.994 0-25.378 11.385-25.378 25.378 0 13.189 10.114 24.056 22.993 25.263v13.868c-32.329 7.392-59.84 27.561-76.929 54.887v-23.23c0-6.47 1.586-12.919 4.586-18.65l36.582-69.882c2.412-4.607-.033-12.131-6.645-12.131-9.099 0-14.003 5.016-17.248 8.335-2.776 2.839-3.871 3.821-6.522 3.821s-3.746-.982-6.522-3.821c-3.245-3.319-8.149-8.335-17.248-8.335-9.098 0-14.002 5.016-17.247 8.335-2.775 2.839-3.87 3.821-6.521 3.821-2.65 0-3.744-.982-6.52-3.821-3.245-3.319-8.148-8.336-17.246-8.336s-14.002 5.016-17.247 8.336c-2.775 2.839-3.87 3.821-6.52 3.821s-3.744-.982-6.52-3.821c-3.245-3.319-8.148-8.336-17.246-8.336-6.765 0-8.956 7.717-6.645 12.131l36.582 69.882c3 5.731 4.586 12.181 4.586 18.65v27.442h-11.77c-11.721 0-21.256 9.535-21.256 21.256v6.926h-9.864c-10.31-23.873-24.433-45.682-42.034-64.889-27.752-30.283-43.137-69.597-43.32-110.695-.403-90.752 73.079-165.116 163.803-165.772 90.928-.626 164.68 71.951 166.224 162.136.071 4.142 3.522 7.408 7.627 7.371 4.142-.071 7.441-3.486 7.371-7.627-1.683-98.24-81.761-176.885-179.992-176.885-.443 0-.895.002-1.338.005-98.973.716-179.135 81.839-178.695 180.838.199 44.836 16.984 87.725 47.263 120.765 15.856 17.303 28.684 36.868 38.227 58.237-7.841 4.52-13.135 12.983-13.135 22.666 0 7.296 3.007 13.9 7.842 18.648-4.836 4.748-7.842 11.352-7.842 18.648s3.007 13.9 7.842 18.648c-4.836 4.748-7.842 11.352-7.842 18.648 0 14.418 11.729 26.147 26.147 26.147h.868c2.108 16.198 15.985 28.75 32.748 28.75h95.814c12.612 0 23.814-7.219 29.354-17.923 18.631 11.367 40.503 17.923 63.879 17.923 67.824 0 123.003-55.179 123.003-123.003 0-58.397-40.908-107.417-95.571-119.916zm-62.857-39.13c0-5.723 4.656-10.378 10.378-10.378h50.093c5.723 0 10.378 4.656 10.378 10.378s-4.656 10.378-10.378 10.378h-50.093c-5.722 0-10.378-4.656-10.378-10.378zm22.993 25.378h24.864v11.29c-4.089-.412-8.236-.625-12.432-.625s-8.343.213-12.432.625zm-156.784 19.802-25.508-48.728c17.532 5.086 23.117-11.328 29.814-11.328 2.65 0 3.744.982 6.52 3.821 3.245 3.319 8.148 8.336 17.246 8.336 9.099 0 14.002-5.016 17.247-8.336 2.775-2.839 3.87-3.821 6.52-3.821 2.651 0 3.747.982 6.522 3.821 6.702 6.855 14.02 10.2 23.301 7.506l-25.509 48.729c-4.12 7.87-6.297 16.725-6.297 25.607v27.442h-43.558v-27.442c-.001-8.882-2.179-17.737-6.298-25.607zm-26.729 74.306c0-3.45 2.807-6.256 6.256-6.256h75.542c-1.724 4.281-3.213 8.68-4.454 13.182h-77.345v-6.926zm-37.865 70.369c0-6.147 5.001-11.148 11.147-11.148h9.59c4.142 0 7.5-3.358 7.5-7.5s-3.358-7.5-7.5-7.5h-9.59c-6.146 0-11.147-5.001-11.147-11.147 0-6.178 5.05-11.148 11.147-11.148h100.929c-.831 5.761-1.269 11.647-1.269 17.634 0 1.561.039 3.114.097 4.661h-55.231c-4.142 0-7.5 3.358-7.5 7.5s3.358 7.5 7.5 7.5h56.713c1.241 7.692 3.193 15.148 5.794 22.296h-107.033c-6.146 0-11.147-5.001-11.147-11.148zm0 37.296c0-6.147 5.001-11.147 11.147-11.147h113.669c4.191 7.987 9.233 15.459 15.007 22.295h-128.676c-6.146 0-11.147-5.001-11.147-11.148zm140.577 39.898h-95.814c-8.466 0-15.569-5.871-17.499-13.75h127.608c.843.707 1.694 1.404 2.555 2.089-2.601 6.857-9.25 11.661-16.85 11.661zm93.233 0c-59.553 0-108.003-48.45-108.003-108.003s48.45-108.003 108.003-108.003 108.003 48.45 108.003 108.003-48.45 108.003-108.003 108.003z"/><path d="m355.082 297.09c-50.678 0-91.907 41.229-91.907 91.907s41.229 91.907 91.907 91.907 91.907-41.229 91.907-91.907-41.229-91.907-91.907-91.907zm0 168.814c-42.407 0-76.907-34.5-76.907-76.907s34.5-76.907 76.907-76.907 76.907 34.5 76.907 76.907-34.5 76.907-76.907 76.907z"/></g></g></svg>