<svg width="50" height="50" viewBox="0 0 84 83" fill="none" xmlns="http://www.w3.org/2000/svg">
<path d="M42.1627 31.3714C41.9626 29.4208 42.4882 27.6154 44.0157 26.288C46.1606 24.424 48.8549 23.7078 51.6079 23.402" stroke="#2CB867" stroke-linecap="round" stroke-linejoin="round"/>
<path d="M42.0889 31.5189C42.0889 30.5161 42.131 29.5022 42.0561 28.5017C41.9453 27.0207 41.2569 25.5782 40.4901 24.3284C39.6126 22.8982 38.4855 22.0344 36.7596 22.0983C36.1063 22.1225 35.4755 22.3263 34.8574 22.5165" stroke="#2CB867" stroke-linecap="round" stroke-linejoin="round"/>
<path d="M43.8253 26.1325C42.3252 16.6325 53.8252 20.1325 59.8253 20.6325" stroke="#2CB867"/>
<path d="M43.7246 25.5587C47.5219 35.108 54.9446 24.0683 59.8253 20.6325" stroke="#2CB867"/>
<path d="M39.247 22.6122C34.7277 31.1019 27.6498 21.3858 23.1589 17.3756" stroke="#2CB867"/>
<path d="M38.982 23.131C41.6964 13.2194 29.1244 17.5689 23.1589 17.3756" stroke="#2CB867"/>
<path d="M21.3253 31.6325L63.3253 31.6325L63.3253 56.6325C63.3253 58.8417 61.5344 60.6325 59.3253 60.6325L25.3253 60.6325C23.1161 60.6325 21.3253 58.8417 21.3253 56.6325L21.3253 31.6325Z" fill="white" stroke="#4F4F4F" stroke-width="2"/>
</svg>
