<svg width="75" height="74" viewBox="0 0 75 74" fill="none" xmlns="http://www.w3.org/2000/svg">
<path d="M18.4113 52.2531C17.1891 51.7463 16.2115 50.7687 15.7047 49.5465L16.6284 49.1634C16.4334 48.6932 16.3253 48.1767 16.3253 47.6325L16.3253 45.4659L15.3253 45.4659L15.3253 41.1325L16.3253 41.1325L16.3253 36.7992L15.3253 36.7992L15.3253 32.4659L16.3253 32.4659L16.3253 28.1325L15.3253 28.1325L15.3253 23.7992L16.3253 23.7992L16.3253 22.6325L17.1586 22.6325L17.1586 21.6325L20.8253 21.6325L20.8253 22.6325L24.492 22.6325L24.492 21.6325L28.1586 21.6325L28.1586 22.6325L31.8253 22.6325L31.8253 21.6325L35.492 21.6325L35.492 22.6325L39.1586 22.6325L39.1586 21.6325L42.8253 21.6325L42.8253 22.6325L46.492 22.6325L46.492 21.6325L50.1586 21.6325L50.1586 22.6325L53.8253 22.6325L53.8253 21.6325L57.492 21.6325L57.492 22.6325L58.3253 22.6325L58.3253 23.7992L59.3253 23.7992L59.3253 28.1325L58.3253 28.1325L58.3253 32.4659L59.3253 32.4659L59.3253 36.7992L58.3253 36.7992L58.3253 41.1325L59.3253 41.1325L59.3253 45.4659L58.3253 45.4659L58.3253 47.6325C58.3253 48.1767 58.2172 48.6932 58.0222 49.1634L58.9459 49.5465C58.4391 50.7687 57.4614 51.7463 56.2392 52.2531L55.8562 51.3294C55.3859 51.5244 54.8695 51.6325 54.3253 51.6325L52.2003 51.6325L52.2003 52.6325L47.9503 52.6325L47.9503 51.6325L43.7003 51.6325L43.7003 52.6325L39.4503 52.6325L39.4503 51.6325L35.2003 51.6325L35.2003 52.6325L30.9503 52.6325L30.9503 51.6325L26.7003 51.6325L26.7003 52.6325L22.4503 52.6325L22.4503 51.6325L20.3253 51.6325C19.7811 51.6325 19.2646 51.5244 18.7944 51.3294L18.4113 52.2531Z" fill="white" stroke="#4F4F4F" stroke-width="2" stroke-dasharray="4 4"/>
<path d="M36.9258 37.8848C36.9219 37.7441 36.9199 37.6387 36.9199 37.5684C36.9199 37.1543 36.9785 36.7969 37.0957 36.4961C37.1816 36.2695 37.3203 36.041 37.5117 35.8105C37.6523 35.6426 37.9043 35.3984 38.2676 35.0781C38.6348 34.7539 38.873 34.4961 38.9824 34.3047C39.0918 34.1133 39.1465 33.9043 39.1465 33.6777C39.1465 33.2676 38.9863 32.9082 38.666 32.5996C38.3457 32.2871 37.9531 32.1309 37.4883 32.1309C37.0391 32.1309 36.6641 32.2715 36.3633 32.5527C36.0625 32.834 35.8652 33.2734 35.7715 33.8711L34.6875 33.7422C34.7852 32.9414 35.0742 32.3281 35.5547 31.9023C36.0391 31.4766 36.6777 31.2637 37.4707 31.2637C38.3105 31.2637 38.9805 31.4922 39.4805 31.9492C39.9805 32.4062 40.2305 32.959 40.2305 33.6074C40.2305 33.9824 40.1426 34.3281 39.9668 34.6445C39.791 34.9609 39.4473 35.3457 38.9355 35.7988C38.5918 36.1035 38.3672 36.3281 38.2617 36.4727C38.1563 36.6172 38.0781 36.7832 38.0273 36.9707C37.9766 37.1582 37.9473 37.4629 37.9395 37.8848L36.9258 37.8848ZM36.8613 40L36.8613 38.7988L38.0625 38.7988L38.0625 40L36.8613 40Z" fill="#272727"/>
</svg>
